<svg width="24" height="24" viewBox="0 0 24 24" fill="none" xmlns="http://www.w3.org/2000/svg">
<path d="M17.5912 18.7907C16.0217 20.362 13.9559 21.3405 11.7458 21.5595C9.53568 21.7785 7.31803 21.2244 5.47064 19.9916C3.62326 18.7589 2.26045 16.9238 1.61439 14.7989C0.968323 12.674 1.07898 10.3909 1.92751 8.33846C2.77604 6.28603 4.30995 4.59129 6.26789 3.54299C8.22583 2.49469 10.4867 2.15767 12.6652 2.58936C14.8438 3.02106 16.8053 4.19475 18.2155 5.91047C19.6257 7.62619 20.3975 9.7778 20.3992 11.9987H17.9992C18.0007 10.3329 17.4245 8.71807 16.3688 7.42947C15.3131 6.14086 13.8432 5.25819 12.2096 4.93187C10.5761 4.60555 8.87989 4.85577 7.41014 5.63989C5.94039 6.42401 4.78801 7.6935 4.14936 9.23206C3.51072 10.7706 3.42533 12.483 3.90775 14.0775C4.39017 15.6719 5.41055 17.0498 6.795 17.9762C8.17946 18.9026 9.84233 19.3204 11.5002 19.1582C13.1582 18.996 14.7086 18.2639 15.8872 17.0867L17.5912 18.7907ZM14.3992 11.9987H23.9992L19.1992 16.7987L14.3992 11.9987Z" fill="#B5B3B8"/>
</svg>
