<svg width="60" height="60" viewBox="0 0 60 60" fill="none" xmlns="http://www.w3.org/2000/svg">
<circle cx="30" cy="30" r="30" fill="black"/>
<path d="M30 31C32.396 31 34.575 31.694 36.178 32.672C36.978 33.16 37.662 33.736 38.156 34.362C38.642 34.977 39 35.713 39 36.5C39 37.345 38.589 38.011 37.997 38.486C37.437 38.936 36.698 39.234 35.913 39.442C34.335 39.859 32.229 40 30 40C27.771 40 25.665 39.86 24.087 39.442C23.302 39.234 22.563 38.936 22.003 38.486C21.41 38.01 21 37.345 21 36.5C21 35.713 21.358 34.977 21.844 34.361C22.338 33.736 23.021 33.161 23.822 32.671C25.425 31.695 27.605 31 30 31ZM30 20C31.3261 20 32.5979 20.5268 33.5355 21.4645C34.4732 22.4021 35 23.6739 35 25C35 26.3261 34.4732 27.5979 33.5355 28.5355C32.5979 29.4732 31.3261 30 30 30C28.6739 30 27.4021 29.4732 26.4645 28.5355C25.5268 27.5979 25 26.3261 25 25C25 23.6739 25.5268 22.4021 26.4645 21.4645C27.4021 20.5268 28.6739 20 30 20Z" fill="#B5B3B8"/>
</svg>
