<svg width="60" height="60" viewBox="0 0 60 60" fill="none" xmlns="http://www.w3.org/2000/svg">
<path d="M25 12.5C25 13.4849 24.806 14.4602 24.4291 15.3701C24.0522 16.2801 23.4997 17.1069 22.8033 17.8033C22.1069 18.4997 21.2801 19.0522 20.3701 19.4291C19.4602 19.806 18.4849 20 17.5 20C16.5151 20 15.5398 19.806 14.6299 19.4291C13.7199 19.0522 12.8931 18.4997 12.1967 17.8033C11.5003 17.1069 10.9478 16.2801 10.5709 15.3701C10.194 14.4602 10 13.4849 10 12.5C10 10.5109 10.7902 8.60322 12.1967 7.1967C13.6032 5.79018 15.5109 5 17.5 5C19.4891 5 21.3968 5.79018 22.8033 7.1967C24.2098 8.60322 25 10.5109 25 12.5ZM30 35C30.9849 35 31.9602 34.806 32.8701 34.4291C33.7801 34.0522 34.6069 33.4997 35.3033 32.8033C35.9997 32.1069 36.5522 31.2801 36.9291 30.3701C37.306 29.4602 37.5 28.4849 37.5 27.5C37.5 26.5151 37.306 25.5398 36.9291 24.6299C36.5522 23.7199 35.9997 22.8931 35.3033 22.1967C34.6069 21.5003 33.7801 20.9478 32.8701 20.5709C31.9602 20.194 30.9849 20 30 20C28.0109 20 26.1032 20.7902 24.6967 22.1967C23.2902 23.6032 22.5 25.5109 22.5 27.5C22.5 29.4891 23.2902 31.3968 24.6967 32.8033C26.1032 34.2098 28.0109 35 30 35ZM17.75 25H10C8.67392 25 7.40215 25.5268 6.46447 26.4645C5.52678 27.4021 5 28.6739 5 30V31.035C5 34.015 6.715 36.465 8.985 38.07C10.345 39.035 11.97 39.75 13.745 40.17C15.09 37.73 17.425 35.92 20.205 35.265C19.0689 33.8383 18.2601 32.1793 17.8359 30.4055C17.4117 28.6317 17.3824 26.7864 17.75 25ZM39.8 35.265C41.1583 35.586 42.4344 36.1879 43.5461 37.0318C44.6578 37.8757 45.5806 38.943 46.255 40.165C48.03 39.75 49.655 39.035 51.015 38.07C53.285 36.47 55 34.015 55 31.035V30C55 28.6739 54.4732 27.4021 53.5355 26.4645C52.5979 25.5268 51.3261 25 50 25H42.25C42.6114 26.7863 42.5795 28.6299 42.1564 30.4025C41.7333 32.1752 40.9292 33.8345 39.8 35.265ZM22.5 40C21.1739 40 19.9021 40.5268 18.9645 41.4645C18.0268 42.4021 17.5 43.6739 17.5 45V45.835C17.5 48.77 19.285 51.125 21.54 52.625C23.815 54.15 26.815 55 30 55C33.185 55 36.185 54.145 38.46 52.625C40.71 51.125 42.5 48.77 42.5 45.835V45C42.5 43.6739 41.9732 42.4021 41.0355 41.4645C40.0979 40.5268 38.8261 40 37.5 40H22.5ZM45 20C46.9891 20 48.8968 19.2098 50.3033 17.8033C51.7098 16.3968 52.5 14.4891 52.5 12.5C52.5 10.5109 51.7098 8.60322 50.3033 7.1967C48.8968 5.79018 46.9891 5 45 5C43.0109 5 41.1032 5.79018 39.6967 7.1967C38.2902 8.60322 37.5 10.5109 37.5 12.5C37.5 14.4891 38.2902 16.3968 39.6967 17.8033C41.1032 19.2098 43.0109 20 45 20Z" fill="#605B66"/>
</svg>
