<svg width="60" height="60" viewBox="0 0 60 60" fill="none" xmlns="http://www.w3.org/2000/svg">
<path fill-rule="evenodd" clip-rule="evenodd" d="M21.6808 18.8574H38.3208C46.7558 18.8574 50.9758 18.8574 53.3458 21.3249C55.7158 23.7924 55.1558 27.6024 54.0408 35.2249L52.9858 42.4549C52.1108 48.4324 51.6733 51.4224 49.4308 53.2124C47.1883 55.0024 43.8808 55.0024 37.2633 55.0024H22.7383C16.1233 55.0024 12.8133 55.0024 10.5708 53.2124C8.32832 51.4224 7.89082 48.4324 7.01582 42.4549L5.96082 35.2249C4.84332 27.6024 4.28582 23.7924 6.65582 21.3249C9.02582 18.8574 13.2458 18.8574 21.6808 18.8574ZM20.0008 45.0024C20.0008 43.9674 20.9333 43.1274 22.0833 43.1274H37.9183C39.0683 43.1274 40.0008 43.9674 40.0008 45.0024C40.0008 46.0374 39.0683 46.8774 37.9183 46.8774H22.0833C20.9333 46.8774 20.0008 46.0374 20.0008 45.0024Z" fill="#605B66"/>
<path opacity="0.4" d="M21.2773 5H38.7273C39.3098 5 39.7523 5 40.1448 5.0375C42.9148 5.31 45.1798 6.975 46.1423 9.2175H13.8623C14.8248 6.975 17.0923 5.31 19.8623 5.0375C20.2498 5 20.6973 5 21.2773 5Z" fill="#605B66"/>
<path opacity="0.7" d="M15.7774 11.8066C12.3024 11.8066 9.45238 13.9066 8.50238 16.6891L8.44238 16.8641C9.45086 16.5728 10.4807 16.3613 11.5224 16.2316C14.2224 15.8866 17.6374 15.8866 21.6024 15.8866H38.8324C42.7974 15.8866 46.2124 15.8866 48.9124 16.2316C49.9624 16.3666 50.9974 16.5641 51.9924 16.8641L51.9349 16.6891C50.9849 13.9041 48.1349 11.8066 44.6574 11.8066H15.7774Z" fill="#605B66"/>
</svg>
