<svg width="24" height="24" viewBox="0 0 24 24" fill="none" xmlns="http://www.w3.org/2000/svg">
<path fill-rule="evenodd" clip-rule="evenodd" d="M8.67233 7.54297H15.3283C18.7023 7.54297 20.3903 7.54297 21.3383 8.52997C22.2863 9.51697 22.0623 11.041 21.6163 14.09L21.1943 16.982C20.8443 19.373 20.6693 20.569 19.7723 21.285C18.8753 22.001 17.5523 22.001 14.9053 22.001H9.09533C6.44933 22.001 5.12533 22.001 4.22833 21.285C3.33133 20.569 3.15633 19.373 2.80633 16.982L2.38433 14.09C1.93733 11.041 1.71433 9.51697 2.66233 8.52997C3.61033 7.54297 5.29833 7.54297 8.67233 7.54297ZM8.00033 18.001C8.00033 17.587 8.37333 17.251 8.83333 17.251H15.1673C15.6273 17.251 16.0003 17.587 16.0003 18.001C16.0003 18.415 15.6273 18.751 15.1673 18.751H8.83333C8.37333 18.751 8.00033 18.415 8.00033 18.001Z" fill="#B5B3B8"/>
<path opacity="0.4" d="M8.51092 2H15.4909C15.7239 2 15.9009 2 16.0579 2.015C17.1659 2.124 18.0719 2.79 18.4569 3.687H5.54492C5.92992 2.79 6.83692 2.124 7.94492 2.015C8.09992 2 8.27892 2 8.51092 2Z" fill="#B5B3B8"/>
<path opacity="0.7" d="M6.31095 4.72266C4.92095 4.72266 3.78095 5.56266 3.40095 6.67566L3.37695 6.74566C3.78034 6.62912 4.19228 6.54453 4.60895 6.49266C5.68895 6.35466 7.05495 6.35466 8.64095 6.35466H15.533C17.119 6.35466 18.485 6.35466 19.565 6.49266C19.985 6.54666 20.399 6.62566 20.797 6.74566L20.774 6.67566C20.394 5.56166 19.254 4.72266 17.863 4.72266H6.31095Z" fill="#B5B3B8"/>
</svg>
