<svg width="24" height="24" viewBox="0 0 24 24" fill="none" xmlns="http://www.w3.org/2000/svg">
<path d="M10 5C10 5.39397 9.9224 5.78407 9.77164 6.14805C9.62087 6.51203 9.3999 6.84274 9.12132 7.12132C8.84274 7.3999 8.51203 7.62087 8.14805 7.77164C7.78407 7.9224 7.39397 8 7 8C6.60603 8 6.21593 7.9224 5.85195 7.77164C5.48797 7.62087 5.15726 7.3999 4.87868 7.12132C4.6001 6.84274 4.37913 6.51203 4.22836 6.14805C4.0776 5.78407 4 5.39397 4 5C4 4.20435 4.31607 3.44129 4.87868 2.87868C5.44129 2.31607 6.20435 2 7 2C7.79565 2 8.55871 2.31607 9.12132 2.87868C9.68393 3.44129 10 4.20435 10 5ZM12 14C12.394 14 12.7841 13.9224 13.1481 13.7716C13.512 13.6209 13.8427 13.3999 14.1213 13.1213C14.3999 12.8427 14.6209 12.512 14.7716 12.1481C14.9224 11.7841 15 11.394 15 11C15 10.606 14.9224 10.2159 14.7716 9.85195C14.6209 9.48797 14.3999 9.15726 14.1213 8.87868C13.8427 8.6001 13.512 8.37913 13.1481 8.22836C12.7841 8.0776 12.394 8 12 8C11.2044 8 10.4413 8.31607 9.87868 8.87868C9.31607 9.44129 9 10.2044 9 11C9 11.7956 9.31607 12.5587 9.87868 13.1213C10.4413 13.6839 11.2044 14 12 14ZM7.1 10H4C3.46957 10 2.96086 10.2107 2.58579 10.5858C2.21071 10.9609 2 11.4696 2 12V12.414C2 13.606 2.686 14.586 3.594 15.228C4.138 15.614 4.788 15.9 5.498 16.068C6.036 15.092 6.97 14.368 8.082 14.106C7.62756 13.5353 7.30406 12.8717 7.13437 12.1622C6.96468 11.4527 6.95294 10.7146 7.1 10ZM15.92 14.106C16.4633 14.2344 16.9738 14.4752 17.4184 14.8127C17.8631 15.1503 18.2322 15.5772 18.502 16.066C19.212 15.9 19.862 15.614 20.406 15.228C21.314 14.588 22 13.606 22 12.414V12C22 11.4696 21.7893 10.9609 21.4142 10.5858C21.0391 10.2107 20.5304 10 20 10H16.9C17.0446 10.7145 17.0318 11.4519 16.8626 12.161C16.6933 12.8701 16.3717 13.5338 15.92 14.106ZM9 16C8.46957 16 7.96086 16.2107 7.58579 16.5858C7.21071 16.9609 7 17.4696 7 18V18.334C7 19.508 7.714 20.45 8.616 21.05C9.526 21.66 10.726 22 12 22C13.274 22 14.474 21.658 15.384 21.05C16.284 20.45 17 19.508 17 18.334V18C17 17.4696 16.7893 16.9609 16.4142 16.5858C16.0391 16.2107 15.5304 16 15 16H9ZM18 8C18.7956 8 19.5587 7.68393 20.1213 7.12132C20.6839 6.55871 21 5.79565 21 5C21 4.20435 20.6839 3.44129 20.1213 2.87868C19.5587 2.31607 18.7956 2 18 2C17.2044 2 16.4413 2.31607 15.8787 2.87868C15.3161 3.44129 15 4.20435 15 5C15 5.79565 15.3161 6.55871 15.8787 7.12132C16.4413 7.68393 17.2044 8 18 8Z" fill="#FFF05A"/>
</svg>
