<svg width="50" height="50" viewBox="0 0 50 50" fill="none" xmlns="http://www.w3.org/2000/svg">
<path d="M37.0957 10.2836C29.2594 4.15132 17.6185 5.29509 11.0239 11.9962C4.23092 18.8994 3.5339 32.3204 11.807 38.9006C16.5899 42.7047 24.7013 44.8898 30.7659 43.1073C42.0713 39.7847 47.9693 25.9801 41.6449 15.2046" stroke="#FFF05A" stroke-width="2.77778" stroke-miterlimit="1.5" stroke-linecap="round" stroke-linejoin="round"/>
<path d="M28.2355 17.4496C26.0459 17.2301 23.6353 17.2098 21.8058 18.5971C20.3213 19.7229 19.5673 21.7726 21.2481 23.1402C23.6828 25.1216 27.6688 23.8625 29.8791 26.3075C31.4049 27.995 30.1855 30.2963 28.5092 31.289C27.211 32.0577 25.6355 32.1417 24.1733 31.9316C22.613 31.7076 21.0331 31.5328 19.4805 31.264" stroke="#FFF05A" stroke-width="2.77778" stroke-miterlimit="1.5" stroke-linecap="round" stroke-linejoin="round"/>
<path d="M24.7861 17.4499C24.8099 16.5392 24.8687 15.6352 24.8378 14.7236" stroke="#FFF05A" stroke-width="2.77778" stroke-miterlimit="1.5" stroke-linecap="round" stroke-linejoin="round"/>
<path d="M24.6367 31.9761C24.664 32.8375 24.6923 33.6979 24.7397 34.5585" stroke="#FFF05A" stroke-width="2.77778" stroke-miterlimit="1.5" stroke-linecap="round" stroke-linejoin="round"/>
</svg>
