<svg width="60" height="60" viewBox="0 0 60 60" fill="none" xmlns="http://www.w3.org/2000/svg">
<path d="M24.6085 45.7808C24.3739 46.7554 26.6261 47.2315 34.1996 47.84C42.217 48.479 44.0089 48.3282 43.8747 47.1329C43.6699 45.4915 25.0284 44.2143 24.6085 45.7808Z" fill="#FFF05A"/>
<path d="M24.5659 10.2664C21.6069 9.77406 21.142 10.218 18.1308 16.3926C15.0139 22.7668 14.6714 24.0421 15.8176 24.7252C17.9009 25.9551 19.2673 24.5317 23.5157 16.8397C26.6468 11.163 26.75 10.6298 24.5659 10.2664Z" fill="#FFF05A"/>
<path d="M39.2324 23.1624C37.1094 22.7802 36.2641 23.074 33.3363 25.179C24.6749 31.456 17.9902 35.2527 22.1375 35.9138C23.8284 36.1952 25.5589 35.1943 35.9343 28.1888C41.6515 24.289 42.0694 23.6924 39.2324 23.1624Z" fill="#FFF05A"/>
</svg>
