<svg width="18" height="18" viewBox="0 0 18 18" fill="none" xmlns="http://www.w3.org/2000/svg">
<path d="M11.7048 5.74899L10.5629 4.60824L4.85353 10.3165C4.62868 10.5414 4.45032 10.8084 4.32866 11.1023C4.207 11.3961 4.14441 11.7111 4.14446 12.0291C4.14451 12.3472 4.20721 12.6621 4.32897 12.9559C4.45073 13.2497 4.62916 13.5167 4.85409 13.7416C5.07902 13.9664 5.34604 14.1448 5.6399 14.2664C5.93375 14.3881 6.24869 14.4507 6.56674 14.4506C6.88479 14.4506 7.19971 14.3879 7.49353 14.2661C7.78734 14.1444 8.0543 13.9659 8.27916 13.741L15.1304 6.89086C15.8874 6.13375 16.3126 5.10695 16.3125 4.03634C16.3124 2.96573 15.887 1.93901 15.1298 1.18205C14.3727 0.425092 13.3459 -0.00010547 12.2753 1.96238e-08C11.2047 0.000105509 10.178 0.425505 9.42103 1.18262L2.22778 8.37474L2.21203 8.38936C0.0126563 10.5887 0.0126563 14.1527 2.21203 16.351C4.41141 18.5492 7.97541 18.5492 10.1748 16.351L10.1894 16.3352L10.1905 16.3364L15.1012 11.4269L13.9593 10.2861L9.04866 15.1945L9.03403 15.2091C8.28043 15.9612 7.25923 16.3836 6.19453 16.3836C5.12983 16.3836 4.10863 15.9612 3.35503 15.2091C2.98122 14.8349 2.685 14.3905 2.4834 13.9015C2.28179 13.4125 2.17876 12.8885 2.18022 12.3596C2.18168 11.8307 2.28761 11.3072 2.49192 10.8194C2.69623 10.3315 2.9949 9.88875 3.37078 9.51661L3.36966 9.51549L10.564 2.32337C11.5079 1.37837 13.0447 1.37837 13.9897 2.32337C14.9347 3.26837 14.9335 4.80399 13.9897 5.74787L7.13841 12.598C6.98508 12.739 6.78319 12.8154 6.57491 12.8111C6.36663 12.8068 6.16807 12.7222 6.02068 12.5749C5.8733 12.4277 5.78851 12.2292 5.78401 12.0209C5.77951 11.8127 5.85565 11.6107 5.99653 11.4572L11.7059 5.74787L11.7048 5.74899Z" fill="#B2B2B2"/>
</svg>
