<svg width="24" height="24" viewBox="0 0 24 24" fill="none" xmlns="http://www.w3.org/2000/svg">
<path d="M12.0044 20.9934L12.0044 20.9934L12 20.9958L11.9956 20.9934C11.8138 20.8971 9.33403 19.5457 6.91107 17.4238C4.44869 15.2674 2.25021 12.4931 2.25 9.56292C2.25162 8.22066 2.78556 6.93383 3.73469 5.98469C4.68383 5.03556 5.97066 4.50162 7.31292 4.5C9.0295 4.50012 10.4952 5.23459 11.4002 6.44001L12 7.2388L12.5998 6.44001C13.5048 5.23459 14.9705 4.50012 16.6871 4.5C18.0293 4.50162 19.3162 5.03556 20.2653 5.98469C21.2145 6.93392 21.7485 8.22093 21.75 9.56335C21.7496 12.4933 19.5512 15.2675 17.0889 17.4238C14.666 19.5457 12.1862 20.8971 12.0044 20.9934Z" stroke="white" stroke-width="1.5"/>
</svg>
