<svg width="54" height="55" viewBox="0 0 54 55" fill="none" xmlns="http://www.w3.org/2000/svg">
<path d="M4.04505 35.4551C-0.34835 31.0617 -0.348349 23.9386 4.04505 19.5452L18.8943 4.69593C23.2877 0.302529 30.4108 0.30253 34.8042 4.69593L49.6534 19.5452C54.0468 23.9386 54.0468 31.0617 49.6534 35.4551L34.8042 50.3043C30.4108 54.6977 23.2877 54.6977 18.8943 50.3043L4.04505 35.4551Z" fill="#413B48" stroke="#FFF37B" stroke-width="1.5"/>
<path d="M18.3496 33.25V37H22.0996L33.1596 25.94L29.4096 22.19L18.3496 33.25ZM36.0596 23.04C36.1523 22.9475 36.2259 22.8376 36.276 22.7166C36.3262 22.5957 36.3521 22.466 36.3521 22.335C36.3521 22.204 36.3262 22.0744 36.276 21.9534C36.2259 21.8324 36.1523 21.7225 36.0596 21.63L33.7196 19.29C33.6271 19.1973 33.5172 19.1238 33.3962 19.0736C33.2753 19.0234 33.1456 18.9976 33.0146 18.9976C32.8836 18.9976 32.754 19.0234 32.633 19.0736C32.512 19.1238 32.4021 19.1973 32.3096 19.29L30.4796 21.12L34.2296 24.87L36.0596 23.04Z" fill="#FFF05A"/>
</svg>
