<svg width="1002" height="291" viewBox="0 0 1002 291" fill="none" xmlns="http://www.w3.org/2000/svg">
<g clip-path="url(#clip0_166_1046)">
<path d="M925.002 135.965C925.002 154.275 913.675 172.148 892.191 188.788C870.741 205.402 839.541 220.475 800.755 233.182C723.211 258.585 615.922 274.341 497.296 274.341C378.67 274.341 271.381 258.585 193.837 233.182C155.051 220.475 123.851 205.402 102.401 188.788C80.9164 172.148 69.5899 154.275 69.5899 135.965C69.5899 117.655 80.9164 99.7832 102.401 83.1429C123.851 66.5292 155.051 51.4553 193.837 38.749C271.381 13.3455 378.67 -2.41008 497.296 -2.41008C615.922 -2.41008 723.211 13.3455 800.755 38.749C839.541 51.4553 870.741 66.5292 892.191 83.1429C913.675 99.7832 925.002 117.655 925.002 135.965Z" stroke="#725AC1" stroke-width="5.17983"/>
</g>
<g clip-path="url(#clip1_166_1046)">
<path d="M925.002 135.965C925.002 154.275 913.675 172.148 892.191 188.788C870.741 205.402 839.541 220.475 800.755 233.182C723.211 258.585 615.922 274.341 497.296 274.341C378.67 274.341 271.381 258.585 193.837 233.182C155.051 220.475 123.851 205.402 102.401 188.788C80.9164 172.148 69.5899 154.275 69.5899 135.965C69.5899 117.655 80.9164 99.7832 102.401 83.1429C123.851 66.5292 155.051 51.4553 193.837 38.749C271.381 13.3455 378.67 -2.41008 497.296 -2.41008C615.922 -2.41008 723.211 13.3455 800.755 38.749C839.541 51.4553 870.741 66.5292 892.191 83.1429C913.675 99.7832 925.002 117.655 925.002 135.965Z" stroke="#725AC1" stroke-width="5.17983"/>
</g>
<g clip-path="url(#clip2_166_1046)">
<path d="M925.002 135.965C925.002 154.275 913.675 172.148 892.191 188.788C870.741 205.402 839.541 220.475 800.755 233.182C723.211 258.585 615.922 274.341 497.296 274.341C378.67 274.341 271.381 258.585 193.837 233.182C155.051 220.475 123.851 205.402 102.401 188.788C80.9164 172.148 69.5899 154.275 69.5899 135.965C69.5899 117.655 80.9164 99.7832 102.401 83.1429C123.851 66.5292 155.051 51.4553 193.837 38.749C271.381 13.3455 378.67 -2.41008 497.296 -2.41008C615.922 -2.41008 723.211 13.3455 800.755 38.749C839.541 51.4553 870.741 66.5292 892.191 83.1429C913.675 99.7832 925.002 117.655 925.002 135.965Z" stroke="#725AC1" stroke-width="5.17983"/>
</g>
<path d="M622.055 206.305C622.055 207.743 621.355 209.244 619.818 210.8C618.278 212.36 615.959 213.908 612.89 215.411C606.757 218.416 597.822 221.148 586.706 223.451C564.488 228.055 533.753 230.909 499.774 230.909C465.795 230.909 435.059 228.055 412.841 223.451C401.725 221.148 392.79 218.416 386.657 215.411C383.588 213.908 381.269 212.36 379.729 210.8C378.192 209.244 377.493 207.743 377.493 206.305C377.493 204.867 378.192 203.366 379.729 201.81C381.269 200.251 383.588 198.702 386.657 197.199C392.79 194.194 401.725 191.462 412.841 189.159C435.059 184.555 465.795 181.701 499.774 181.701C533.753 181.701 564.488 184.555 586.706 189.159C597.822 191.462 606.757 194.194 612.89 197.199C615.959 198.702 618.278 200.251 619.818 201.81C621.355 203.366 622.055 204.867 622.055 206.305Z" stroke="#725AC1" stroke-width="1.84994"/>
<path d="M682.547 192.616C682.547 198.76 677.871 204.895 668.701 210.687C659.587 216.445 646.325 221.672 629.838 226.077C596.88 234.884 551.287 240.344 500.883 240.344C450.48 240.344 404.887 234.884 371.929 226.077C355.442 221.672 342.18 216.445 333.065 210.687C323.896 204.895 319.219 198.76 319.219 192.616C319.219 186.471 323.896 180.337 333.065 174.544C342.18 168.786 355.442 163.56 371.929 159.154C404.887 150.348 450.48 144.887 500.883 144.887C551.287 144.887 596.88 150.348 629.838 159.154C646.325 163.56 659.587 168.786 668.701 174.544C677.871 180.337 682.547 186.471 682.547 192.616Z" stroke="#725AC1" stroke-width="2.21993"/>
<path d="M743.595 178.556C743.595 187.732 737.231 196.786 724.956 205.278C712.726 213.739 694.933 221.417 672.812 227.89C628.59 240.83 567.411 248.854 499.773 248.854C432.134 248.854 370.956 240.83 326.734 227.89C304.613 221.417 286.82 213.739 274.59 205.278C262.315 196.786 255.951 187.732 255.951 178.556C255.951 169.38 262.315 160.326 274.59 151.834C286.82 143.373 304.613 135.695 326.734 129.222C370.956 116.282 432.134 108.258 499.773 108.258C567.411 108.258 628.59 116.282 672.812 129.222C694.933 135.695 712.726 143.373 724.956 151.834C737.231 160.326 743.595 169.38 743.595 178.556Z" stroke="#725AC1" stroke-width="2.9599"/>
<path d="M806.124 163.757C806.124 176.072 798.11 188.146 782.802 199.423C767.531 210.674 745.315 220.883 717.696 229.489C662.48 246.694 586.087 257.364 501.624 257.364C417.161 257.364 340.768 246.694 285.552 229.489C257.933 220.883 235.717 210.674 220.446 199.423C205.137 188.146 197.124 176.072 197.124 163.757C197.124 151.442 205.137 139.367 220.446 128.09C235.717 116.84 257.933 106.631 285.552 98.0247C340.768 80.8197 417.161 70.1497 501.624 70.1497C586.087 70.1497 662.48 80.8197 717.696 98.0247C745.315 106.631 767.531 116.84 782.802 128.09C798.11 139.367 806.124 151.442 806.124 163.757Z" stroke="#725AC1" stroke-width="3.69988"/>
<g clip-path="url(#clip3_166_1046)">
<path d="M867.171 150.067C867.171 165.456 857.444 180.502 838.945 194.527C820.482 208.525 793.624 221.227 760.238 231.933C693.489 253.338 601.139 266.613 499.033 266.613C396.927 266.613 304.576 253.338 237.828 231.933C204.442 221.227 177.584 208.525 159.121 194.527C140.622 180.502 130.895 165.456 130.895 150.067C130.895 134.678 140.622 119.632 159.121 105.607C177.584 91.6083 204.442 78.9069 237.828 68.2005C304.576 46.7957 396.927 33.5207 499.033 33.5207C601.139 33.5207 693.489 46.7957 760.238 68.2005C793.624 78.9069 820.482 91.6083 838.945 105.607C857.444 119.632 867.171 134.678 867.171 150.067Z" stroke="#725AC1" stroke-width="4.43986"/>
</g>
<g clip-path="url(#clip4_166_1046)">
<path d="M867.171 150.067C867.171 165.456 857.444 180.502 838.945 194.527C820.482 208.525 793.624 221.227 760.238 231.933C693.489 253.338 601.139 266.613 499.033 266.613C396.927 266.613 304.576 253.338 237.828 231.933C204.442 221.227 177.584 208.525 159.121 194.527C140.622 180.502 130.895 165.456 130.895 150.067C130.895 134.678 140.622 119.632 159.121 105.607C177.584 91.6083 204.442 78.9069 237.828 68.2005C304.576 46.7957 396.927 33.5207 499.033 33.5207C601.139 33.5207 693.489 46.7957 760.238 68.2005C793.624 78.9069 820.482 91.6083 838.945 105.607C857.444 119.632 867.171 134.678 867.171 150.067Z" stroke="url(#paint0_linear_166_1046)" stroke-width="4.43986"/>
</g>
<g clip-path="url(#clip5_166_1046)">
<path d="M867.171 150.067C867.171 165.456 857.444 180.502 838.945 194.527C820.482 208.525 793.624 221.227 760.238 231.933C693.489 253.338 601.139 266.613 499.033 266.613C396.927 266.613 304.576 253.338 237.828 231.933C204.442 221.227 177.584 208.525 159.121 194.527C140.622 180.502 130.895 165.456 130.895 150.067C130.895 134.678 140.622 119.632 159.121 105.607C177.584 91.6083 204.442 78.9069 237.828 68.2005C304.576 46.7957 396.927 33.5207 499.033 33.5207C601.139 33.5207 693.489 46.7957 760.238 68.2005C793.624 78.9069 820.482 91.6083 838.945 105.607C857.444 119.632 867.171 134.678 867.171 150.067Z" stroke="#725AC1" stroke-width="4.43986"/>
</g>
<path d="M998.887 113.068C998.887 136.318 985.586 158.875 960.608 179.782C935.647 200.675 899.35 219.623 854.239 235.594C764.043 267.526 639.244 287.332 501.254 287.332C363.264 287.332 238.465 267.526 148.268 235.594C103.157 219.623 66.8606 200.675 41.8991 179.782C16.9217 158.875 3.62006 136.318 3.62006 113.068C3.62006 89.8183 16.9217 67.2605 41.8991 46.354C66.8606 25.4609 103.157 6.51243 148.268 -9.45827C238.465 -41.3903 363.264 -61.1963 501.254 -61.1963C639.244 -61.1963 764.043 -41.3903 854.239 -9.45827C899.35 6.51243 935.647 25.4609 960.608 46.354C985.586 67.2605 998.887 89.8183 998.887 113.068Z" stroke="#725AC1" stroke-width="5.91981"/>
<defs>
<linearGradient id="paint0_linear_166_1046" x1="128.675" y1="150.067" x2="869.391" y2="150.067" gradientUnits="userSpaceOnUse">
<stop stop-color="#725AC1"/>
<stop offset="1" stop-color="#362A5B"/>
</linearGradient>
<clipPath id="clip0_166_1046">
<rect width="201" height="282" fill="white" transform="translate(67 -5)"/>
</clipPath>
<clipPath id="clip1_166_1046">
<rect width="707" height="106" fill="white" transform="translate(67 171)"/>
</clipPath>
<clipPath id="clip2_166_1046">
<rect width="194" height="282" fill="white" transform="translate(734 -5)"/>
</clipPath>
<clipPath id="clip3_166_1046">
<rect width="740" height="201" fill="white" transform="translate(129 67.9995)"/>
</clipPath>
<clipPath id="clip4_166_1046">
<rect width="70" height="32" fill="white" transform="translate(220 44.9995)"/>
</clipPath>
<clipPath id="clip5_166_1046">
<rect width="81" height="32" fill="white" transform="translate(711 44.9995)"/>
</clipPath>
</defs>
</svg>
