<svg width="1065" height="224" viewBox="0 0 1065 224" fill="none" xmlns="http://www.w3.org/2000/svg">
<path d="M658.352 78.8072C658.352 80.3706 657.662 81.9882 656.163 83.6582C654.658 85.3348 652.386 87.0052 649.369 88.6313C643.337 91.8827 634.534 94.8454 623.562 97.3466C601.637 102.345 571.292 105.446 537.736 105.446C504.18 105.446 473.835 102.345 451.909 97.3466C440.937 94.8454 432.135 91.8827 426.102 88.6313C423.085 87.0052 420.814 85.3348 419.309 83.6582C417.81 81.9882 417.12 80.3706 417.12 78.8072C417.12 77.2438 417.81 75.6262 419.309 73.9562C420.814 72.2796 423.085 70.6092 426.102 68.9831C432.135 65.7317 440.937 62.769 451.909 60.2678C473.835 55.2696 504.18 52.1681 537.736 52.1681C571.292 52.1681 601.637 55.2696 623.562 60.2678C634.534 62.769 643.337 65.7317 649.369 68.9831C652.386 70.6092 654.658 72.2796 656.163 73.9562C657.662 75.6262 658.352 77.2438 658.352 78.8072Z" stroke="#FFF05A" stroke-width="2.21993"/>
<path d="M720.879 91.3868C720.879 97.4952 716.293 103.679 707.081 109.583C697.938 115.443 684.608 120.776 668.005 125.277C634.821 134.273 588.894 139.855 538.105 139.855C487.317 139.855 441.39 134.273 408.206 125.277C391.603 120.776 378.273 115.443 369.13 109.583C359.918 103.679 355.332 97.4952 355.332 91.3868C355.332 85.2784 359.918 79.0948 369.13 73.1907C378.273 67.3304 391.603 61.9972 408.206 57.4964C441.39 48.5006 487.317 42.9184 538.105 42.9184C588.894 42.9184 634.821 48.5006 668.005 57.4964C684.608 61.9972 697.938 67.3304 707.081 73.1907C716.293 79.0948 720.879 85.2784 720.879 91.3868Z" stroke="#FFF05A" stroke-width="2.9599"/>
<g clip-path="url(#clip0_166_1064)">
<path d="M783.037 106.926C783.037 116.262 776.624 125.462 764.277 134.084C751.972 142.676 734.071 150.473 711.817 157.046C667.329 170.186 605.782 178.334 537.736 178.334C469.689 178.334 408.142 170.186 363.654 157.046C341.4 150.473 323.499 142.676 311.194 134.084C298.847 125.462 292.434 116.262 292.434 106.926C292.434 97.5907 298.847 88.3901 311.194 79.7684C323.499 71.1764 341.4 63.3789 363.654 56.8062C408.142 43.6665 469.689 35.5185 537.736 35.5185C605.782 35.5185 667.329 43.6665 711.817 56.8062C734.071 63.3789 751.972 71.1764 764.277 79.7684C776.624 88.3901 783.037 97.5907 783.037 106.926Z" stroke="#FFF05A" stroke-width="2.9599"/>
</g>
<g clip-path="url(#clip1_166_1064)">
<path d="M783.037 106.926C783.037 116.262 776.624 125.462 764.277 134.084C751.972 142.676 734.071 150.473 711.817 157.046C667.329 170.186 605.782 178.334 537.736 178.334C469.689 178.334 408.142 170.186 363.654 157.046C341.4 150.473 323.499 142.676 311.194 134.084C298.847 125.462 292.434 116.262 292.434 106.926C292.434 97.5907 298.847 88.3901 311.194 79.7684C323.499 71.1764 341.4 63.3789 363.654 56.8062C408.142 43.6665 469.689 35.5185 537.736 35.5185C605.782 35.5185 667.329 43.6665 711.817 56.8062C734.071 63.3789 751.972 71.1764 764.277 79.7684C776.624 88.3901 783.037 97.5907 783.037 106.926Z" stroke="#FFF05A" stroke-width="2.9599"/>
</g>
<g clip-path="url(#clip2_166_1064)">
<path d="M783.037 106.926C783.037 116.262 776.624 125.462 764.277 134.084C751.972 142.676 734.071 150.473 711.817 157.046C667.329 170.186 605.782 178.334 537.736 178.334C469.689 178.334 408.142 170.186 363.654 157.046C341.4 150.473 323.499 142.676 311.194 134.084C298.847 125.462 292.434 116.262 292.434 106.926C292.434 97.5907 298.847 88.3901 311.194 79.7684C323.499 71.1764 341.4 63.3789 363.654 56.8062C408.142 43.6665 469.689 35.5185 537.736 35.5185C605.782 35.5185 667.329 43.6665 711.817 56.8062C734.071 63.3789 751.972 71.1764 764.277 79.7684C776.624 88.3901 783.037 97.5907 783.037 106.926Z" stroke="#FFF05A" stroke-width="2.9599"/>
</g>
<g clip-path="url(#clip3_166_1064)">
<path d="M841.124 122.096C841.124 134.512 833.31 146.785 818.129 158.344C802.988 169.871 780.916 180.364 753.409 189.222C698.425 206.929 622.303 217.923 538.104 217.923C453.906 217.923 377.784 206.929 322.799 189.222C295.293 180.364 273.22 169.871 258.08 158.344C242.899 146.785 235.084 134.512 235.084 122.096C235.084 109.68 242.899 97.4065 258.08 85.8483C273.22 74.3207 295.293 63.8282 322.799 54.97C377.784 37.2632 453.906 26.2691 538.104 26.2691C622.303 26.2691 698.425 37.2632 753.409 54.97C780.916 63.8282 802.988 74.3207 818.129 85.8483C833.31 97.4065 841.124 109.68 841.124 122.096Z" stroke="#FFF05A" stroke-width="5.17983"/>
</g>
<g clip-path="url(#clip4_166_1064)">
<path d="M841.124 122.096C841.124 134.512 833.31 146.785 818.129 158.344C802.988 169.871 780.916 180.364 753.409 189.222C698.425 206.929 622.303 217.923 538.104 217.923C453.906 217.923 377.784 206.929 322.799 189.222C295.293 180.364 273.22 169.871 258.08 158.344C242.899 146.785 235.084 134.512 235.084 122.096C235.084 109.68 242.899 97.4065 258.08 85.8483C273.22 74.3207 295.293 63.8282 322.799 54.97C377.784 37.2632 453.906 26.2691 538.104 26.2691C622.303 26.2691 698.425 37.2632 753.409 54.97C780.916 63.8282 802.988 74.3207 818.129 85.8483C833.31 97.4065 841.124 109.68 841.124 122.096Z" stroke="#FFF05A" stroke-width="5.17983"/>
</g>
<g clip-path="url(#clip5_166_1064)">
<path d="M841.124 122.096C841.124 134.512 833.31 146.785 818.129 158.344C802.988 169.871 780.916 180.364 753.409 189.222C698.425 206.929 622.303 217.923 538.104 217.923C453.906 217.923 377.784 206.929 322.799 189.222C295.293 180.364 273.22 169.871 258.08 158.344C242.899 146.785 235.084 134.512 235.084 122.096C235.084 109.68 242.899 97.4065 258.08 85.8483C273.22 74.3207 295.293 63.8282 322.799 54.97C377.784 37.2632 453.906 26.2691 538.104 26.2691C622.303 26.2691 698.425 37.2632 753.409 54.97C780.916 63.8282 802.988 74.3207 818.129 85.8483C833.31 97.4065 841.124 109.68 841.124 122.096Z" stroke="#FFF05A" stroke-width="5.17983"/>
</g>
<path d="M906.983 132.455C906.983 147.507 897.339 162.31 878.801 176.179C860.308 190.013 833.385 202.581 799.883 213.182C732.909 234.373 640.225 247.522 537.735 247.522C435.245 247.522 342.561 234.373 275.588 213.182C242.086 202.581 215.162 190.013 196.67 176.179C178.131 162.31 168.487 147.507 168.487 132.455C168.487 117.404 178.131 102.601 196.67 88.7322C215.162 74.8982 242.086 62.3299 275.588 51.7293C342.561 30.5375 435.245 17.3892 537.735 17.3892C640.225 17.3892 732.909 30.5375 799.883 51.7293C833.385 62.3299 860.308 74.8982 878.801 88.7322C897.339 102.601 906.983 117.404 906.983 132.455Z" stroke="#FFF05A" stroke-width="5.17983"/>
<path d="M969.142 149.105C969.142 166.433 957.818 183.424 936.182 199.294C914.6 215.125 883.204 229.491 844.176 241.6C766.149 265.808 658.199 280.821 538.847 280.821C419.494 280.821 311.544 265.808 233.517 241.6C194.489 229.491 163.093 215.125 141.511 199.294C119.875 183.424 108.551 166.433 108.551 149.105C108.551 131.777 119.875 114.786 141.511 98.9154C163.093 83.0844 194.489 68.719 233.517 56.6101C311.544 32.402 419.494 17.3892 538.847 17.3892C658.199 17.3892 766.149 32.402 844.176 56.6101C883.204 68.719 914.6 83.0844 936.182 98.9154C957.818 114.786 969.142 131.777 969.142 149.105Z" stroke="#FFF05A" stroke-width="5.17983"/>
<path d="M1062.38 213.113C1062.38 241.597 1047.97 268.994 1021.35 294.185C994.723 319.382 956.058 342.192 908.065 361.402C812.093 399.818 679.331 423.636 532.555 423.636C385.779 423.636 253.017 399.818 157.045 361.402C109.052 342.192 70.3868 319.382 43.7624 294.185C17.1435 268.994 2.73249 241.597 2.73249 213.113C2.73249 184.629 17.1435 157.232 43.7624 132.041C70.3868 106.845 109.052 84.0344 157.045 64.8238C253.017 26.4083 385.779 2.58992 532.555 2.58992C679.331 2.58992 812.093 26.4083 908.065 64.8238C956.058 84.0344 994.723 106.845 1021.35 132.041C1047.97 157.232 1062.38 184.629 1062.38 213.113Z" stroke="#FFF05A" stroke-width="5.17983"/>
<defs>
<clipPath id="clip0_166_1064">
<rect width="211" height="146" fill="white" transform="translate(574 34)"/>
</clipPath>
<clipPath id="clip1_166_1064">
<rect width="208" height="146" fill="white" transform="translate(291 34)"/>
</clipPath>
<clipPath id="clip2_166_1064">
<rect width="139" height="60" fill="white" transform="translate(472 34)"/>
</clipPath>
<clipPath id="clip3_166_1064">
<rect width="247" height="197" fill="white" transform="translate(232 24)"/>
</clipPath>
<clipPath id="clip4_166_1064">
<rect width="280" height="197" fill="white" transform="translate(594 24)"/>
</clipPath>
<clipPath id="clip5_166_1064">
<rect width="232" height="98" fill="white" transform="translate(401 24)"/>
</clipPath>
</defs>
</svg>
