<svg width="24" height="24" viewBox="0 0 24 24" fill="none" xmlns="http://www.w3.org/2000/svg">
<path fill-rule="evenodd" clip-rule="evenodd" d="M12.564 3.86182C12.2582 3.86546 11.9576 3.94168 11.6871 4.08419L1.57219 9.42194C1.30103 9.56518 1.06201 9.76234 0.869813 10.0013C0.549602 10.4001 0.375046 10.8962 0.375 11.4076V12.0166C0.37498 12.2857 0.412594 12.5536 0.48675 12.8123C0.596266 13.1939 0.783285 13.5488 1.03613 13.8548C1.29238 14.1649 1.61062 14.4181 1.97044 14.5981L8.25563 17.7406C8.19845 18.1213 8.24703 18.5104 8.39606 18.8654C8.47441 19.0512 8.57959 19.2246 8.70825 19.3799C8.92249 19.6391 9.19584 19.8431 9.50531 19.9746C9.76197 20.0835 10.038 20.1392 10.3168 20.1383C10.4579 20.1383 10.5986 20.1241 10.7368 20.0961C11.0035 20.0418 11.2568 19.9352 11.4821 19.7824C11.8171 19.5561 12.0794 19.2376 12.2374 18.8654C12.3181 18.6747 12.3697 18.4731 12.3904 18.2671C12.4097 18.0763 12.403 17.8838 12.3705 17.6948L20.0918 13.6197C20.2331 13.7563 20.3929 13.8723 20.5665 13.9645C20.9307 14.157 21.3438 14.2372 21.7536 14.1948C21.9594 14.1738 22.161 14.1222 22.3517 14.0418C22.5376 13.9634 22.711 13.8582 22.8664 13.7296C23.1256 13.5153 23.3296 13.242 23.4611 12.9325C23.5419 12.7419 23.5936 12.5402 23.6143 12.3342C23.6428 12.0537 23.6146 11.7704 23.5313 11.5011C23.4508 11.2432 23.321 11.0035 23.1489 10.7952C22.9347 10.536 22.6614 10.332 22.3519 10.2004C22.0953 10.0916 21.8193 10.0358 21.5406 10.0366C21.3994 10.0367 21.2587 10.0509 21.1204 10.0789C20.7874 10.147 20.4764 10.296 20.2146 10.5126C19.9554 10.7269 19.7514 11.0002 19.6198 11.3097C19.5109 11.5663 19.4552 11.8423 19.4559 12.121C19.4557 12.244 19.4665 12.3668 19.4882 12.4879L11.7711 16.5608C11.6295 16.423 11.4691 16.3058 11.2948 16.2128C10.9937 16.0525 10.6577 15.9689 10.3166 15.9694C10.1739 15.9695 10.0316 15.984 9.89175 16.0128C9.62205 16.0683 9.36621 16.1773 9.13931 16.3334C9.02773 16.4097 8.92392 16.4968 8.82938 16.5934L2.634 13.4958C2.41533 13.3863 2.22175 13.2327 2.06548 13.0446C1.90922 12.8565 1.79366 12.638 1.72613 12.403C1.68067 12.2447 1.65763 12.0808 1.65769 11.9161C1.65772 11.8156 1.67039 11.7155 1.69538 11.6181C1.743 11.4351 1.83525 11.2668 1.96388 11.1282C2.05759 11.0269 2.16833 10.9428 2.29106 10.8798C2.41442 10.8165 2.54796 10.7754 2.68556 10.7584C2.87785 10.7352 3.07288 10.7612 3.25238 10.834L9.43219 13.9238C9.70581 14.0605 10.0081 14.1301 10.3139 14.1267C10.6197 14.1233 10.9204 14.0472 11.1909 13.9045L21.0334 8.70982C21.0768 8.68669 21.1146 8.65938 21.1468 8.62788C21.2094 8.56695 21.2538 8.48974 21.2749 8.40494C21.3064 8.27983 21.2874 8.14735 21.222 8.03613C21.1994 7.99829 21.1716 7.96382 21.1393 7.93375C21.1049 7.90178 21.0661 7.87494 21.024 7.85407L13.4458 4.06507C13.1721 3.92859 12.87 3.85906 12.5642 3.86219L12.564 3.86182ZM21.5406 11.3194C21.6477 11.3195 21.7538 11.3409 21.8526 11.3824C21.9959 11.443 22.1186 11.544 22.2054 11.6731C22.2653 11.7615 22.3068 11.861 22.3275 11.9657C22.3482 12.0705 22.3477 12.1783 22.326 12.2828C22.3053 12.3854 22.2643 12.4829 22.2054 12.5695C22.1183 12.6983 21.9957 12.7992 21.8526 12.8599C21.7539 12.902 21.6478 12.9234 21.5406 12.9229C21.4334 12.9229 21.3273 12.9015 21.2286 12.8599C21.0852 12.7994 20.9626 12.6984 20.8757 12.5693C20.7863 12.437 20.7385 12.2809 20.7385 12.1212C20.7385 11.9615 20.7863 11.8054 20.8757 11.6731C20.9932 11.4994 21.1737 11.3784 21.3789 11.3356C21.4313 11.3249 21.4852 11.3196 21.5406 11.3194ZM10.317 17.2525C10.4242 17.2526 10.5302 17.274 10.629 17.3155C10.7724 17.376 10.895 17.477 10.9819 17.6061C11.0567 17.7166 11.1026 17.844 11.1155 17.9768C11.1284 18.1096 11.1079 18.2435 11.0558 18.3663C10.9952 18.5096 10.8942 18.6321 10.7651 18.7189C10.611 18.8233 10.4253 18.8706 10.24 18.8527C10.0548 18.8348 9.88155 18.7529 9.75019 18.6211C9.67706 18.5479 9.61869 18.4614 9.57825 18.3663C9.53623 18.2676 9.5148 18.1615 9.51525 18.0543C9.51528 17.947 9.5367 17.8409 9.57825 17.7421C9.61869 17.6469 9.67706 17.5604 9.75019 17.4873C9.82333 17.4142 9.90984 17.3559 10.005 17.3155C10.1036 17.2735 10.2098 17.252 10.317 17.2525Z" fill="#B5B3B8"/>
</svg>
