<svg width="28" height="27" viewBox="0 0 28 27" fill="none" xmlns="http://www.w3.org/2000/svg">
<path d="M21.8815 6.28034C20.4156 5.59702 18.8286 5.10106 17.1754 4.8145C17.1609 4.81404 17.1465 4.81676 17.1331 4.82247C17.1198 4.82819 17.1079 4.83675 17.0982 4.84757C16.8998 5.21127 16.6684 5.68519 16.5141 6.04889C14.7606 5.78438 12.9773 5.78438 11.2238 6.04889C11.0695 5.67417 10.8381 5.21127 10.6287 4.84757C10.6177 4.82553 10.5846 4.8145 10.5515 4.8145C8.89834 5.10106 7.32229 5.59702 5.84543 6.28034C5.83441 6.28034 5.82339 6.29136 5.81237 6.30239C2.81456 10.7881 1.98796 15.1525 2.39575 19.4729C2.39575 19.4949 2.40677 19.517 2.42882 19.528C4.41266 20.9828 6.31935 21.8645 8.204 22.4487C8.23706 22.4597 8.27013 22.4487 8.28115 22.4266C8.722 21.8204 9.11877 21.1812 9.46043 20.5089C9.48248 20.4648 9.46043 20.4207 9.41635 20.4097C8.78813 20.1672 8.19298 19.8807 7.60885 19.55C7.56476 19.528 7.56476 19.4619 7.59783 19.4288C7.71906 19.3406 7.8403 19.2414 7.96153 19.1533C7.98357 19.1312 8.01664 19.1312 8.03868 19.1423C11.83 20.8726 15.9189 20.8726 19.6662 19.1423C19.6882 19.1312 19.7213 19.1312 19.7433 19.1533C19.8646 19.2525 19.9858 19.3406 20.107 19.4398C20.1511 19.4729 20.1511 19.539 20.096 19.5611C19.5229 19.9027 18.9167 20.1783 18.2885 20.4207C18.2444 20.4317 18.2334 20.4869 18.2444 20.5199C18.5971 21.1922 18.9939 21.8315 19.4237 22.4376C19.4568 22.4487 19.4899 22.4597 19.5229 22.4487C21.4186 21.8645 23.3253 20.9828 25.3091 19.528C25.3312 19.517 25.3422 19.4949 25.3422 19.4729C25.8271 14.4802 24.5376 10.1488 21.9256 6.30239C21.9145 6.29136 21.9035 6.28034 21.8815 6.28034ZM10.0335 16.8388C8.89834 16.8388 7.95051 15.7918 7.95051 14.5023C7.95051 13.2128 8.8763 12.1657 10.0335 12.1657C11.2018 12.1657 12.1276 13.2238 12.1166 14.5023C12.1166 15.7918 11.1908 16.8388 10.0335 16.8388ZM17.7154 16.8388C16.5802 16.8388 15.6324 15.7918 15.6324 14.5023C15.6324 13.2128 16.5582 12.1657 17.7154 12.1657C18.8837 12.1657 19.8095 13.2238 19.7985 14.5023C19.7985 15.7918 18.8837 16.8388 17.7154 16.8388Z" fill="#1FE4ED"/>
</svg>
