<svg width="27" height="27" viewBox="0 0 27 27" fill="none" xmlns="http://www.w3.org/2000/svg">
<g clip-path="url(#clip0_33_2749)">
<path fill-rule="evenodd" clip-rule="evenodd" d="M21.8147 5.28864C22.0871 5.17401 22.3852 5.13447 22.678 5.17415C22.9708 5.21382 23.2477 5.33126 23.4797 5.51423C23.7117 5.69721 23.8905 5.93903 23.9974 6.21453C24.1042 6.49003 24.1353 6.78913 24.0873 7.08071L21.5877 22.2428C21.3452 23.7053 19.7405 24.544 18.3992 23.8155C17.2772 23.206 15.6108 22.267 14.1119 21.2872C13.3625 20.7968 11.0667 19.2262 11.3489 18.1087C11.5913 17.1531 15.4488 13.5624 17.6531 11.4275C18.5182 10.5888 18.1237 10.105 17.102 10.8765C14.5649 12.792 10.4914 15.7049 9.1446 16.5249C7.95649 17.2479 7.3371 17.3713 6.59646 17.2479C5.24524 17.0231 3.99212 16.6748 2.96934 16.2505C1.58726 15.6774 1.65449 13.7773 2.96824 13.224L21.8147 5.28864Z" fill="#1FE4ED"/>
</g>
<defs>
<clipPath id="clip0_33_2749">
<rect width="26.4512" height="26.4512" fill="white" transform="translate(0.0213623 0.408203)"/>
</clipPath>
</defs>
</svg>
