<svg width="10" height="16" viewBox="0 0 10 16" fill="none" xmlns="http://www.w3.org/2000/svg">
<path d="M4.20801 1.33331C4.20801 0.988135 4.48783 0.708313 4.83301 0.708313C5.17819 0.708313 5.45801 0.988135 5.45801 1.33331L4.20801 1.33331ZM5.27495 15.1086C5.03087 15.3527 4.63514 15.3527 4.39107 15.1086L0.41359 11.1311C0.169512 10.887 0.169512 10.4913 0.41359 10.2472C0.657668 10.0031 1.0534 10.0031 1.29747 10.2472L4.83301 13.7828L8.36854 10.2472C8.61262 10.0032 9.00835 10.0032 9.25242 10.2472C9.4965 10.4913 9.4965 10.887 9.25242 11.1311L5.27495 15.1086ZM5.45801 1.33331L5.45801 14.6666L4.20801 14.6666L4.20801 1.33331L5.45801 1.33331Z" fill="white"/>
</svg>
