<svg width="20" height="21" viewBox="0 0 20 21" fill="none" xmlns="http://www.w3.org/2000/svg">
<path fill-rule="evenodd" clip-rule="evenodd" d="M7.0875 9.29688L10 6.38438L12.9125 9.29688L14.6125 7.59687L10 2.98438L5.3875 7.59687L7.0875 9.29688ZM2.5 10.4969L4.2 8.79687L5.9 10.4969L4.2 12.1969L2.5 10.4969ZM10 14.6094L7.0875 11.6969L5.3875 13.3844L10 17.9969L14.6125 13.3844L12.9125 11.6844L10 14.5969V14.6094ZM14.1125 10.4969L15.8125 8.79687L17.5125 10.4969L15.8125 12.1969L14.1125 10.4969ZM10 8.77188L11.725 10.4969L10 12.2219L8.275 10.5094L8.575 10.1969L8.725 10.0469L10 8.77188Z" fill="#FFFEEF"/>
</svg>
