<svg width="16" height="16" viewBox="0 0 16 16" fill="none" xmlns="http://www.w3.org/2000/svg">
<path d="M11.3346 5.99967H6.0013V4.66634C6.0013 4.13301 6.2013 3.66634 6.6013 3.26634C7.4013 2.46634 8.66797 2.46634 9.4013 3.26634C9.66797 3.53301 9.8013 3.86634 9.93464 4.19967C10.0013 4.53301 10.4013 4.73301 10.7346 4.66634C11.068 4.59967 11.3346 4.19967 11.2013 3.86634C11.068 3.26634 10.7346 2.73301 10.3346 2.33301C9.73464 1.66634 8.86797 1.33301 8.0013 1.33301C6.13464 1.33301 4.66797 2.79967 4.66797 4.66634V5.99967C3.53464 5.99967 2.66797 6.86634 2.66797 7.99967V12.6663C2.66797 13.7997 3.53464 14.6663 4.66797 14.6663H11.3346C12.468 14.6663 13.3346 13.7997 13.3346 12.6663V7.99967C13.3346 6.86634 12.468 5.99967 11.3346 5.99967Z" fill="#07040B"/>
</svg>
