<svg width="21" height="20" viewBox="0 0 21 20" fill="none" xmlns="http://www.w3.org/2000/svg">
<path d="M5.20703 16.667C5.20703 17.0122 5.48685 17.292 5.83203 17.292C6.17721 17.292 6.45703 17.0122 6.45703 16.667L5.20703 16.667ZM6.27397 2.89172C6.02989 2.64764 5.63417 2.64764 5.39009 2.89172L1.41261 6.86919C1.16854 7.11327 1.16854 7.509 1.41261 7.75308C1.65669 7.99716 2.05242 7.99716 2.2965 7.75308L5.83203 4.21754L9.36756 7.75308C9.61164 7.99716 10.0074 7.99716 10.2514 7.75308C10.4955 7.509 10.4955 7.11327 10.2514 6.86919L6.27397 2.89172ZM6.45703 16.667L6.45703 3.33366L5.20703 3.33366L5.20703 16.667L6.45703 16.667Z" fill="white"/>
<path d="M15.207 3.33301C15.207 2.98783 15.4869 2.70801 15.832 2.70801C16.1772 2.70801 16.457 2.98783 16.457 3.33301L15.207 3.33301ZM16.274 17.1083C16.0299 17.3524 15.6342 17.3524 15.3901 17.1083L11.4126 13.1308C11.1685 12.8867 11.1685 12.491 11.4126 12.2469C11.6567 12.0028 12.0524 12.0028 12.2965 12.2469L15.832 15.7825L19.3676 12.2469C19.6116 12.0028 20.0074 12.0028 20.2514 12.2469C20.4955 12.491 20.4955 12.8867 20.2514 13.1308L16.274 17.1083ZM16.457 3.33301L16.457 16.6663L15.207 16.6663L15.207 3.33301L16.457 3.33301Z" fill="white"/>
</svg>
