<svg width="25" height="24" viewBox="0 0 25 24" fill="none" xmlns="http://www.w3.org/2000/svg">
<path d="M3.34766 17.2505V21.0005H7.09766L18.1577 9.94049L14.4077 6.19049L3.34766 17.2505ZM21.0577 7.04049C21.1504 6.94798 21.2239 6.83809 21.2741 6.71712C21.3243 6.59614 21.3501 6.46646 21.3501 6.33549C21.3501 6.20452 21.3243 6.07484 21.2741 5.95387C21.2239 5.83289 21.1504 5.723 21.0577 5.63049L18.7177 3.29049C18.6251 3.19779 18.5153 3.12424 18.3943 3.07406C18.2733 3.02388 18.1436 2.99805 18.0127 2.99805C17.8817 2.99805 17.752 3.02388 17.631 3.07406C17.5101 3.12424 17.4002 3.19779 17.3077 3.29049L15.4777 5.12049L19.2277 8.87049L21.0577 7.04049Z" fill="#FFF05A"/>
</svg>
