<svg width="276" height="276" viewBox="0 0 276 276" fill="none" xmlns="http://www.w3.org/2000/svg">
<g filter="url(#filter0_d_323_2854)">
<rect x="78" y="78" width="120" height="120" rx="21.3333" fill="#07040B"/>
<rect x="78.625" y="78.625" width="118.75" height="118.75" rx="20.7083" stroke="url(#paint0_radial_323_2854)" stroke-width="1.25"/>
<rect x="78.625" y="78.625" width="118.75" height="118.75" rx="20.7083" stroke="url(#paint1_linear_323_2854)" stroke-width="1.25" style="mix-blend-mode:plus-lighter"/>
<rect x="78.625" y="78.625" width="118.75" height="118.75" rx="20.7083" stroke="url(#paint2_linear_323_2854)" stroke-width="1.25" style="mix-blend-mode:plus-lighter"/>
</g>
<g clip-path="url(#clip0_323_2854)">
<g filter="url(#filter1_d_323_2854)">
<path d="M184.5 91.5H91.5V184.5H184.5V91.5Z" fill="#FEEEFF"/>
</g>
<path d="M99.7784 97.3125H97.3125V99.7784H99.7784V97.3125Z" fill="#07040B"/>
<path d="M102.244 97.3125H99.7784V99.7784H102.244V97.3125Z" fill="#07040B"/>
<path d="M104.71 97.3125H102.244V99.7784H104.71V97.3125Z" fill="#07040B"/>
<path d="M107.176 97.3125H104.71V99.7784H107.176V97.3125Z" fill="#07040B"/>
<path d="M109.642 97.3125H107.176V99.7784H109.642V97.3125Z" fill="#07040B"/>
<path d="M112.108 97.3125H109.642V99.7784H112.108V97.3125Z" fill="#07040B"/>
<path d="M114.574 97.3125H112.108V99.7784H114.574V97.3125Z" fill="#07040B"/>
<path d="M119.506 97.3125H117.04V99.7784H119.506V97.3125Z" fill="#07040B"/>
<path d="M124.438 97.3125H121.972V99.7784H124.438V97.3125Z" fill="#07040B"/>
<path d="M126.903 97.3125H124.438V99.7784H126.903V97.3125Z" fill="#07040B"/>
<path d="M134.301 97.3125H131.835V99.7784H134.301V97.3125Z" fill="#07040B"/>
<path d="M136.767 97.3125H134.301V99.7784H136.767V97.3125Z" fill="#07040B"/>
<path d="M141.699 97.3125H139.233V99.7784H141.699V97.3125Z" fill="#07040B"/>
<path d="M144.165 97.3125H141.699V99.7784H144.165V97.3125Z" fill="#07040B"/>
<path d="M149.097 97.3125H146.631V99.7784H149.097V97.3125Z" fill="#07040B"/>
<path d="M154.028 97.3125H151.562V99.7784H154.028V97.3125Z" fill="#07040B"/>
<path d="M158.96 97.3125H156.494V99.7784H158.96V97.3125Z" fill="#07040B"/>
<path d="M163.892 97.3125H161.426V99.7784H163.892V97.3125Z" fill="#07040B"/>
<path d="M166.358 97.3125H163.892V99.7784H166.358V97.3125Z" fill="#07040B"/>
<path d="M168.824 97.3125H166.358V99.7784H168.824V97.3125Z" fill="#07040B"/>
<path d="M171.29 97.3125H168.824V99.7784H171.29V97.3125Z" fill="#07040B"/>
<path d="M173.756 97.3125H171.29V99.7784H173.756V97.3125Z" fill="#07040B"/>
<path d="M176.222 97.3125H173.756V99.7784H176.222V97.3125Z" fill="#07040B"/>
<path d="M178.688 97.3125H176.222V99.7784H178.688V97.3125Z" fill="#07040B"/>
<path d="M99.7784 99.7784H97.3125V102.244H99.7784V99.7784Z" fill="#07040B"/>
<path d="M114.574 99.7784H112.108V102.244H114.574V99.7784Z" fill="#07040B"/>
<path d="M121.972 99.7784H119.506V102.244H121.972V99.7784Z" fill="#07040B"/>
<path d="M124.438 99.7784H121.972V102.244H124.438V99.7784Z" fill="#07040B"/>
<path d="M134.301 99.7784H131.835V102.244H134.301V99.7784Z" fill="#07040B"/>
<path d="M139.233 99.7784H136.767V102.244H139.233V99.7784Z" fill="#07040B"/>
<path d="M141.699 99.7784H139.233V102.244H141.699V99.7784Z" fill="#07040B"/>
<path d="M146.631 99.7784H144.165L144.165 102.244H146.631V99.7784Z" fill="#07040B"/>
<path d="M149.097 99.7784H146.631V102.244H149.097V99.7784Z" fill="#07040B"/>
<path d="M154.028 99.7784H151.562V102.244H154.028V99.7784Z" fill="#07040B"/>
<path d="M158.96 99.7784H156.494V102.244H158.96V99.7784Z" fill="#07040B"/>
<path d="M163.892 99.7784H161.426V102.244H163.892V99.7784Z" fill="#07040B"/>
<path d="M178.688 99.7784H176.222V102.244H178.688V99.7784Z" fill="#07040B"/>
<path d="M99.7784 102.244H97.3125V104.71H99.7784V102.244Z" fill="#07040B"/>
<path d="M104.71 102.244H102.244V104.71H104.71V102.244Z" fill="#07040B"/>
<path d="M107.176 102.244H104.71V104.71H107.176V102.244Z" fill="#07040B"/>
<path d="M109.642 102.244H107.176V104.71H109.642V102.244Z" fill="#07040B"/>
<path d="M114.574 102.244H112.108V104.71H114.574V102.244Z" fill="#07040B"/>
<path d="M119.506 102.244H117.04V104.71H119.506V102.244Z" fill="#07040B"/>
<path d="M124.438 102.244H121.972V104.71H124.438V102.244Z" fill="#07040B"/>
<path d="M126.903 102.244H124.438V104.71H126.903V102.244Z" fill="#07040B"/>
<path d="M141.699 102.244H139.233V104.71H141.699V102.244Z" fill="#07040B"/>
<path d="M144.165 102.244H141.699V104.71H144.165L144.165 102.244Z" fill="#07040B"/>
<path d="M151.562 102.244H149.097V104.71H151.562V102.244Z" fill="#07040B"/>
<path d="M154.028 102.244H151.562V104.71H154.028V102.244Z" fill="#07040B"/>
<path d="M156.494 102.244H154.028V104.71H156.494V102.244Z" fill="#07040B"/>
<path d="M158.96 102.244H156.494V104.71H158.96V102.244Z" fill="#07040B"/>
<path d="M163.892 102.244H161.426V104.71H163.892V102.244Z" fill="#07040B"/>
<path d="M168.824 102.244H166.358V104.71H168.824V102.244Z" fill="#07040B"/>
<path d="M171.29 102.244H168.824V104.71H171.29V102.244Z" fill="#07040B"/>
<path d="M173.756 102.244H171.29V104.71H173.756V102.244Z" fill="#07040B"/>
<path d="M178.688 102.244H176.222V104.71H178.688V102.244Z" fill="#07040B"/>
<path d="M99.7784 104.71H97.3125V107.176H99.7784V104.71Z" fill="#07040B"/>
<path d="M104.71 104.71H102.244V107.176H104.71V104.71Z" fill="#07040B"/>
<path d="M107.176 104.71H104.71V107.176H107.176V104.71Z" fill="#07040B"/>
<path d="M109.642 104.71H107.176V107.176H109.642V104.71Z" fill="#07040B"/>
<path d="M114.574 104.71H112.108V107.176H114.574V104.71Z" fill="#07040B"/>
<path d="M121.972 104.71H119.506V107.176H121.972V104.71Z" fill="#07040B"/>
<path d="M124.438 104.71H121.972V107.176H124.438V104.71Z" fill="#07040B"/>
<path d="M129.369 104.71H126.903V107.176H129.369V104.71Z" fill="#07040B"/>
<path d="M146.631 104.71H144.165L144.165 107.176H146.631V104.71Z" fill="#07040B"/>
<path d="M154.028 104.71H151.562V107.176H154.028V104.71Z" fill="#07040B"/>
<path d="M158.96 104.71H156.494V107.176H158.96V104.71Z" fill="#07040B"/>
<path d="M163.892 104.71H161.426V107.176H163.892V104.71Z" fill="#07040B"/>
<path d="M168.824 104.71H166.358V107.176H168.824V104.71Z" fill="#07040B"/>
<path d="M171.29 104.71H168.824V107.176H171.29V104.71Z" fill="#07040B"/>
<path d="M173.756 104.71H171.29V107.176H173.756V104.71Z" fill="#07040B"/>
<path d="M178.688 104.71H176.222V107.176H178.688V104.71Z" fill="#07040B"/>
<path d="M99.7784 107.176H97.3125V109.642H99.7784V107.176Z" fill="#07040B"/>
<path d="M104.71 107.176H102.244V109.642H104.71V107.176Z" fill="#07040B"/>
<path d="M107.176 107.176H104.71V109.642H107.176V107.176Z" fill="#07040B"/>
<path d="M109.642 107.176H107.176V109.642H109.642V107.176Z" fill="#07040B"/>
<path d="M114.574 107.176H112.108V109.642H114.574V107.176Z" fill="#07040B"/>
<path d="M121.972 107.176H119.506V109.642H121.972V107.176Z" fill="#07040B"/>
<path d="M124.438 107.176H121.972V109.642H124.438V107.176Z" fill="#07040B"/>
<path d="M131.835 107.176H129.369V109.642H131.835V107.176Z" fill="#07040B"/>
<path d="M134.301 107.176H131.835V109.642H134.301V107.176Z" fill="#07040B"/>
<path d="M136.767 107.176H134.301V109.642H136.767V107.176Z" fill="#07040B"/>
<path d="M139.233 107.176H136.767V109.642H139.233V107.176Z" fill="#07040B"/>
<path d="M146.631 107.176H144.165V109.642H146.631V107.176Z" fill="#07040B"/>
<path d="M154.028 107.176H151.562V109.642H154.028V107.176Z" fill="#07040B"/>
<path d="M156.494 107.176H154.028V109.642H156.494V107.176Z" fill="#07040B"/>
<path d="M158.96 107.176H156.494V109.642H158.96V107.176Z" fill="#07040B"/>
<path d="M163.892 107.176H161.426V109.642H163.892V107.176Z" fill="#07040B"/>
<path d="M168.824 107.176H166.358V109.642H168.824V107.176Z" fill="#07040B"/>
<path d="M171.29 107.176H168.824V109.642H171.29V107.176Z" fill="#07040B"/>
<path d="M173.756 107.176H171.29V109.642H173.756V107.176Z" fill="#07040B"/>
<path d="M178.688 107.176H176.222V109.642H178.688V107.176Z" fill="#07040B"/>
<path d="M99.7784 109.642H97.3125V112.108H99.7784V109.642Z" fill="#07040B"/>
<path d="M114.574 109.642H112.108V112.108H114.574V109.642Z" fill="#07040B"/>
<path d="M124.438 109.642H121.972V112.108H124.438V109.642Z" fill="#07040B"/>
<path d="M131.835 109.642H129.369V112.108H131.835V109.642Z" fill="#07040B"/>
<path d="M139.233 109.642H136.767V112.108H139.233V109.642Z" fill="#07040B"/>
<path d="M144.165 109.642H141.699V112.108H144.165L144.165 109.642Z" fill="#07040B"/>
<path d="M149.097 109.642H146.631V112.108H149.097V109.642Z" fill="#07040B"/>
<path d="M158.96 109.642H156.494V112.108H158.96V109.642Z" fill="#07040B"/>
<path d="M163.892 109.642H161.426V112.108H163.892V109.642Z" fill="#07040B"/>
<path d="M178.688 109.642H176.222V112.108H178.688V109.642Z" fill="#07040B"/>
<path d="M99.7784 112.108H97.3125V114.574H99.7784V112.108Z" fill="#07040B"/>
<path d="M102.244 112.108H99.7784V114.574H102.244V112.108Z" fill="#07040B"/>
<path d="M104.71 112.108H102.244V114.574H104.71V112.108Z" fill="#07040B"/>
<path d="M107.176 112.108H104.71V114.574H107.176V112.108Z" fill="#07040B"/>
<path d="M109.642 112.108H107.176V114.574H109.642V112.108Z" fill="#07040B"/>
<path d="M112.108 112.108H109.642V114.574H112.108V112.108Z" fill="#07040B"/>
<path d="M114.574 112.108H112.108V114.574H114.574V112.108Z" fill="#07040B"/>
<path d="M119.506 112.108H117.04V114.574H119.506V112.108Z" fill="#07040B"/>
<path d="M124.438 112.108H121.972V114.574H124.438V112.108Z" fill="#07040B"/>
<path d="M129.369 112.108H126.903V114.574H129.369V112.108Z" fill="#07040B"/>
<path d="M134.301 112.108H131.835V114.574H134.301V112.108Z" fill="#07040B"/>
<path d="M139.233 112.108H136.767V114.574H139.233V112.108Z" fill="#07040B"/>
<path d="M144.165 112.108H141.699V114.574H144.165V112.108Z" fill="#07040B"/>
<path d="M149.097 112.108H146.631V114.574H149.097V112.108Z" fill="#07040B"/>
<path d="M154.028 112.108H151.562V114.574H154.028V112.108Z" fill="#07040B"/>
<path d="M158.96 112.108H156.494V114.574H158.96V112.108Z" fill="#07040B"/>
<path d="M163.892 112.108H161.426V114.574H163.892V112.108Z" fill="#07040B"/>
<path d="M166.358 112.108H163.892V114.574H166.358V112.108Z" fill="#07040B"/>
<path d="M168.824 112.108H166.358V114.574H168.824V112.108Z" fill="#07040B"/>
<path d="M171.29 112.108H168.824V114.574H171.29V112.108Z" fill="#07040B"/>
<path d="M173.756 112.108H171.29V114.574H173.756V112.108Z" fill="#07040B"/>
<path d="M176.222 112.108H173.756V114.574H176.222V112.108Z" fill="#07040B"/>
<path d="M178.688 112.108H176.222V114.574H178.688V112.108Z" fill="#07040B"/>
<path d="M119.506 114.574H117.04V117.04H119.506V114.574Z" fill="#07040B"/>
<path d="M121.972 114.574H119.506V117.04H121.972V114.574Z" fill="#07040B"/>
<path d="M124.438 114.574H121.972V117.04H124.438V114.574Z" fill="#07040B"/>
<path d="M136.767 114.574H134.301V117.04H136.767V114.574Z" fill="#07040B"/>
<path d="M139.233 114.574H136.767V117.04H139.233V114.574Z" fill="#07040B"/>
<path d="M151.562 114.574H149.097V117.04H151.562V114.574Z" fill="#07040B"/>
<path d="M154.028 114.574H151.562V117.04H154.028V114.574Z" fill="#07040B"/>
<path d="M156.494 114.574H154.028V117.04H156.494V114.574Z" fill="#07040B"/>
<path d="M158.96 114.574H156.494V117.04H158.96V114.574Z" fill="#07040B"/>
<path d="M99.7784 117.04H97.3125V119.506H99.7784V117.04Z" fill="#07040B"/>
<path d="M104.71 117.04H102.244V119.506H104.71V117.04Z" fill="#07040B"/>
<path d="M112.108 117.04H109.642V119.506H112.108V117.04Z" fill="#07040B"/>
<path d="M114.574 117.04H112.108V119.506H114.574V117.04Z" fill="#07040B"/>
<path d="M121.972 117.04H119.506V119.506H121.972V117.04Z" fill="#07040B"/>
<path d="M124.438 117.04H121.972V119.506H124.438V117.04Z" fill="#07040B"/>
<path d="M131.835 117.04H129.369V119.506H131.835V117.04Z" fill="#07040B"/>
<path d="M146.631 117.04H144.165V119.506H146.631V117.04Z" fill="#07040B"/>
<path d="M151.562 117.04H149.097V119.506H151.562V117.04Z" fill="#07040B"/>
<path d="M156.494 117.04H154.028V119.506H156.494V117.04Z" fill="#07040B"/>
<path d="M158.96 117.04H156.494V119.506H158.96V117.04Z" fill="#07040B"/>
<path d="M161.426 117.04H158.96V119.506H161.426V117.04Z" fill="#07040B"/>
<path d="M163.892 117.04H161.426V119.506H163.892V117.04Z" fill="#07040B"/>
<path d="M173.756 117.04H171.29V119.506H173.756V117.04Z" fill="#07040B"/>
<path d="M178.688 117.04H176.222V119.506H178.688V117.04Z" fill="#07040B"/>
<path d="M99.7784 119.506H97.3125V121.972H99.7784V119.506Z" fill="#07040B"/>
<path d="M102.244 119.506H99.7784V121.972H102.244V119.506Z" fill="#07040B"/>
<path d="M104.71 119.506H102.244V121.972H104.71V119.506Z" fill="#07040B"/>
<path d="M107.176 119.506H104.71V121.972H107.176V119.506Z" fill="#07040B"/>
<path d="M109.642 119.506H107.176V121.972H109.642V119.506Z" fill="#07040B"/>
<path d="M117.04 119.506H114.574V121.972H117.04V119.506Z" fill="#07040B"/>
<path d="M119.506 119.506H117.04V121.972H119.506V119.506Z" fill="#07040B"/>
<path d="M124.438 119.506H121.972V121.972H124.438V119.506Z" fill="#07040B"/>
<path d="M131.835 119.506H129.369V121.972H131.835V119.506Z" fill="#07040B"/>
<path d="M136.767 119.506H134.301V121.972H136.767V119.506Z" fill="#07040B"/>
<path d="M141.699 119.506H139.233V121.972H141.699V119.506Z" fill="#07040B"/>
<path d="M149.097 119.506H146.631V121.972H149.097V119.506Z" fill="#07040B"/>
<path d="M151.562 119.506H149.097V121.972H151.562V119.506Z" fill="#07040B"/>
<path d="M154.028 119.506H151.562V121.972H154.028V119.506Z" fill="#07040B"/>
<path d="M168.824 119.506H166.358V121.972H168.824V119.506Z" fill="#07040B"/>
<path d="M171.29 119.506H168.824V121.972H171.29V119.506Z" fill="#07040B"/>
<path d="M102.244 121.972H99.7784V124.438H102.244V121.972Z" fill="#07040B"/>
<path d="M104.71 121.972H102.244V124.438H104.71V121.972Z" fill="#07040B"/>
<path d="M107.176 121.972H104.71V124.438H107.176V121.972Z" fill="#07040B"/>
<path d="M109.642 121.972H107.176V124.438H109.642V121.972Z" fill="#07040B"/>
<path d="M112.108 121.972H109.642V124.438H112.108V121.972Z" fill="#07040B"/>
<path d="M114.574 121.972H112.108V124.438H114.574V121.972Z" fill="#07040B"/>
<path d="M117.04 121.972H114.574V124.438H117.04V121.972Z" fill="#07040B"/>
<path d="M121.972 121.972H119.506V124.438H121.972V121.972Z" fill="#07040B"/>
<path d="M124.438 121.972H121.972V124.438H124.438V121.972Z" fill="#07040B"/>
<path d="M129.369 121.972H126.903V124.438H129.369V121.972Z" fill="#07040B"/>
<path d="M131.835 121.972H129.369V124.438H131.835V121.972Z" fill="#07040B"/>
<path d="M136.767 121.972H134.301V124.438H136.767V121.972Z" fill="#07040B"/>
<path d="M146.631 121.972H144.165V124.438H146.631V121.972Z" fill="#07040B"/>
<path d="M154.028 121.972H151.562V124.438H154.028V121.972Z" fill="#07040B"/>
<path d="M156.494 121.972H154.028V124.438H156.494V121.972Z" fill="#07040B"/>
<path d="M158.96 121.972H156.494V124.438H158.96V121.972Z" fill="#07040B"/>
<path d="M161.426 121.972H158.96V124.438H161.426V121.972Z" fill="#07040B"/>
<path d="M168.824 121.972H166.358V124.438H168.824V121.972Z" fill="#07040B"/>
<path d="M173.756 121.972H171.29V124.438H173.756V121.972Z" fill="#07040B"/>
<path d="M178.688 121.972H176.222V124.438H178.688V121.972Z" fill="#07040B"/>
<path d="M102.244 124.438H99.7784V126.903H102.244V124.438Z" fill="#07040B"/>
<path d="M104.71 124.438H102.244V126.903H104.71V124.438Z" fill="#07040B"/>
<path d="M107.176 124.438H104.71V126.903H107.176V124.438Z" fill="#07040B"/>
<path d="M112.108 124.438H109.642V126.903H112.108V124.438Z" fill="#07040B"/>
<path d="M124.438 124.438H121.972V126.903H124.438V124.438Z" fill="#07040B"/>
<path d="M136.767 124.438H134.301V126.903H136.767V124.438Z" fill="#07040B"/>
<path d="M139.233 124.438H136.767V126.903H139.233V124.438Z" fill="#07040B"/>
<path d="M144.165 124.438H141.699V126.903H144.165L144.165 124.438Z" fill="#07040B"/>
<path d="M146.631 124.438H144.165L144.165 126.903H146.631V124.438Z" fill="#07040B"/>
<path d="M154.028 124.438H151.562V126.903H154.028V124.438Z" fill="#07040B"/>
<path d="M161.426 124.438H158.96V126.903H161.426V124.438Z" fill="#07040B"/>
<path d="M163.892 124.438H161.426V126.903H163.892V124.438Z" fill="#07040B"/>
<path d="M166.358 124.438H163.892V126.903H166.358V124.438Z" fill="#07040B"/>
<path d="M178.688 124.438H176.222V126.903H178.688V124.438Z" fill="#07040B"/>
<path d="M102.244 126.903H99.7784V129.369H102.244V126.903Z" fill="#07040B"/>
<path d="M109.642 126.903H107.176V129.369H109.642V126.903Z" fill="#07040B"/>
<path d="M114.574 126.903H112.108V129.369H114.574V126.903Z" fill="#07040B"/>
<path d="M121.972 126.903H119.506V129.369H121.972V126.903Z" fill="#07040B"/>
<path d="M136.767 126.903H134.301V129.369H136.767V126.903Z" fill="#07040B"/>
<path d="M139.233 126.903H136.767V129.369H139.233V126.903Z" fill="#07040B"/>
<path d="M146.631 126.903H144.165L144.165 129.369H146.631V126.903Z" fill="#07040B"/>
<path d="M149.097 126.903H146.631V129.369H149.097V126.903Z" fill="#07040B"/>
<path d="M156.494 126.903H154.028V129.369H156.494V126.903Z" fill="#07040B"/>
<path d="M161.426 126.903H158.96V129.369H161.426V126.903Z" fill="#07040B"/>
<path d="M163.892 126.903H161.426V129.369H163.892V126.903Z" fill="#07040B"/>
<path d="M173.756 126.903H171.29V129.369H173.756V126.903Z" fill="#07040B"/>
<path d="M176.222 126.903H173.756V129.369H176.222V126.903Z" fill="#07040B"/>
<path d="M99.7784 129.369H97.3125V131.835H99.7784V129.369Z" fill="#07040B"/>
<path d="M104.71 129.369H102.244V131.835H104.71V129.369Z" fill="#07040B"/>
<path d="M109.642 129.369H107.176V131.835H109.642V129.369Z" fill="#07040B"/>
<path d="M121.972 129.369H119.506V131.835H121.972V129.369Z" fill="#07040B"/>
<path d="M126.903 129.369H124.438V131.835H126.903V129.369Z" fill="#07040B"/>
<path d="M129.369 129.369H126.903V131.835H129.369V129.369Z" fill="#07040B"/>
<path d="M134.301 129.369H131.835V131.835H134.301V129.369Z" fill="#07040B"/>
<path d="M141.699 129.369H139.233V131.835H141.699V129.369Z" fill="#07040B"/>
<path d="M144.165 129.369H141.699V131.835H144.165L144.165 129.369Z" fill="#07040B"/>
<path d="M146.631 129.369H144.165L144.165 131.835H146.631V129.369Z" fill="#07040B"/>
<path d="M151.562 129.369H149.097V131.835H151.562V129.369Z" fill="#07040B"/>
<path d="M158.96 129.369H156.494V131.835H158.96V129.369Z" fill="#07040B"/>
<path d="M163.892 129.369H161.426V131.835H163.892V129.369Z" fill="#07040B"/>
<path d="M171.29 129.369H168.824V131.835H171.29V129.369Z" fill="#07040B"/>
<path d="M176.222 129.369H173.756V131.835H176.222V129.369Z" fill="#07040B"/>
<path d="M178.688 129.369H176.222V131.835H178.688V129.369Z" fill="#07040B"/>
<path d="M99.7784 131.835H97.3125V134.301H99.7784V131.835Z" fill="#07040B"/>
<path d="M112.108 131.835H109.642V134.301H112.108V131.835Z" fill="#07040B"/>
<path d="M114.574 131.835H112.108V134.301H114.574V131.835Z" fill="#07040B"/>
<path d="M117.04 131.835H114.574V134.301H117.04V131.835Z" fill="#07040B"/>
<path d="M119.506 131.835H117.04V134.301H119.506V131.835Z" fill="#07040B"/>
<path d="M121.972 131.835H119.506V134.301H121.972V131.835Z" fill="#07040B"/>
<path d="M134.301 131.835H131.835V134.301H134.301V131.835Z" fill="#07040B"/>
<path d="M139.233 131.835H136.767V134.301H139.233V131.835Z" fill="#07040B"/>
<path d="M141.699 131.835H139.233V134.301H141.699V131.835Z" fill="#07040B"/>
<path d="M146.631 131.835H144.165L144.165 134.301H146.631V131.835Z" fill="#07040B"/>
<path d="M154.028 131.835H151.562V134.301H154.028V131.835Z" fill="#07040B"/>
<path d="M156.494 131.835H154.028V134.301H156.494V131.835Z" fill="#07040B"/>
<path d="M166.358 131.835H163.892V134.301H166.358V131.835Z" fill="#07040B"/>
<path d="M168.824 131.835H166.358V134.301H168.824V131.835Z" fill="#07040B"/>
<path d="M171.29 131.835H168.824V134.301H171.29V131.835Z" fill="#07040B"/>
<path d="M178.688 131.835H176.222V134.301H178.688V131.835Z" fill="#07040B"/>
<path d="M109.642 134.301H107.176V136.767H109.642V134.301Z" fill="#07040B"/>
<path d="M112.108 134.301H109.642V136.767H112.108V134.301Z" fill="#07040B"/>
<path d="M117.04 134.301H114.574V136.767H117.04V134.301Z" fill="#07040B"/>
<path d="M121.972 134.301H119.506V136.767H121.972V134.301Z" fill="#07040B"/>
<path d="M124.438 134.301H121.972V136.767H124.438V134.301Z" fill="#07040B"/>
<path d="M129.369 134.301H126.903V136.767H129.369V134.301Z" fill="#07040B"/>
<path d="M134.301 134.301H131.835V136.767H134.301V134.301Z" fill="#07040B"/>
<path d="M139.233 134.301H136.767V136.767H139.233V134.301Z" fill="#07040B"/>
<path d="M141.699 134.301H139.233V136.767H141.699V134.301Z" fill="#07040B"/>
<path d="M144.165 134.301H141.699V136.767H144.165L144.165 134.301Z" fill="#07040B"/>
<path d="M156.494 134.301H154.028V136.767H156.494V134.301Z" fill="#07040B"/>
<path d="M161.426 134.301H158.96V136.767H161.426V134.301Z" fill="#07040B"/>
<path d="M163.892 134.301H161.426V136.767H163.892V134.301Z" fill="#07040B"/>
<path d="M173.756 134.301H171.29V136.767H173.756V134.301Z" fill="#07040B"/>
<path d="M178.688 134.301H176.222V136.767H178.688V134.301Z" fill="#07040B"/>
<path d="M104.71 136.767H102.244V139.233H104.71V136.767Z" fill="#07040B"/>
<path d="M114.574 136.767H112.108V139.233H114.574V136.767Z" fill="#07040B"/>
<path d="M117.04 136.767H114.574V139.233H117.04V136.767Z" fill="#07040B"/>
<path d="M124.438 136.767H121.972V139.233H124.438V136.767Z" fill="#07040B"/>
<path d="M126.903 136.767H124.438V139.233H126.903V136.767Z" fill="#07040B"/>
<path d="M141.699 136.767H139.233V139.233H141.699V136.767Z" fill="#07040B"/>
<path d="M149.097 136.767H146.631V139.233H149.097V136.767Z" fill="#07040B"/>
<path d="M151.562 136.767H149.097V139.233H151.562V136.767Z" fill="#07040B"/>
<path d="M154.028 136.767H151.562V139.233H154.028V136.767Z" fill="#07040B"/>
<path d="M156.494 136.767H154.028V139.233H156.494V136.767Z" fill="#07040B"/>
<path d="M161.426 136.767H158.96V139.233H161.426V136.767Z" fill="#07040B"/>
<path d="M99.7784 139.233H97.3125V141.699H99.7784V139.233Z" fill="#07040B"/>
<path d="M104.71 139.233H102.244V141.699H104.71V139.233Z" fill="#07040B"/>
<path d="M109.642 139.233H107.176V141.699H109.642V139.233Z" fill="#07040B"/>
<path d="M121.972 139.233H119.506V141.699H121.972V139.233Z" fill="#07040B"/>
<path d="M126.903 139.233H124.438V141.699H126.903V139.233Z" fill="#07040B"/>
<path d="M129.369 139.233H126.903V141.699H129.369V139.233Z" fill="#07040B"/>
<path d="M144.165 139.233H141.699V141.699H144.165V139.233Z" fill="#07040B"/>
<path d="M149.097 139.233H146.631V141.699H149.097V139.233Z" fill="#07040B"/>
<path d="M161.426 139.233H158.96V141.699H161.426V139.233Z" fill="#07040B"/>
<path d="M166.358 139.233H163.892V141.699H166.358V139.233Z" fill="#07040B"/>
<path d="M168.824 139.233H166.358V141.699H168.824V139.233Z" fill="#07040B"/>
<path d="M114.574 141.699H112.108V144.165H114.574V141.699Z" fill="#07040B"/>
<path d="M119.506 141.699H117.04V144.165H119.506V141.699Z" fill="#07040B"/>
<path d="M121.972 141.699H119.506V144.165H121.972V141.699Z" fill="#07040B"/>
<path d="M134.301 141.699H131.835V144.165H134.301V141.699Z" fill="#07040B"/>
<path d="M139.233 141.699H136.767V144.165H139.233V141.699Z" fill="#07040B"/>
<path d="M141.699 141.699H139.233V144.165H141.699V141.699Z" fill="#07040B"/>
<path d="M144.165 141.699H141.699V144.165H144.165V141.699Z" fill="#07040B"/>
<path d="M146.631 141.699H144.165V144.165H146.631V141.699Z" fill="#07040B"/>
<path d="M149.097 141.699H146.631V144.165H149.097V141.699Z" fill="#07040B"/>
<path d="M151.562 141.699H149.097V144.165H151.562V141.699Z" fill="#07040B"/>
<path d="M158.96 141.699H156.494V144.165H158.96V141.699Z" fill="#07040B"/>
<path d="M161.426 141.699H158.96V144.165H161.426V141.699Z" fill="#07040B"/>
<path d="M176.222 141.699H173.756V144.165H176.222V141.699Z" fill="#07040B"/>
<path d="M178.688 141.699H176.222V144.165H178.688V141.699Z" fill="#07040B"/>
<path d="M104.71 144.165H102.244V146.631H104.71V144.165Z" fill="#07040B"/>
<path d="M107.176 144.165H104.71V146.631H107.176V144.165Z" fill="#07040B"/>
<path d="M109.642 144.165H107.176V146.631H109.642V144.165Z" fill="#07040B"/>
<path d="M112.108 144.165L109.642 144.165V146.631H112.108V144.165Z" fill="#07040B"/>
<path d="M117.04 144.165H114.574V146.631H117.04V144.165Z" fill="#07040B"/>
<path d="M121.972 144.165H119.506V146.631H121.972V144.165Z" fill="#07040B"/>
<path d="M124.438 144.165L121.972 144.165V146.631H124.438V144.165Z" fill="#07040B"/>
<path d="M134.301 144.165H131.835V146.631H134.301V144.165Z" fill="#07040B"/>
<path d="M136.767 144.165H134.301V146.631H136.767V144.165Z" fill="#07040B"/>
<path d="M139.233 144.165H136.767V146.631H139.233V144.165Z" fill="#07040B"/>
<path d="M141.699 144.165H139.233V146.631H141.699V144.165Z" fill="#07040B"/>
<path d="M144.165 144.165H141.699V146.631H144.165V144.165Z" fill="#07040B"/>
<path d="M146.631 144.165H144.165V146.631H146.631V144.165Z" fill="#07040B"/>
<path d="M149.097 144.165H146.631V146.631H149.097V144.165Z" fill="#07040B"/>
<path d="M151.562 144.165H149.097V146.631H151.562V144.165Z" fill="#07040B"/>
<path d="M154.028 144.165L151.562 144.165V146.631H154.028V144.165Z" fill="#07040B"/>
<path d="M156.494 144.165L154.028 144.165V146.631H156.494V144.165Z" fill="#07040B"/>
<path d="M158.96 144.165H156.494V146.631H158.96V144.165Z" fill="#07040B"/>
<path d="M161.426 144.165H158.96V146.631H161.426V144.165Z" fill="#07040B"/>
<path d="M163.892 144.165L161.426 144.165V146.631H163.892V144.165Z" fill="#07040B"/>
<path d="M166.358 144.165H163.892V146.631H166.358V144.165Z" fill="#07040B"/>
<path d="M168.824 144.165H166.358V146.631H168.824V144.165Z" fill="#07040B"/>
<path d="M171.29 144.165H168.824V146.631H171.29V144.165Z" fill="#07040B"/>
<path d="M173.756 144.165L171.29 144.165V146.631H173.756V144.165Z" fill="#07040B"/>
<path d="M178.688 144.165H176.222V146.631H178.688V144.165Z" fill="#07040B"/>
<path d="M99.7784 146.631H97.3125V149.097H99.7784V146.631Z" fill="#07040B"/>
<path d="M102.244 146.631H99.7784V149.097H102.244V146.631Z" fill="#07040B"/>
<path d="M104.71 146.631H102.244V149.097H104.71V146.631Z" fill="#07040B"/>
<path d="M114.574 146.631H112.108V149.097H114.574V146.631Z" fill="#07040B"/>
<path d="M117.04 146.631H114.574V149.097H117.04V146.631Z" fill="#07040B"/>
<path d="M124.438 146.631H121.972V149.097H124.438V146.631Z" fill="#07040B"/>
<path d="M129.369 146.631H126.903V149.097H129.369V146.631Z" fill="#07040B"/>
<path d="M136.767 146.631H134.301V149.097H136.767V146.631Z" fill="#07040B"/>
<path d="M154.028 146.631H151.562V149.097H154.028V146.631Z" fill="#07040B"/>
<path d="M166.358 146.631H163.892V149.097H166.358V146.631Z" fill="#07040B"/>
<path d="M176.222 146.631H173.756V149.097H176.222V146.631Z" fill="#07040B"/>
<path d="M99.7784 149.097H97.3125V151.562H99.7784V149.097Z" fill="#07040B"/>
<path d="M102.244 149.097H99.7784V151.562H102.244V149.097Z" fill="#07040B"/>
<path d="M104.71 149.097H102.244V151.562H104.71V149.097Z" fill="#07040B"/>
<path d="M107.176 149.097H104.71V151.562H107.176V149.097Z" fill="#07040B"/>
<path d="M109.642 149.097H107.176V151.562H109.642V149.097Z" fill="#07040B"/>
<path d="M112.108 149.097H109.642V151.562H112.108V149.097Z" fill="#07040B"/>
<path d="M124.438 149.097H121.972V151.562H124.438V149.097Z" fill="#07040B"/>
<path d="M131.835 149.097H129.369V151.562H131.835V149.097Z" fill="#07040B"/>
<path d="M134.301 149.097H131.835V151.562H134.301V149.097Z" fill="#07040B"/>
<path d="M141.699 149.097H139.233V151.562H141.699V149.097Z" fill="#07040B"/>
<path d="M144.165 149.097H141.699V151.562H144.165V149.097Z" fill="#07040B"/>
<path d="M151.562 149.097H149.097V151.562H151.562V149.097Z" fill="#07040B"/>
<path d="M154.028 149.097H151.562V151.562H154.028V149.097Z" fill="#07040B"/>
<path d="M161.426 149.097H158.96V151.562H161.426V149.097Z" fill="#07040B"/>
<path d="M163.892 149.097H161.426V151.562H163.892V149.097Z" fill="#07040B"/>
<path d="M171.29 149.097H168.824V151.562H171.29V149.097Z" fill="#07040B"/>
<path d="M173.756 149.097H171.29V151.562H173.756V149.097Z" fill="#07040B"/>
<path d="M102.244 151.562H99.7784V154.028H102.244V151.562Z" fill="#07040B"/>
<path d="M107.176 151.562H104.71V154.028H107.176V151.562Z" fill="#07040B"/>
<path d="M114.574 151.562H112.108V154.028H114.574V151.562Z" fill="#07040B"/>
<path d="M119.506 151.562H117.04V154.028H119.506V151.562Z" fill="#07040B"/>
<path d="M121.972 151.562H119.506V154.028H121.972V151.562Z" fill="#07040B"/>
<path d="M131.835 151.562H129.369V154.028H131.835V151.562Z" fill="#07040B"/>
<path d="M134.301 151.562H131.835V154.028H134.301V151.562Z" fill="#07040B"/>
<path d="M139.233 151.562H136.767V154.028H139.233V151.562Z" fill="#07040B"/>
<path d="M141.699 151.562H139.233V154.028H141.699V151.562Z" fill="#07040B"/>
<path d="M144.165 151.562H141.699V154.028H144.165V151.562Z" fill="#07040B"/>
<path d="M146.631 151.562H144.165V154.028H146.631V151.562Z" fill="#07040B"/>
<path d="M149.097 151.562H146.631V154.028H149.097V151.562Z" fill="#07040B"/>
<path d="M151.562 151.562H149.097V154.028H151.562V151.562Z" fill="#07040B"/>
<path d="M154.028 151.562H151.562V154.028H154.028V151.562Z" fill="#07040B"/>
<path d="M156.494 151.562H154.028V154.028H156.494V151.562Z" fill="#07040B"/>
<path d="M161.426 151.562H158.96V154.028H161.426V151.562Z" fill="#07040B"/>
<path d="M163.892 151.562H161.426V154.028H163.892V151.562Z" fill="#07040B"/>
<path d="M166.358 151.562H163.892V154.028H166.358V151.562Z" fill="#07040B"/>
<path d="M173.756 151.562H171.29V154.028H173.756V151.562Z" fill="#07040B"/>
<path d="M176.222 151.562H173.756V154.028H176.222V151.562Z" fill="#07040B"/>
<path d="M178.688 151.562H176.222V154.028H178.688V151.562Z" fill="#07040B"/>
<path d="M104.71 154.028H102.244V156.494H104.71V154.028Z" fill="#07040B"/>
<path d="M117.04 154.028H114.574V156.494H117.04V154.028Z" fill="#07040B"/>
<path d="M119.506 154.028H117.04V156.494H119.506V154.028Z" fill="#07040B"/>
<path d="M121.972 154.028H119.506V156.494H121.972V154.028Z" fill="#07040B"/>
<path d="M124.438 154.028H121.972V156.494H124.438V154.028Z" fill="#07040B"/>
<path d="M131.835 154.028H129.369V156.494H131.835V154.028Z" fill="#07040B"/>
<path d="M134.301 154.028H131.835V156.494H134.301V154.028Z" fill="#07040B"/>
<path d="M141.699 154.028H139.233V156.494H141.699V154.028Z" fill="#07040B"/>
<path d="M144.165 154.028H141.699V156.494H144.165V154.028Z" fill="#07040B"/>
<path d="M146.631 154.028H144.165V156.494H146.631V154.028Z" fill="#07040B"/>
<path d="M149.097 154.028H146.631V156.494H149.097V154.028Z" fill="#07040B"/>
<path d="M151.562 154.028H149.097V156.494H151.562V154.028Z" fill="#07040B"/>
<path d="M154.028 154.028H151.562V156.494H154.028V154.028Z" fill="#07040B"/>
<path d="M156.494 154.028H154.028V156.494H156.494V154.028Z" fill="#07040B"/>
<path d="M158.96 154.028H156.494V156.494H158.96V154.028Z" fill="#07040B"/>
<path d="M161.426 154.028H158.96V156.494H161.426V154.028Z" fill="#07040B"/>
<path d="M168.824 154.028H166.358V156.494H168.824V154.028Z" fill="#07040B"/>
<path d="M173.756 154.028H171.29V156.494H173.756V154.028Z" fill="#07040B"/>
<path d="M99.7784 156.494H97.3125V158.96H99.7784V156.494Z" fill="#07040B"/>
<path d="M102.244 156.494H99.7784V158.96H102.244V156.494Z" fill="#07040B"/>
<path d="M107.176 156.494H104.71V158.96H107.176V156.494Z" fill="#07040B"/>
<path d="M109.642 156.494H107.176V158.96H109.642V156.494Z" fill="#07040B"/>
<path d="M114.574 156.494H112.108V158.96H114.574V156.494Z" fill="#07040B"/>
<path d="M121.972 156.494H119.506V158.96H121.972V156.494Z" fill="#07040B"/>
<path d="M141.699 156.494H139.233V158.96H141.699V156.494Z" fill="#07040B"/>
<path d="M156.494 156.494H154.028V158.96H156.494V156.494Z" fill="#07040B"/>
<path d="M158.96 156.494H156.494V158.96H158.96V156.494Z" fill="#07040B"/>
<path d="M161.426 156.494H158.96V158.96H161.426V156.494Z" fill="#07040B"/>
<path d="M163.892 156.494H161.426V158.96H163.892V156.494Z" fill="#07040B"/>
<path d="M166.358 156.494H163.892V158.96H166.358V156.494Z" fill="#07040B"/>
<path d="M168.824 156.494H166.358V158.96H168.824V156.494Z" fill="#07040B"/>
<path d="M173.756 156.494H171.29V158.96H173.756V156.494Z" fill="#07040B"/>
<path d="M176.222 156.494H173.756V158.96H176.222V156.494Z" fill="#07040B"/>
<path d="M178.688 156.494H176.222V158.96H178.688V156.494Z" fill="#07040B"/>
<path d="M121.972 158.96H119.506V161.426H121.972V158.96Z" fill="#07040B"/>
<path d="M129.369 158.96H126.903V161.426H129.369V158.96Z" fill="#07040B"/>
<path d="M131.835 158.96H129.369V161.426H131.835V158.96Z" fill="#07040B"/>
<path d="M134.301 158.96H131.835V161.426H134.301V158.96Z" fill="#07040B"/>
<path d="M136.767 158.96H134.301V161.426H136.767V158.96Z" fill="#07040B"/>
<path d="M141.699 158.96H139.233V161.426H141.699V158.96Z" fill="#07040B"/>
<path d="M144.165 158.96H141.699V161.426H144.165V158.96Z" fill="#07040B"/>
<path d="M146.631 158.96H144.165V161.426H146.631V158.96Z" fill="#07040B"/>
<path d="M158.96 158.96H156.494V161.426H158.96V158.96Z" fill="#07040B"/>
<path d="M168.824 158.96H166.358V161.426H168.824V158.96Z" fill="#07040B"/>
<path d="M173.756 158.96H171.29V161.426H173.756V158.96Z" fill="#07040B"/>
<path d="M176.222 158.96H173.756V161.426H176.222V158.96Z" fill="#07040B"/>
<path d="M99.7784 161.426H97.3125V163.892H99.7784V161.426Z" fill="#07040B"/>
<path d="M102.244 161.426H99.7784V163.892H102.244V161.426Z" fill="#07040B"/>
<path d="M104.71 161.426H102.244V163.892H104.71V161.426Z" fill="#07040B"/>
<path d="M107.176 161.426H104.71V163.892H107.176V161.426Z" fill="#07040B"/>
<path d="M109.642 161.426H107.176V163.892H109.642V161.426Z" fill="#07040B"/>
<path d="M112.108 161.426H109.642V163.892H112.108V161.426Z" fill="#07040B"/>
<path d="M114.574 161.426H112.108V163.892H114.574V161.426Z" fill="#07040B"/>
<path d="M121.972 161.426H119.506V163.892H121.972V161.426Z" fill="#07040B"/>
<path d="M124.438 161.426H121.972V163.892H124.438V161.426Z" fill="#07040B"/>
<path d="M126.903 161.426H124.438V163.892H126.903V161.426Z" fill="#07040B"/>
<path d="M129.369 161.426H126.903V163.892H129.369V161.426Z" fill="#07040B"/>
<path d="M131.835 161.426H129.369V163.892H131.835V161.426Z" fill="#07040B"/>
<path d="M134.301 161.426H131.835V163.892H134.301V161.426Z" fill="#07040B"/>
<path d="M136.767 161.426H134.301V163.892H136.767V161.426Z" fill="#07040B"/>
<path d="M139.233 161.426H136.767V163.892H139.233V161.426Z" fill="#07040B"/>
<path d="M141.699 161.426H139.233V163.892H141.699V161.426Z" fill="#07040B"/>
<path d="M149.097 161.426H146.631V163.892H149.097V161.426Z" fill="#07040B"/>
<path d="M151.562 161.426H149.097V163.892H151.562V161.426Z" fill="#07040B"/>
<path d="M154.028 161.426H151.562V163.892H154.028V161.426Z" fill="#07040B"/>
<path d="M158.96 161.426H156.494V163.892H158.96V161.426Z" fill="#07040B"/>
<path d="M163.892 161.426H161.426V163.892H163.892V161.426Z" fill="#07040B"/>
<path d="M168.824 161.426H166.358V163.892H168.824V161.426Z" fill="#07040B"/>
<path d="M178.688 161.426H176.222V163.892H178.688V161.426Z" fill="#07040B"/>
<path d="M99.7784 163.892H97.3125V166.358H99.7784V163.892Z" fill="#07040B"/>
<path d="M114.574 163.892H112.108V166.358H114.574V163.892Z" fill="#07040B"/>
<path d="M119.506 163.892H117.04V166.358H119.506V163.892Z" fill="#07040B"/>
<path d="M121.972 163.892H119.506V166.358H121.972V163.892Z" fill="#07040B"/>
<path d="M126.903 163.892H124.438V166.358H126.903V163.892Z" fill="#07040B"/>
<path d="M139.233 163.892H136.767V166.358H139.233V163.892Z" fill="#07040B"/>
<path d="M141.699 163.892H139.233V166.358H141.699V163.892Z" fill="#07040B"/>
<path d="M144.165 163.892H141.699V166.358H144.165V163.892Z" fill="#07040B"/>
<path d="M146.631 163.892H144.165V166.358H146.631V163.892Z" fill="#07040B"/>
<path d="M156.494 163.892H154.028V166.358H156.494V163.892Z" fill="#07040B"/>
<path d="M158.96 163.892H156.494V166.358H158.96V163.892Z" fill="#07040B"/>
<path d="M168.824 163.892H166.358V166.358H168.824V163.892Z" fill="#07040B"/>
<path d="M171.29 163.892H168.824V166.358H171.29V163.892Z" fill="#07040B"/>
<path d="M178.688 163.892H176.222V166.358H178.688V163.892Z" fill="#07040B"/>
<path d="M99.7784 166.358H97.3125V168.824H99.7784V166.358Z" fill="#07040B"/>
<path d="M104.71 166.358H102.244V168.824H104.71V166.358Z" fill="#07040B"/>
<path d="M107.176 166.358H104.71V168.824H107.176V166.358Z" fill="#07040B"/>
<path d="M109.642 166.358H107.176V168.824H109.642V166.358Z" fill="#07040B"/>
<path d="M114.574 166.358H112.108V168.824H114.574V166.358Z" fill="#07040B"/>
<path d="M124.438 166.358H121.972V168.824H124.438V166.358Z" fill="#07040B"/>
<path d="M134.301 166.358H131.835V168.824H134.301V166.358Z" fill="#07040B"/>
<path d="M136.767 166.358H134.301V168.824H136.767V166.358Z" fill="#07040B"/>
<path d="M144.165 166.358H141.699V168.824H144.165V166.358Z" fill="#07040B"/>
<path d="M158.96 166.358H156.494V168.824H158.96V166.358Z" fill="#07040B"/>
<path d="M161.426 166.358H158.96V168.824H161.426V166.358Z" fill="#07040B"/>
<path d="M163.892 166.358H161.426V168.824H163.892V166.358Z" fill="#07040B"/>
<path d="M166.358 166.358H163.892V168.824H166.358V166.358Z" fill="#07040B"/>
<path d="M168.824 166.358H166.358V168.824H168.824V166.358Z" fill="#07040B"/>
<path d="M171.29 166.358H168.824V168.824H171.29V166.358Z" fill="#07040B"/>
<path d="M173.756 166.358H171.29V168.824H173.756V166.358Z" fill="#07040B"/>
<path d="M178.688 166.358H176.222V168.824H178.688V166.358Z" fill="#07040B"/>
<path d="M99.7784 168.824H97.3125V171.29H99.7784V168.824Z" fill="#07040B"/>
<path d="M104.71 168.824H102.244V171.29H104.71V168.824Z" fill="#07040B"/>
<path d="M107.176 168.824H104.71V171.29H107.176V168.824Z" fill="#07040B"/>
<path d="M109.642 168.824H107.176V171.29H109.642V168.824Z" fill="#07040B"/>
<path d="M114.574 168.824H112.108V171.29H114.574V168.824Z" fill="#07040B"/>
<path d="M121.972 168.824H119.506V171.29H121.972V168.824Z" fill="#07040B"/>
<path d="M126.903 168.824H124.438V171.29H126.903V168.824Z" fill="#07040B"/>
<path d="M131.835 168.824H129.369V171.29H131.835V168.824Z" fill="#07040B"/>
<path d="M134.301 168.824H131.835V171.29H134.301V168.824Z" fill="#07040B"/>
<path d="M146.631 168.824H144.165L144.165 171.29H146.631V168.824Z" fill="#07040B"/>
<path d="M151.562 168.824H149.097V171.29H151.562V168.824Z" fill="#07040B"/>
<path d="M154.028 168.824H151.562V171.29H154.028V168.824Z" fill="#07040B"/>
<path d="M161.426 168.824H158.96V171.29H161.426V168.824Z" fill="#07040B"/>
<path d="M163.892 168.824H161.426V171.29H163.892V168.824Z" fill="#07040B"/>
<path d="M168.824 168.824H166.358V171.29H168.824V168.824Z" fill="#07040B"/>
<path d="M99.7784 171.29H97.3125V173.756H99.7784V171.29Z" fill="#07040B"/>
<path d="M104.71 171.29H102.244V173.756H104.71V171.29Z" fill="#07040B"/>
<path d="M107.176 171.29H104.71V173.756H107.176V171.29Z" fill="#07040B"/>
<path d="M109.642 171.29H107.176V173.756H109.642V171.29Z" fill="#07040B"/>
<path d="M114.574 171.29H112.108V173.756H114.574V171.29Z" fill="#07040B"/>
<path d="M119.506 171.29H117.04V173.756H119.506V171.29Z" fill="#07040B"/>
<path d="M124.438 171.29H121.972V173.756H124.438V171.29Z" fill="#07040B"/>
<path d="M134.301 171.29H131.835V173.756H134.301V171.29Z" fill="#07040B"/>
<path d="M163.892 171.29H161.426V173.756H163.892V171.29Z" fill="#07040B"/>
<path d="M99.7784 173.756H97.3125V176.222H99.7784V173.756Z" fill="#07040B"/>
<path d="M114.574 173.756H112.108V176.222H114.574V173.756Z" fill="#07040B"/>
<path d="M121.972 173.756H119.506V176.222H121.972V173.756Z" fill="#07040B"/>
<path d="M126.903 173.756H124.438V176.222H126.903V173.756Z" fill="#07040B"/>
<path d="M129.369 173.756H126.903V176.222H129.369V173.756Z" fill="#07040B"/>
<path d="M141.699 173.756H139.233V176.222H141.699V173.756Z" fill="#07040B"/>
<path d="M149.097 173.756H146.631V176.222H149.097V173.756Z" fill="#07040B"/>
<path d="M151.562 173.756H149.097V176.222H151.562V173.756Z" fill="#07040B"/>
<path d="M156.494 173.756H154.028V176.222H156.494V173.756Z" fill="#07040B"/>
<path d="M158.96 173.756H156.494V176.222H158.96V173.756Z" fill="#07040B"/>
<path d="M161.426 173.756H158.96V176.222H161.426V173.756Z" fill="#07040B"/>
<path d="M163.892 173.756H161.426V176.222H163.892V173.756Z" fill="#07040B"/>
<path d="M166.358 173.756H163.892V176.222H166.358V173.756Z" fill="#07040B"/>
<path d="M168.824 173.756H166.358V176.222H168.824V173.756Z" fill="#07040B"/>
<path d="M171.29 173.756H168.824V176.222H171.29V173.756Z" fill="#07040B"/>
<path d="M173.756 173.756H171.29V176.222H173.756V173.756Z" fill="#07040B"/>
<path d="M99.7784 176.222H97.3125V178.688H99.7784V176.222Z" fill="#07040B"/>
<path d="M102.244 176.222H99.7784V178.688H102.244V176.222Z" fill="#07040B"/>
<path d="M104.71 176.222H102.244V178.688H104.71V176.222Z" fill="#07040B"/>
<path d="M107.176 176.222H104.71V178.688H107.176V176.222Z" fill="#07040B"/>
<path d="M109.642 176.222H107.176V178.688H109.642V176.222Z" fill="#07040B"/>
<path d="M112.108 176.222H109.642V178.688H112.108V176.222Z" fill="#07040B"/>
<path d="M114.574 176.222H112.108V178.688H114.574V176.222Z" fill="#07040B"/>
<path d="M119.506 176.222H117.04V178.688H119.506V176.222Z" fill="#07040B"/>
<path d="M121.972 176.222H119.506V178.688H121.972V176.222Z" fill="#07040B"/>
<path d="M124.438 176.222H121.972V178.688H124.438V176.222Z" fill="#07040B"/>
<path d="M131.835 176.222H129.369V178.688H131.835V176.222Z" fill="#07040B"/>
<path d="M134.301 176.222H131.835V178.688H134.301V176.222Z" fill="#07040B"/>
<path d="M139.233 176.222H136.767V178.688H139.233V176.222Z" fill="#07040B"/>
<path d="M141.699 176.222H139.233V178.688H141.699V176.222Z" fill="#07040B"/>
<path d="M144.165 176.222H141.699V178.688H144.165V176.222Z" fill="#07040B"/>
<path d="M146.631 176.222H144.165V178.688H146.631V176.222Z" fill="#07040B"/>
<path d="M149.097 176.222H146.631V178.688H149.097V176.222Z" fill="#07040B"/>
<path d="M154.028 176.222H151.562V178.688H154.028V176.222Z" fill="#07040B"/>
<path d="M156.494 176.222H154.028V178.688H156.494V176.222Z" fill="#07040B"/>
<path d="M158.96 176.222H156.494V178.688H158.96V176.222Z" fill="#07040B"/>
<path d="M161.426 176.222H158.96V178.688H161.426V176.222Z" fill="#07040B"/>
<path d="M163.892 176.222H161.426V178.688H163.892V176.222Z" fill="#07040B"/>
<path d="M171.29 176.222H168.824V178.688H171.29V176.222Z" fill="#07040B"/>
<path d="M173.756 176.222H171.29V178.688H173.756V176.222Z" fill="#07040B"/>
<path d="M178.688 176.222H176.222V178.688H178.688V176.222Z" fill="#07040B"/>
</g>
<defs>
<filter id="filter0_d_323_2854" x="0" y="0" width="276" height="276" filterUnits="userSpaceOnUse" color-interpolation-filters="sRGB">
<feFlood flood-opacity="0" result="BackgroundImageFix"/>
<feColorMatrix in="SourceAlpha" type="matrix" values="0 0 0 0 0 0 0 0 0 0 0 0 0 0 0 0 0 0 127 0" result="hardAlpha"/>
<feOffset/>
<feGaussianBlur stdDeviation="39"/>
<feComposite in2="hardAlpha" operator="out"/>
<feColorMatrix type="matrix" values="0 0 0 0 0.768627 0 0 0 0 0.309804 0 0 0 0 0.886275 0 0 0 0.25 0"/>
<feBlend mode="normal" in2="BackgroundImageFix" result="effect1_dropShadow_323_2854"/>
<feBlend mode="normal" in="SourceGraphic" in2="effect1_dropShadow_323_2854" result="shape"/>
</filter>
<filter id="filter1_d_323_2854" x="87.8529" y="91.5" width="100.294" height="100.294" filterUnits="userSpaceOnUse" color-interpolation-filters="sRGB">
<feFlood flood-opacity="0" result="BackgroundImageFix"/>
<feColorMatrix in="SourceAlpha" type="matrix" values="0 0 0 0 0 0 0 0 0 0 0 0 0 0 0 0 0 0 127 0" result="hardAlpha"/>
<feOffset dy="3.64706"/>
<feGaussianBlur stdDeviation="1.82353"/>
<feComposite in2="hardAlpha" operator="out"/>
<feColorMatrix type="matrix" values="0 0 0 0 0 0 0 0 0 0 0 0 0 0 0 0 0 0 0.25 0"/>
<feBlend mode="normal" in2="BackgroundImageFix" result="effect1_dropShadow_323_2854"/>
<feBlend mode="normal" in="SourceGraphic" in2="effect1_dropShadow_323_2854" result="shape"/>
</filter>
<radialGradient id="paint0_radial_323_2854" cx="0" cy="0" r="1" gradientUnits="userSpaceOnUse" gradientTransform="translate(93 88) rotate(43.2708) scale(187.469)">
<stop stop-color="#AEA6C9" stop-opacity="0.75"/>
<stop offset="0.754883" stop-color="#07040B"/>
</radialGradient>
<linearGradient id="paint1_linear_323_2854" x1="100.5" y1="93.5" x2="89" y2="78.5" gradientUnits="userSpaceOnUse">
<stop stop-color="#AEA6C9" stop-opacity="0"/>
<stop offset="1" stop-color="#AEA6C9"/>
</linearGradient>
<linearGradient id="paint2_linear_323_2854" x1="174.5" y1="176" x2="194.5" y2="187.5" gradientUnits="userSpaceOnUse">
<stop stop-color="#AEA6C9" stop-opacity="0"/>
<stop offset="1" stop-color="#AEA6C9" stop-opacity="0.75"/>
</linearGradient>
<clipPath id="clip0_323_2854">
<rect x="91.5" y="91.5" width="93" height="93" rx="4" fill="white"/>
</clipPath>
</defs>
</svg>
