<svg width="24" height="24" viewBox="0 0 24 24" fill="none" xmlns="http://www.w3.org/2000/svg">
<path d="M8.72845 15.7551C8.9533 15.9147 9.22206 16.0008 9.49782 16.0015C9.77357 16.0022 10.0428 15.9175 10.2685 15.7591C10.4705 15.6151 10.6295 15.4181 10.7265 15.1896L11.3444 13.3051C11.4956 12.8508 11.7505 12.4381 12.089 12.0996C12.4275 11.7611 12.8402 11.5062 13.2945 11.3551L15.11 10.7636C15.3705 10.6717 15.5961 10.5012 15.7557 10.2758C15.9152 10.0503 16.0009 9.78081 16.0009 9.50456C16.0009 9.22831 15.9152 8.95886 15.7557 8.73337C15.5961 8.50787 15.3705 8.33744 15.11 8.24556L13.26 7.64906C12.8072 7.4975 12.3958 7.2431 12.0579 6.90581C11.72 6.56852 11.4648 6.15752 11.3125 5.70506L10.723 3.89056C10.6313 3.62993 10.4607 3.40432 10.235 3.24506C10.0083 3.08819 9.7393 3.00415 9.4637 3.00415C9.1881 3.00415 8.91905 3.08819 8.69245 3.24506C8.46271 3.40776 8.29004 3.63868 8.19895 3.90506L7.60245 5.73856C7.45091 6.1795 7.2014 6.58036 6.87266 6.911C6.54392 7.24165 6.14451 7.49347 5.70445 7.64756L3.89095 8.23656C3.62904 8.32882 3.40242 8.50046 3.24264 8.72757C3.08286 8.95469 2.99788 9.22597 2.99954 9.50365C3.00119 9.78133 3.08938 10.0516 3.25185 10.2768C3.41432 10.502 3.64296 10.6709 3.90595 10.7601L5.69945 11.3426C6.15382 11.4951 6.56656 11.7511 6.90512 12.0904C7.24369 12.4296 7.49883 12.8429 7.65045 13.2976L8.24045 15.1091C8.33195 15.3696 8.50245 15.5956 8.72795 15.7551M16.437 20.3211C16.6013 20.4375 16.7976 20.5002 16.999 20.5006L17.0014 20.5021C17.2052 20.5016 17.4038 20.4373 17.5692 20.3182C17.7345 20.1991 17.8584 20.0312 17.9235 19.8381L18.208 18.9631C18.2663 18.7884 18.3643 18.6297 18.4944 18.4994C18.6244 18.3691 18.7829 18.2707 18.9575 18.2121L19.8525 17.9211C19.9942 17.8709 20.1224 17.7886 20.227 17.6806C20.3316 17.5725 20.4097 17.4417 20.4553 17.2984C20.5008 17.1551 20.5125 17.0032 20.4895 16.8546C20.4664 16.7061 20.4093 16.5648 20.3225 16.4421C20.199 16.2691 20.0226 16.141 19.82 16.0771L18.9415 15.7926C18.767 15.7341 18.6084 15.6359 18.4783 15.5057C18.3481 15.3756 18.25 15.2171 18.1915 15.0426L17.9004 14.1481C17.8333 13.9567 17.708 13.7912 17.5422 13.6746C17.3763 13.558 17.1781 13.4962 16.9753 13.4979C16.7726 13.4995 16.5754 13.5646 16.4115 13.6838C16.2475 13.8031 16.1249 13.9707 16.061 14.1631L15.775 15.0416C15.7182 15.2135 15.6229 15.3702 15.4964 15.4997C15.3699 15.6292 15.2155 15.7282 15.045 15.7891L14.15 16.0801C13.9587 16.1471 13.7933 16.2723 13.6767 16.438C13.5602 16.6038 13.4984 16.8019 13.4999 17.0045C13.5015 17.2071 13.5665 17.4042 13.6856 17.5681C13.8048 17.732 13.9722 17.8545 14.1645 17.9186L15.0405 18.2036C15.2155 18.262 15.3744 18.3605 15.5046 18.4913C15.6348 18.622 15.7327 18.7813 15.7905 18.9566L16.0814 19.8506C16.1484 20.0406 16.273 20.2051 16.437 20.3211Z" fill="url(#paint0_radial_166_861)"/>
<defs>
<radialGradient id="paint0_radial_166_861" cx="0" cy="0" r="1" gradientUnits="userSpaceOnUse" gradientTransform="translate(11.7502 11.7531) rotate(90) scale(8.74895 8.75072)">
<stop stop-color="#B3EDFF"/>
<stop offset="1" stop-color="#00C2FF"/>
</radialGradient>
</defs>
</svg>
