<svg width="24" height="24" viewBox="0 0 24 24" fill="none" xmlns="http://www.w3.org/2000/svg">
<path d="M13.4419 1.67353C13.3494 1.59666 13.2398 1.54315 13.1224 1.5175C13.0049 1.49186 12.883 1.49483 12.7669 1.52617C12.6508 1.55751 12.544 1.6163 12.4554 1.69758C12.3668 1.77887 12.299 1.88026 12.2578 1.99322L10.1953 7.65665L7.93031 5.46197C7.85425 5.38819 7.76341 5.33137 7.66379 5.29525C7.56417 5.25913 7.45802 5.24453 7.35235 5.25241C7.24667 5.2603 7.14387 5.29048 7.05071 5.34099C6.95755 5.39149 6.87615 5.46116 6.81188 5.5454C4.78125 8.20603 3.75 10.8826 3.75 13.5001C3.75 15.6881 4.61919 17.7865 6.16637 19.3337C7.71354 20.8809 9.81196 21.7501 12 21.7501C14.188 21.7501 16.2865 20.8809 17.8336 19.3337C19.3808 17.7865 20.25 15.6881 20.25 13.5001C20.25 7.92665 15.4884 3.37509 13.4419 1.67353ZM17.2397 14.3757C17.0452 15.462 16.5226 16.4626 15.7422 17.2429C14.9618 18.0231 13.961 18.5455 12.8747 18.7398C12.8335 18.7468 12.7918 18.7503 12.75 18.7501C12.5619 18.75 12.3806 18.6793 12.2422 18.5519C12.1038 18.4244 12.0183 18.2497 12.0028 18.0622C11.9872 17.8747 12.0426 17.6882 12.1581 17.5397C12.2736 17.3912 12.4407 17.2915 12.6262 17.2604C14.1797 16.9988 15.4978 15.6807 15.7612 14.1245C15.7946 13.9283 15.9045 13.7534 16.0667 13.6382C16.229 13.5231 16.4304 13.4771 16.6266 13.5104C16.8227 13.5437 16.9976 13.6536 17.1128 13.8159C17.228 13.9782 17.2739 14.1795 17.2406 14.3757H17.2397Z" fill="url(#paint0_linear_166_857)"/>
<defs>
<linearGradient id="paint0_linear_166_857" x1="12" y1="1.50024" x2="12" y2="21.7501" gradientUnits="userSpaceOnUse">
<stop stop-color="#DE913E"/>
<stop offset="1" stop-color="#C4342B"/>
</linearGradient>
</defs>
</svg>
