<svg width="18" height="18" viewBox="0 0 18 18" fill="none" xmlns="http://www.w3.org/2000/svg">
<path d="M15.0188 14.0783C15.0223 14.073 15.0275 14.0678 15.0311 14.0625C16.1824 12.6932 16.875 10.9283 16.875 9C16.875 7.07168 16.1824 5.30684 15.0328 3.9375C15.0293 3.93223 15.024 3.92871 15.0205 3.92344C15.0012 3.90059 14.9836 3.87949 14.9643 3.8584C14.9572 3.84961 14.9502 3.84258 14.9432 3.83379L14.8711 3.75117L14.8693 3.74941C14.843 3.71953 14.8148 3.68965 14.7885 3.65977L14.7867 3.65801C14.7305 3.59824 14.6742 3.53848 14.6162 3.48047L14.6145 3.47871L14.5301 3.39434L14.5248 3.38906C14.4984 3.3627 14.4721 3.33809 14.4457 3.31348C14.4369 3.30469 14.4281 3.2959 14.4176 3.28711C14.4 3.26953 14.3824 3.25371 14.3648 3.23789C14.3596 3.23262 14.3525 3.22734 14.3473 3.22031C12.9445 1.91953 11.0654 1.125 9 1.125C6.93457 1.125 5.05547 1.91953 3.65098 3.22031C3.6457 3.22559 3.63867 3.23086 3.6334 3.23789C3.61582 3.25371 3.59824 3.27129 3.58066 3.28887C3.57187 3.29766 3.56309 3.30645 3.55254 3.31523C3.52617 3.33984 3.4998 3.36621 3.47344 3.39082L3.46816 3.39609L3.38379 3.48047L3.38203 3.48223C3.32402 3.54023 3.26777 3.6 3.21152 3.65977L3.20977 3.66152C3.18164 3.69141 3.15527 3.72129 3.12891 3.75117L3.12715 3.75293C3.10254 3.7793 3.07793 3.80742 3.05508 3.83555C3.04805 3.84434 3.04102 3.85137 3.03398 3.86016C3.01465 3.88125 2.99707 3.9041 2.97773 3.9252C2.97422 3.93047 2.96895 3.93398 2.96543 3.93926C1.81758 5.30684 1.125 7.07168 1.125 9C1.125 10.9283 1.81758 12.6932 2.96719 14.0625C2.9707 14.0678 2.97598 14.073 2.97949 14.0783L3.03398 14.1434C3.04102 14.1521 3.04805 14.1592 3.05508 14.168L3.12715 14.2506C3.12715 14.2523 3.12891 14.2523 3.12891 14.2541C3.15527 14.284 3.18164 14.3139 3.20977 14.342L3.21152 14.3438C3.26777 14.4035 3.32402 14.4633 3.38027 14.5213L3.38203 14.523C3.41016 14.5512 3.43652 14.5793 3.46465 14.6057L3.46992 14.6109C3.52793 14.6689 3.5877 14.7252 3.64746 14.7797C5.05547 16.0805 6.93457 16.875 9 16.875C11.0654 16.875 12.9445 16.0805 14.349 14.7797C14.4089 14.7248 14.4675 14.6685 14.5248 14.6109L14.5301 14.6057C14.5582 14.5775 14.5863 14.5512 14.6127 14.523L14.6145 14.5213C14.6725 14.4633 14.7287 14.4035 14.7832 14.3438L14.785 14.342C14.8113 14.3121 14.8395 14.284 14.8658 14.2541C14.8658 14.2523 14.8676 14.2523 14.8676 14.2506C14.8922 14.2242 14.9168 14.1961 14.9396 14.168C14.9467 14.1592 14.9537 14.1521 14.9607 14.1434C14.9806 14.1222 15 14.1005 15.0188 14.0783ZM15.0908 11.5717C14.8482 12.1447 14.5283 12.6756 14.1381 13.1572C13.6986 12.7774 13.2181 12.4478 12.7055 12.1746C12.9094 11.3502 13.0359 10.4449 13.0693 9.49219H15.5918C15.5391 10.2111 15.3703 10.909 15.0908 11.5717ZM15.5918 8.50781H13.0693C13.0359 7.55508 12.9094 6.6498 12.7055 5.82539C13.2205 5.55117 13.7004 5.2207 14.1381 4.84277C14.9864 5.88687 15.4938 7.16614 15.5918 8.50781ZM11.5717 2.90918C12.2695 3.20449 12.9041 3.6123 13.4631 4.12559C13.1384 4.40208 12.7888 4.64804 12.4189 4.86035C12.143 4.06934 11.7896 3.38203 11.3783 2.83184C11.4434 2.85645 11.5084 2.88281 11.5717 2.90918ZM9.9791 15.2244C9.81738 15.351 9.65566 15.4477 9.49219 15.5127V12.252C10.1897 12.3006 10.8756 12.4559 11.526 12.7125C11.3801 13.1449 11.2113 13.5439 11.0162 13.9043C10.7104 14.4738 10.3518 14.9291 9.9791 15.2244ZM11.0162 4.0957C11.2096 4.45781 11.3801 4.85684 11.526 5.2875C10.8756 5.54406 10.1897 5.69939 9.49219 5.74805V2.48906C9.65391 2.5541 9.81738 2.64902 9.9791 2.77734C10.3518 3.0709 10.7104 3.52617 11.0162 4.0957ZM9.49219 11.2658V9.49219H12.085C12.0568 10.2691 11.9602 11.0232 11.7984 11.7387L11.7932 11.7598C11.0555 11.48 10.2797 11.3135 9.49219 11.2658ZM9.49219 8.50781V6.73418C10.2973 6.68496 11.0707 6.51445 11.7932 6.24023L11.7984 6.26133C11.9602 6.97676 12.0568 7.7291 12.085 8.50781H9.49219ZM8.50781 9.49219V11.2658C7.70273 11.315 6.9293 11.4855 6.20684 11.7598L6.20156 11.7387C6.03984 11.0232 5.94316 10.2709 5.91504 9.49219H8.50781ZM5.91504 8.50781C5.94316 7.73086 6.03984 6.97676 6.20156 6.26133L6.20684 6.24023C6.9293 6.51445 7.70098 6.68496 8.50781 6.73418V8.50781H5.91504ZM8.50781 12.252V15.5109C8.34609 15.4459 8.18262 15.351 8.0209 15.2227C7.64824 14.9291 7.28789 14.4721 6.98203 13.9025C6.78867 13.5404 6.61816 13.1414 6.47227 12.7107C7.12617 12.4541 7.80645 12.3012 8.50781 12.252ZM8.50781 5.74805C7.81033 5.69939 7.12443 5.54406 6.47402 5.2875C6.61992 4.85508 6.78867 4.45605 6.98379 4.0957C7.28965 3.52617 7.64824 3.06914 8.02266 2.77559C8.18437 2.64902 8.34609 2.55234 8.50957 2.4873V5.74805H8.50781ZM6.42832 2.90918C6.49336 2.88281 6.55664 2.85645 6.62168 2.83184C6.21035 3.38203 5.85703 4.06934 5.58105 4.86035C5.21191 4.64941 4.86211 4.40332 4.53691 4.12559C5.0959 3.6123 5.73047 3.20449 6.42832 2.90918ZM2.90918 6.42832C3.15176 5.85527 3.47168 5.32441 3.86191 4.84277C4.29961 5.2207 4.77949 5.55117 5.29453 5.82539C5.09063 6.6498 4.96406 7.55508 4.93066 8.50781H2.4082C2.46094 7.78887 2.62969 7.09102 2.90918 6.42832ZM2.4082 9.49219H4.93066C4.96406 10.4449 5.09063 11.3502 5.29453 12.1746C4.78191 12.4478 4.3014 12.7774 3.86191 13.1572C3.01365 12.1131 2.50623 10.8339 2.4082 9.49219ZM6.42832 15.0908C5.73047 14.7955 5.0959 14.3877 4.53691 13.8744C4.86211 13.5967 5.21191 13.3523 5.58105 13.1396C5.85703 13.9307 6.21035 14.618 6.62168 15.1682C6.55664 15.1436 6.4916 15.1172 6.42832 15.0908ZM11.5717 15.0908C11.5066 15.1172 11.4434 15.1436 11.3783 15.1682C11.7896 14.618 12.143 13.9307 12.4189 13.1396C12.7881 13.3506 13.1379 13.5967 13.4631 13.8744C12.9072 14.3856 12.2674 14.7971 11.5717 15.0908Z" fill="#EFEFEF"/>
</svg>
