<svg width="15" height="16" viewBox="0 0 15 16" fill="none" xmlns="http://www.w3.org/2000/svg">
<path d="M0.46967 13.9697C0.176777 14.2626 0.176777 14.7374 0.46967 15.0303C0.762563 15.3232 1.23744 15.3232 1.53033 15.0303L0.46967 13.9697ZM14.75 1.5C14.75 1.08579 14.4142 0.75 14 0.749999L7.25 0.75C6.83579 0.75 6.5 1.08579 6.5 1.5C6.5 1.91421 6.83579 2.25 7.25 2.25L13.25 2.25L13.25 8.25C13.25 8.66421 13.5858 9 14 9C14.4142 9 14.75 8.66421 14.75 8.25L14.75 1.5ZM1.53033 15.0303L14.5303 2.03033L13.4697 0.96967L0.46967 13.9697L1.53033 15.0303Z" fill="#FFF37B"/>
</svg>
