<svg width="15" height="15" viewBox="0 0 15 15" fill="none" xmlns="http://www.w3.org/2000/svg">
<path d="M0.46967 13.4697C0.176777 13.7626 0.176777 14.2374 0.46967 14.5303C0.762563 14.8232 1.23744 14.8232 1.53033 14.5303L0.46967 13.4697ZM14.75 0.999999C14.75 0.585786 14.4142 0.25 14 0.249999L7.25 0.25C6.83579 0.25 6.5 0.585786 6.5 1C6.5 1.41421 6.83579 1.75 7.25 1.75L13.25 1.75L13.25 7.75C13.25 8.16421 13.5858 8.5 14 8.5C14.4142 8.5 14.75 8.16421 14.75 7.75L14.75 0.999999ZM1.53033 14.5303L14.5303 1.53033L13.4697 0.46967L0.46967 13.4697L1.53033 14.5303Z" fill="url(#paint0_linear_166_865)"/>
<defs>
<linearGradient id="paint0_linear_166_865" x1="1.35355" y1="14.3536" x2="14.3536" y2="1.35355" gradientUnits="userSpaceOnUse">
<stop stop-color="#479547"/>
<stop offset="1" stop-color="#77FB77"/>
</linearGradient>
</defs>
</svg>
