<svg width="20" height="20" viewBox="0 0 20 20" fill="none" xmlns="http://www.w3.org/2000/svg">
<path d="M9.17188 14.166H10.8385V9.16602H9.17188V14.166ZM10.0052 7.49935C10.2413 7.49935 10.4394 7.41935 10.5994 7.25935C10.7594 7.09935 10.8391 6.90157 10.8385 6.66602C10.838 6.43046 10.758 6.23268 10.5985 6.07268C10.4391 5.91268 10.2413 5.83268 10.0052 5.83268C9.7691 5.83268 9.57132 5.91268 9.41188 6.07268C9.25243 6.23268 9.17243 6.43046 9.17188 6.66602C9.17132 6.90157 9.25132 7.09963 9.41188 7.26018C9.57243 7.42074 9.77021 7.50046 10.0052 7.49935ZM10.0052 18.3327C8.85243 18.3327 7.7691 18.1138 6.75521 17.676C5.74132 17.2382 4.85938 16.6446 4.10938 15.8952C3.35938 15.1457 2.76576 14.2638 2.32854 13.2493C1.89132 12.2349 1.67243 11.1516 1.67188 9.99935C1.67132 8.84713 1.89021 7.76379 2.32854 6.74935C2.76688 5.73491 3.36049 4.85296 4.10938 4.10352C4.85826 3.35407 5.74021 2.76046 6.75521 2.32268C7.77021 1.8849 8.85354 1.66602 10.0052 1.66602C11.1569 1.66602 12.2402 1.8849 13.2552 2.32268C14.2702 2.76046 15.1522 3.35407 15.901 4.10352C16.6499 4.85296 17.2438 5.73491 17.6827 6.74935C18.1216 7.76379 18.3402 8.84713 18.3385 9.99935C18.3369 11.1516 18.118 12.2349 17.6819 13.2493C17.2458 14.2638 16.6522 15.1457 15.901 15.8952C15.1499 16.6446 14.268 17.2385 13.2552 17.6768C12.2424 18.1152 11.1591 18.3338 10.0052 18.3327Z" fill="#928E96"/>
</svg>
