<svg width="1548" height="1437" viewBox="0 0 1548 1437" fill="none" xmlns="http://www.w3.org/2000/svg">
<path fill-rule="evenodd" clip-rule="evenodd" d="M95.3745 1168.51V1255.81H0V1258.3H95.3745V1345.6H0V1348.09H95.3745V1436.63H98.0611V1348.09H192.092V1436.63H194.779V1348.09H288.81V1436.63H291.497V1348.09H385.528V1436.63H388.215V1348.09H482.246V1436.63H484.932V1348.09H578.963V1436.63H581.65V1348.09H675.681V1436.63H678.368V1348.09H772.399V1436.63H775.086V1348.09H869.117V1436.63H871.803V1348.09H965.835V1436.63H968.521V1348.09H1062.55V1436.63H1065.24V1348.09H1159.27V1436.63H1161.96V1348.09H1255.99V1436.63H1258.67V1348.09H1352.71V1436.63H1355.39V1348.09H1449.42V1436.63H1452.11V1348.09H1547.48V1345.6H1452.11V1258.3H1547.48V1255.81H1452.11V1168.51H1547.48V1166.02H1452.11V1078.72H1547.48V1076.23H1452.11V988.932H1547.48V986.438H1452.11V899.143H1547.48V896.649H1452.11V809.353H1547.48V806.859H1452.11V719.564H1547.48V717.07H1452.11V629.774H1547.48V627.28H1452.11V539.984H1547.48V537.49H1452.11V450.195H1547.48V447.701H1452.11V360.405H1547.48V357.911H1452.11V270.616H1547.48V268.122H1452.11V180.826H1547.48V178.332H1452.11V91.0367H1547.48V88.5425H1452.11V0H1449.42V88.5425H1355.39V0H1352.71V88.5425H1258.67V0H1255.99V88.5425H1161.96V0H1159.27V88.5425H1065.24V0H1062.55V88.5425H968.521V0H965.835V88.5425H871.803V0H869.117V88.5425H775.086V0H772.399V88.5425H678.368V0H675.681V88.5424H581.65V0H578.963V88.5424H484.932V0H482.246V88.5424H388.215V0H385.528V88.5424H291.497V0H288.81V88.5424H194.779V0H192.092V88.5424H98.0611V0H95.3745V88.5424H0V91.0366H95.3745V178.332H0V180.826H95.3745V268.122H0V270.616H95.3745V357.911H0V360.405H95.3745V447.701H0V450.195H95.3745V537.49H0V539.984H95.3745V627.28H0V629.774H95.3745V717.069H0V719.564H95.3745V806.859H0V809.353H95.3745V896.649H0V899.143H95.3745V986.438H0V988.932H95.3745V1076.23H0V1078.72H95.3745V1166.02H0V1168.51H95.3745ZM1449.42 1345.6V1258.3H1355.39V1345.6H1449.42ZM1352.71 1345.6V1258.3H1258.67V1345.6H1352.71ZM1255.99 1345.6V1258.3H1161.96V1345.6H1255.99ZM1159.27 1345.6V1258.3H1065.24V1345.6H1159.27ZM1062.55 1345.6V1258.3H968.521V1345.6H1062.55ZM965.835 1345.6V1258.3H871.803V1345.6H965.835ZM869.117 1345.6V1258.3H775.086V1345.6H869.117ZM772.399 1345.6V1258.3H678.368V1345.6H772.399ZM675.681 1345.6V1258.3H581.65V1345.6H675.681ZM578.963 1345.6V1258.3H484.932V1345.6H578.963ZM482.246 1345.6V1258.3H388.215V1345.6H482.246ZM385.528 1345.6V1258.3H291.497V1345.6H385.528ZM288.81 1345.6V1258.3H194.779V1345.6H288.81ZM192.092 1345.6V1258.3H98.0611V1345.6H192.092ZM192.092 1255.81H98.0611V1168.51H192.092V1255.81ZM288.81 1255.81H194.779V1168.51H288.81V1255.81ZM385.528 1255.81H291.497V1168.51H385.528V1255.81ZM482.246 1255.81H388.215V1168.51H482.246V1255.81ZM578.963 1255.81H484.932V1168.51H578.963V1255.81ZM675.681 1255.81H581.65V1168.51H675.681V1255.81ZM772.399 1255.81H678.368V1168.51H772.399V1255.81ZM869.117 1255.81H775.086V1168.51H869.117V1255.81ZM965.835 1255.81H871.803V1168.51H965.835V1255.81ZM1062.55 1255.81H968.521V1168.51H1062.55V1255.81ZM1159.27 1255.81H1065.24V1168.51H1159.27V1255.81ZM1255.99 1255.81H1161.96V1168.51H1255.99V1255.81ZM1352.71 1255.81H1258.67V1168.51H1352.71V1255.81ZM1449.42 1255.81H1355.39V1168.51H1449.42V1255.81ZM1449.42 91.0366H1355.39V178.332H1449.42V91.0366ZM1449.42 180.826H1355.39V268.122H1449.42V180.826ZM1449.42 270.616H1355.39V357.911H1449.42V270.616ZM1449.42 360.405H1355.39V447.701H1449.42V360.405ZM1449.42 450.195H1355.39V537.49H1449.42V450.195ZM1449.42 539.984H1355.39V627.28H1449.42V539.984ZM1449.42 629.774H1355.39V717.07H1449.42V629.774ZM1449.42 719.564H1355.39V806.859H1449.42V719.564ZM1449.42 809.353H1355.39V896.649H1449.42V809.353ZM1449.42 899.143H1355.39V986.438H1449.42V899.143ZM1449.42 988.932H1355.39V1076.23H1449.42V988.932ZM1449.42 1078.72H1355.39V1166.02H1449.42V1078.72ZM1352.71 1078.72V1166.02H1258.67V1078.72H1352.71ZM1352.71 988.932V1076.23H1258.67V988.932H1352.71ZM1352.71 899.143V986.438H1258.67V899.143H1352.71ZM1352.71 809.353V896.649H1258.67V809.353H1352.71ZM1352.71 719.564V806.859H1258.67V719.564H1352.71ZM1352.71 629.774V717.07H1258.67V629.774H1352.71ZM1352.71 539.984V627.28H1258.67V539.984H1352.71ZM1352.71 450.195V537.49H1258.67V450.195H1352.71ZM1352.71 360.405V447.701H1258.67V360.405H1352.71ZM1352.71 270.616V357.911H1258.67V270.616H1352.71ZM1352.71 180.826V268.122H1258.67V180.826H1352.71ZM1352.71 91.0366V178.332H1258.67V91.0366H1352.71ZM98.0611 1166.02H192.092V1078.72H98.0611V1166.02ZM194.779 1166.02H288.81V1078.72H194.779V1166.02ZM291.497 1166.02H385.528V1078.72H291.497V1166.02ZM388.215 1166.02H482.246V1078.72H388.215V1166.02ZM484.932 1166.02H578.963V1078.72H484.932V1166.02ZM581.65 1166.02H675.681V1078.72H581.65V1166.02ZM678.368 1166.02H772.399V1078.72H678.368V1166.02ZM775.086 1166.02H869.117V1078.72H775.086V1166.02ZM871.803 1166.02H965.835V1078.72H871.803V1166.02ZM968.521 1166.02H1062.55V1078.72H968.521V1166.02ZM1065.24 1166.02H1159.27V1078.72H1065.24V1166.02ZM1161.96 1166.02H1255.99V1078.72H1161.96V1166.02ZM1255.99 988.932V1076.23H1161.96V988.932H1255.99ZM1255.99 899.143V986.438H1161.96V899.143H1255.99ZM1255.99 809.353V896.649H1161.96V809.353H1255.99ZM1255.99 719.564V806.859H1161.96V719.564H1255.99ZM1255.99 629.774V717.07H1161.96V629.774H1255.99ZM1255.99 539.984V627.28H1161.96V539.984H1255.99ZM1255.99 450.195V537.49H1161.96V450.195H1255.99ZM1255.99 360.405V447.701H1161.96V360.405H1255.99ZM1255.99 270.616V357.911H1161.96V270.616H1255.99ZM1255.99 180.826V268.122H1161.96V180.826H1255.99ZM1255.99 91.0366V178.332H1161.96V91.0366H1255.99ZM98.0611 1076.23H192.092V988.932H98.0611V1076.23ZM194.779 1076.23H288.81V988.932H194.779V1076.23ZM291.497 1076.23H385.528V988.932H291.497V1076.23ZM388.215 1076.23H482.246V988.932H388.215V1076.23ZM484.932 1076.23H578.963V988.932H484.932V1076.23ZM581.65 1076.23H675.681V988.932H581.65V1076.23ZM678.368 1076.23H772.399V988.932H678.368V1076.23ZM775.086 1076.23H869.117V988.932H775.086V1076.23ZM871.803 1076.23H965.835V988.932H871.803V1076.23ZM968.521 1076.23H1062.55V988.932H968.521V1076.23ZM1065.24 1076.23H1159.27V988.932H1065.24V1076.23ZM1159.27 899.143V986.438H1065.24V899.143H1159.27ZM1159.27 809.353V896.649H1065.24V809.353H1159.27ZM1159.27 719.564V806.859H1065.24V719.564H1159.27ZM1159.27 629.774V717.07H1065.24V629.774H1159.27ZM1159.27 539.984V627.28H1065.24V539.984H1159.27ZM1159.27 450.195V537.49H1065.24V450.195H1159.27ZM1159.27 360.405V447.701H1065.24V360.405H1159.27ZM1159.27 270.616V357.911H1065.24V270.616H1159.27ZM1159.27 180.826V268.122H1065.24V180.826H1159.27ZM1159.27 91.0366V178.332H1065.24V91.0366H1159.27ZM98.0611 986.438H192.092V899.143H98.0611V986.438ZM194.779 986.438H288.81V899.143H194.779V986.438ZM291.497 986.438H385.528V899.143H291.497V986.438ZM388.215 986.438H482.246V899.143H388.215V986.438ZM484.932 986.438H578.963V899.143H484.932V986.438ZM581.65 986.438H675.681V899.143H581.65V986.438ZM678.368 986.438H772.399V899.143H678.368V986.438ZM775.086 986.438H869.117V899.143H775.086V986.438ZM871.803 986.438H965.835V899.143H871.803V986.438ZM968.521 986.438H1062.55V899.143H968.521V986.438ZM1062.55 809.353V896.649H968.521V809.353H1062.55ZM1062.55 719.564V806.859H968.521V719.564H1062.55ZM1062.55 629.774V717.07H968.521V629.774H1062.55ZM1062.55 539.984V627.28H968.521V539.984H1062.55ZM1062.55 450.195V537.49H968.521V450.195H1062.55ZM1062.55 360.405V447.701H968.521V360.405H1062.55ZM1062.55 270.616V357.911H968.521V270.616H1062.55ZM1062.55 180.826V268.122H968.521V180.826H1062.55ZM1062.55 91.0366V178.332H968.521V91.0366H1062.55ZM98.0611 896.649H192.092V809.353H98.0611V896.649ZM194.779 896.649H288.81V809.353H194.779V896.649ZM291.497 896.649H385.528V809.353H291.497V896.649ZM388.215 896.649H482.246V809.353H388.215V896.649ZM484.932 896.649H578.963V809.353H484.932V896.649ZM581.65 896.649H675.681V809.353H581.65V896.649ZM678.368 896.649H772.399V809.353H678.368V896.649ZM775.086 896.649H869.117V809.353H775.086V896.649ZM871.803 896.649H965.835V809.353H871.803V896.649ZM965.835 719.564V806.859H871.803V719.564H965.835ZM965.835 629.774V717.07H871.803V629.774H965.835ZM965.835 539.984V627.28H871.803V539.984H965.835ZM965.835 450.195V537.49H871.803V450.195H965.835ZM965.835 360.405V447.701H871.803V360.405H965.835ZM965.835 270.616V357.911H871.803V270.616H965.835ZM965.835 180.826V268.122H871.803V180.826H965.835ZM965.835 91.0366V178.332H871.803V91.0366H965.835ZM98.0611 806.859H192.092V719.564H98.0611V806.859ZM194.779 806.859H288.81V719.564H194.779V806.859ZM291.497 806.859H385.528V719.564H291.497V806.859ZM388.215 806.859H482.246V719.564H388.215V806.859ZM484.932 806.859H578.963V719.564H484.932V806.859ZM581.65 806.859H675.681V719.564H581.65V806.859ZM678.368 806.859H772.399V719.564H678.368V806.859ZM775.086 806.859H869.117V719.564H775.086V806.859ZM869.117 629.774V717.07H775.086V629.774H869.117ZM869.117 539.984V627.28H775.086V539.984H869.117ZM869.117 450.195V537.49H775.086V450.195H869.117ZM869.117 360.405V447.701H775.086V360.405H869.117ZM869.117 270.616V357.911H775.086V270.616H869.117ZM869.117 180.826V268.122H775.086V180.826H869.117ZM869.117 91.0366V178.332H775.086V91.0366H869.117ZM98.0611 717.069H192.092V629.774H98.0611V717.069ZM194.779 717.069H288.81V629.774H194.779V717.069ZM291.497 717.069H385.528V629.774H291.497V717.069ZM388.215 717.069H482.246V629.774H388.215V717.069ZM484.932 717.069H578.963V629.774H484.932V717.069ZM581.65 717.069H675.681V629.774H581.65V717.069ZM678.368 717.069H772.399V629.774H678.368V717.069ZM772.399 539.984V627.28H678.368V539.984H772.399ZM772.399 450.195V537.49H678.368V450.195H772.399ZM772.399 360.405V447.701H678.368V360.405H772.399ZM772.399 270.616V357.911H678.368V270.616H772.399ZM772.399 180.826V268.122H678.368V180.826H772.399ZM772.399 91.0366V178.332H678.368V91.0366H772.399ZM98.0611 627.28H192.092V539.984H98.0611V627.28ZM194.779 627.28H288.81V539.984H194.779V627.28ZM291.497 627.28H385.528V539.984H291.497V627.28ZM388.215 627.28H482.246V539.984H388.215V627.28ZM484.932 627.28H578.963V539.984H484.932V627.28ZM581.65 627.28H675.681V539.984H581.65V627.28ZM675.681 450.195V537.49H581.65V450.195H675.681ZM675.681 360.405V447.701H581.65V360.405H675.681ZM675.681 270.616V357.911H581.65V270.616H675.681ZM675.681 180.826V268.122H581.65V180.826H675.681ZM675.681 91.0366V178.332H581.65V91.0366H675.681ZM98.0611 537.49H192.092V450.195H98.0611V537.49ZM194.779 537.49H288.81V450.195H194.779V537.49ZM291.497 537.49H385.528V450.195H291.497V537.49ZM388.215 537.49H482.246V450.195H388.215V537.49ZM484.932 537.49H578.963V450.195H484.932V537.49ZM578.963 360.405V447.701H484.932V360.405H578.963ZM578.963 270.616V357.911H484.932V270.616H578.963ZM578.963 180.826V268.122H484.932V180.826H578.963ZM578.963 91.0366V178.332H484.932V91.0366H578.963ZM98.0611 447.701H192.092V360.405H98.0611V447.701ZM194.779 447.701H288.81V360.405H194.779V447.701ZM291.497 447.701H385.528V360.405H291.497V447.701ZM388.215 447.701H482.246V360.405H388.215V447.701ZM482.246 270.616V357.911H388.215V270.616H482.246ZM482.246 180.826V268.122H388.215V180.826H482.246ZM482.246 91.0366V178.332H388.215V91.0366H482.246ZM98.0611 357.911H192.092V270.616H98.0611V357.911ZM194.779 357.911H288.81V270.616L194.779 270.616V357.911ZM291.497 357.911H385.528V270.616H291.497V357.911ZM385.528 180.826V268.122H291.497V180.826H385.528ZM385.528 91.0366V178.332H291.497V91.0366H385.528ZM98.0611 268.122H192.092V180.826H98.0611V268.122ZM194.779 268.122L288.81 268.122V180.826H194.779V268.122ZM288.81 91.0366V178.332H194.779V91.0366H288.81ZM98.0611 178.332H192.092V91.0366H98.0611V178.332Z" fill="url(#paint0_radial_33_2762)"/>
<defs>
<radialGradient id="paint0_radial_33_2762" cx="0" cy="0" r="1" gradientUnits="userSpaceOnUse" gradientTransform="translate(773.742 718.317) rotate(90) scale(718.317 773.742)">
<stop stop-color="#640DFB"/>
<stop offset="1" stop-color="#640DFB" stop-opacity="0"/>
</radialGradient>
</defs>
</svg>
