<svg width="20" height="20" viewBox="0 0 20 20" fill="none" xmlns="http://www.w3.org/2000/svg">
<path d="M7.30826 12.025L8.64993 12.6249C9.50826 13.0083 10.4916 13.0083 11.3583 12.6249L12.6999 12.025C13.8999 11.4916 15.0083 12.9416 14.1749 13.9583L11.2916 17.4833C10.5833 18.3499 9.42493 18.3499 8.70826 17.4833L5.83326 13.9583C4.9916 12.9416 6.09993 11.4916 7.30826 12.025Z" fill="white"/>
<path d="M7.14169 9.7251C6.89169 9.90843 6.92502 10.2918 7.20836 10.4334L9.16669 11.4084C9.62502 11.6418 10.3667 11.6418 10.8167 11.4084L12.775 10.4334C13.05 10.2918 13.0834 9.91676 12.8417 9.7251L10.25 7.7751C10.1 7.66676 9.90002 7.66676 9.75002 7.7751L7.14169 9.7251Z" fill="white"/>
<path d="M14.9 6.86651L11.425 2.53318C11.3583 2.44985 11.2833 2.37485 11.2083 2.29985C10.9917 2.09151 10.6833 2.28318 10.6833 2.58318V6.16651C10.6833 6.29985 10.7417 6.42485 10.85 6.49985L14.3083 9.09985L14.4583 9.20818C14.6083 9.31651 14.8167 9.31651 14.9417 9.18318C15.525 8.54985 15.5167 7.63318 14.9 6.86651Z" fill="white"/>
<path d="M5.09163 6.94154L8.54996 2.54154C8.61663 2.45821 8.6833 2.38321 8.7583 2.30821C8.97496 2.09987 9.28329 2.28321 9.28329 2.59154V6.2332C9.28329 6.36654 9.22496 6.4832 9.11663 6.56654L5.67496 9.2082L5.53329 9.31654C5.38329 9.42487 5.17496 9.42487 5.04163 9.28321C4.47496 8.64154 4.48329 7.72487 5.09163 6.94154Z" fill="white"/>
</svg>
