<svg width="20" height="20" viewBox="0 0 20 20" fill="none" xmlns="http://www.w3.org/2000/svg">
<path d="M10.4262 19.5483C3.83488 19.5483 2.07379 12.6773 2.86985 8.17541C2.90449 7.97948 3.16133 7.92303 3.27324 8.08756C3.61981 8.59694 3.9282 9.33268 4.43918 9.26881C5.20719 9.1728 5.73926 2.39592 10.291 0.489089C10.4355 0.428581 10.5866 0.543386 10.5707 0.699167C10.3457 2.90749 11.6716 6.06901 14.0206 6.06901C15.3671 6.06901 16.2885 4.99432 16.7489 3.91503C16.8887 3.58717 17.3677 3.6285 17.4479 3.97581C18.2695 7.5337 20.4655 19.5483 10.4262 19.5483Z" fill="#FF8F1F"/>
<path d="M8.11545 12.923C8.27045 12.7928 8.50576 12.8821 8.54096 13.0815C8.6233 13.548 8.89408 14.3498 9.78229 14.3498C10.8507 14.3498 11.5758 11.4098 11.766 10.5451C11.7972 10.4029 11.9359 10.3063 12.0786 10.3353C14.7487 10.8782 16.047 19.5485 10.1762 19.5485C5.90225 19.5485 6.87049 13.9689 8.11545 12.923ZM15.4116 3.53342C15.5057 2.79741 14.1621 4.81049 14.1621 4.81049C14.1621 4.81049 15.1864 5.29432 15.4116 3.53342ZM1.87353 14.5101C1.90185 14.1967 1.49877 13.3578 1.4274 13.69C1.25658 14.4847 1.84521 14.8234 1.87353 14.5101Z" fill="#FFB636"/>
<path d="M12.624 13.617C12.5239 13.1994 12.1648 14.1693 12.21 14.5644C12.2551 14.9594 12.8635 14.616 12.624 13.617Z" fill="#FFD469"/>
</svg>
