<svg width="11" height="9" viewBox="0 0 11 9" fill="none" xmlns="http://www.w3.org/2000/svg">
<path d="M1 3.9375C0.68934 3.9375 0.4375 4.18934 0.4375 4.5C0.4375 4.81066 0.68934 5.0625 1 5.0625V3.9375ZM10.3977 4.89775C10.6174 4.67808 10.6174 4.32192 10.3977 4.10225L6.81802 0.522524C6.59835 0.302855 6.24219 0.302855 6.02252 0.522524C5.80285 0.742194 5.80285 1.09835 6.02252 1.31802L9.2045 4.5L6.02252 7.68198C5.80285 7.90165 5.80285 8.25781 6.02252 8.47748C6.24219 8.69715 6.59835 8.69715 6.81802 8.47748L10.3977 4.89775ZM1 5.0625H10V3.9375H1V5.0625Z" fill="#FFFAFF"/>
</svg>
