<svg width="429" height="148" viewBox="0 0 429 148" fill="none" xmlns="http://www.w3.org/2000/svg">
<path d="M13 0H429V148H1V94L13 81.5V0Z" fill="#07040B"/>
<path d="M1 94L0.278613 93.3075L0 93.5977V94H1ZM13 81.5L13.7214 82.1925L14 81.9023V81.5H13ZM7.66667 68.5C7.66667 71.4455 10.0545 73.8333 13 73.8333C15.9455 73.8333 18.3333 71.4455 18.3333 68.5C18.3333 65.5545 15.9455 63.1667 13 63.1667C10.0545 63.1667 7.66667 65.5545 7.66667 68.5ZM2 148V94H0V148H2ZM1.72139 94.6925L13.7214 82.1925L12.2786 80.8075L0.278613 93.3075L1.72139 94.6925ZM14 81.5V68.5H12V81.5H14Z" fill="#FFF05A"/>
</svg>
