<svg xmlns="http://www.w3.org/2000/svg" viewBox="0 0 964.11 111.9" fill="none">
    <path fill='currentColor' d="M81.74,51.22c-1.13.12-2.18,1.52-3.09,2.3-2.76,2.75-7.98,7.94-10.55,10.51-.7.79-1.77,1.58-1.66,2.65.71,1.48,3.81-1.78,3.45,2.65-.16,1.53-1.78,5.87-3.78,4.84-.8-.82-.94-2.63-1.53-3.55-2.27-2.51-.85,7.2-1.85,8.12-1.2,2.5-3.51,4.37-5.39,6.39-2.32,2.39-3.44,2.04-3.41-1.7.08-5.51-.43-11.1.26-16.57.66-3.6,3.74-5.93,6.1-8.47,6.35-6.4,12.78-13.28,19.3-19.67,1.9-1.52,7.56-8.86,9.01-7.82.97,1.03.83,3.43.92,5.05.04,2.64-.04,5.51-.1,8.17-.07,4.37-.34,8.63-.47,12.99-.11,7.01-.03,14.05.02,21.07-.1,3.18,1.01,6.27,3.31,8.44,1.78,1.9,3.76,4.16,5.79,5.96,2.54,2.11,3.49,4.1,3.26,7.33,0,2.49,0,6.17,0,8.63-.03,1.04.18,2.32-.31,3.19-.72.73-2.86-1.58-3.7-2.33-1.68-1.75-2.85-3.83-4.28-5.77-1.33-1.82-3.19-3.33-4.88-4.98-3.11-3.49-8.2-6.55-8.66-11.48-.58-3.78.9-6.68,2.62-9.73.62-5.77.06-18.8.23-24.48-.04-.66-.07-1.55-.59-1.75h-.02Z"/>
    <path fill='currentColor' d="M3.96,97.32c1.59-5.71,8.4-8.15,10.85-13.33,1.28-2.93.72-6.33.86-9.46.31-13.53.52-27.34-.26-40.89-.11-1.79.07-4.53,2.39-2.62,9.97,9.59,19.34,19.86,29.05,29.79,1.01,1.05,1.98,2.2,2.61,3.5.74,1.47,1.03,3.15,1.12,4.8.26,4.59.24,9.21.23,13.81.16,7.1-3.59,1.76-6.09-.56-1.66-1.65-2.77-3.16-3.01-5.34-.35-.91.45-8.01-1.38-6.36-.68.94-.71,2.77-1.56,3.62-2.3.85-4.12-4.02-3.81-6.06.39-3.92,2.42,1.8,3.3-.68.25-1.62-1.07-2.99-2.15-4.12-2.45-2.56-4.86-5-7.37-7.45-1.31-.96-4.38-5.58-5.95-3.86-.45.63-.55,2.03-.54,2.99.14,6.46.25,12.96.35,19.44.02,3.73,2.9,6.55,2.83,10.28.06,2.8-.03,5.17-1.84,7.23-3.83,4.61-10.97,10.15-14.25,15.67-1.87,2.43-5.75,7.46-5.77.96,0-3.79-.43-7.63.38-11.31l.02-.07Z"/>
    <path fill='currentColor' d="M9.21,3.07c2.66,3.53,6.16,6.34,8.94,9.67,2.92,3.69,6.77,6.56,9.87,10.02.73.84,2.62,2.19,2.44.22-.31-1.9-1.88-3.56-3.19-4.94-2-2.1-3.91-4.34-6.09-6.23-1.11-1.12-2.73-2.09-3.31-3.54-.18-1.87,3.7-1.56,5.11-1.05,1.32.42,2.4,1.23,3.39,2.18,6,5.74,11.82,12.08,17.5,18.39,1.67,1.91,3.7,3.66,5.32,5.54,1.02,1.19,1.38,2.57,1.46,4.09.18,2.8.12,7.31.08,10.69-.06,2.88.02,4.83.17,7.46,0,1.32.29,3.22-.58,4.22-.88.56-2.23-1.04-2.99-1.76-1.12-1.15-2.24-2.32-3.36-3.48-10.83-11.4-21.93-22.52-33.31-33.41-.7-.61-1.29-1.1-1.91-1.63-1.25-1.08-2.16-1.48-3.08-2.64-1.75-2.18-1.77-5.25-1.9-7.93-.05-2.44-.2-4.97.33-7.35,1.05-2.89,3.9,0,5.05,1.43l.05.05Z"/>
    <path fill='currentColor' d="M86.98,7.86c.93,1.5-7.35,7.9-8.63,9.45-1.77,1.68-4.16,4.02-4.34,6.44-.05.48.03.82.18.99.35.5,1.38-.71,1.81-1.13,6.41-6.48,18.92-19.14,22.77-23.03,1.02-1.14,1.31-.54,1.47,1.32.21,2.61-.02,5.26,0,7.85.15,2.59.04,5.02-1.84,7.05-9.1,9.97-19.46,18.6-28.73,28.4-4.39,4.71-10.38,10.31-14.99,14.54-.88.65-.71-.25-.75-2.14,0-5.11,0-13.13,0-17.91.02-1.6-.08-3.27.3-4.23.53-1.49,2.08-2.94,3.21-4.21,3.59-3.87,7.33-7.61,11.04-11.34,3.56-3.55,7.09-7.15,10.65-10.71.98-.93,2.14-1.56,3.46-1.83,1.49-.38,3.99-.26,4.36.46l.02.03Z"/>
    <path fill='currentColor' d="M.54,39.38c2.13-2.32,1.17,4.87,1.25,5.89,0,2.33-.09,5.58.53,7.34.19.57.65,1.46,1.34,1.08,2.06-1.69,1.19-9.84,1.33-12.74-.12-6.38-.68-12.82-.75-19,.04-.82.02-1.93.64-2.33,1.14-.84,7.2,5.76,7.28,6.89,1.03,3.33.61,7.42.74,11.01-.04,6.08-.07,11.87-.41,17.87-.39,7.65.28,15.28.27,22.94,0,1.9-.3,3.79-1.27,5.42-1.27,2.01-4.51,5.88-6.21,6.25-.98-.13-.81-1.7-.9-2.53-.02-2.2,0-5.57-.01-7.9-.1-1.11.29-2.69-.49-3.48-.97-.69-3.5,4.13-3.79,2.42-.22-5.79,0-28-.08-37.03,0-.71.13-1.48.5-2.07l.02-.03Z"/>
    <path fill='currentColor' d="M99.38,19.72c.68-.2.69.63.72,1.17.01,5.35,0,24.83,0,30.5-.43,1.78,1.52,4.25,2.41,1.26.69-1.06-1-17.43,1.43-13.75,1.78,3.36.87,8.01.75,11.74-.49,8.21-.13,16.45-.2,24.68,0,.84-.1,2.2-.31,2.76-.71,1.51-2.68-4.07-3.55-1.41-.38,3.16-.05,7.17-.17,10.31.06,2.36-.71,3.43-2.65,1.39-1.78-1.82-3.9-3.76-4.87-6.04-.58-1.36-.71-2.96-.73-4.47-.19-16.05-.3-32.22.04-48.24-.03-4.05,4.35-8.12,7.11-9.89h.03Z"/>
  <path fill='currentColor' d="M110.65,24.15h70.21v17.67h-49.1v5.62h46.02v16.94h-46.02v5.71h49.1v17.67h-70.21V24.15Z"/>
  <path fill='currentColor' d="M240.74,87.75h-17.39l-15.67-27.9v27.9h-21.11V24.15h25.18l20.56,35.24,20.56-35.24h25.28v63.6h-21.11v-28.08l-16.31,28.08Z"/>
  <path fill='currentColor' d="M283.77,24.15h70.21v17.67h-49.1v5.62h46.02v16.94h-46.02v5.71h49.1v17.67h-70.21V24.15Z"/>
  <path fill='currentColor' d="M359.68,24.15h83.98v21.02h-31.44v42.58h-21.02v-42.58h-31.53v-21.02Z"/>
  <path fill='currentColor' d="M449.19,24.15h46.75c1.21,0,2.36.03,3.44.09,1.09.06,2.61.26,4.58.59,1.96.33,3.74.79,5.34,1.36,1.6.57,3.31,1.45,5.12,2.63,1.81,1.18,3.34,2.57,4.58,4.17,1.24,1.6,2.26,3.64,3.08,6.11.82,2.48,1.22,5.29,1.22,8.43,0,10.03-3.9,17.18-11.69,21.47l13.04,18.75-24.37-.09-10.87-14.95h-19.12v15.04h-21.11V24.15ZM493.94,54.14c5.25,0,7.88-1.99,7.88-5.98,0-3.62-2.75-5.44-8.24-5.44h-23.28v11.41h23.64Z"/>
  <path fill='currentColor' d="M569.49,23.52c5.74,0,10.81.32,15.22.95,4.41.63,8.48,1.71,12.23,3.22,3.74,1.51,6.81,3.49,9.2,5.93,2.38,2.45,4.24,5.53,5.57,9.24,1.33,3.71,1.99,8.08,1.99,13.09s-.59,9.24-1.77,12.86c-1.18,3.62-2.87,6.69-5.07,9.19-2.21,2.51-5.1,4.53-8.7,6.07-3.59,1.54-7.65,2.64-12.18,3.31-4.53.67-9.81,1-15.85,1-14.98,0-25.86-2.73-32.66-8.2-6.79-5.47-10.19-13.94-10.19-25.41,0-10.63,3.47-18.5,10.42-23.6,6.94-5.1,17.54-7.66,31.8-7.66ZM570.31,71.71c6.4,0,11.35-1.3,14.86-3.9,3.5-2.6,5.25-6.55,5.25-11.87s-1.84-9.04-5.53-11.73c-3.68-2.69-8.64-4.03-14.86-4.03-3.26,0-6.13.35-8.61,1.04-2.48.69-4.52,1.74-6.12,3.13-1.6,1.39-2.79,3.05-3.58,4.98-.79,1.93-1.18,4.14-1.18,6.61,0,4.77,1.66,8.59,4.98,11.46,3.32,2.87,8.24,4.3,14.77,4.3Z"/>
  <path fill='currentColor' d="M617.6,24.15h44.66c1.21,0,2.36.03,3.44.09,1.09.06,2.61.26,4.57.59,1.96.33,3.74.81,5.35,1.45,1.6.63,3.31,1.56,5.12,2.76,1.81,1.21,3.34,2.64,4.58,4.3,1.24,1.66,2.26,3.8,3.08,6.43.81,2.63,1.22,5.56,1.22,8.79s-.38,6.18-1.13,8.83c-.76,2.66-1.74,4.88-2.94,6.66-1.21,1.78-2.66,3.35-4.35,4.71-1.69,1.36-3.35,2.42-4.98,3.17-1.63.76-3.34,1.36-5.12,1.81-1.78.45-3.31.76-4.58.91-1.27.15-2.45.23-3.53.23h-24.28v12.86h-21.11V24.15ZM661.62,56.13c5.56,0,8.33-2.29,8.33-6.88,0-1.03-.14-1.9-.41-2.63s-.68-1.31-1.22-1.77c-.54-.45-1.09-.83-1.63-1.13-.54-.3-1.19-.5-1.95-.59-.76-.09-1.38-.17-1.86-.23-.48-.06-1.03-.09-1.63-.09h-22.56v13.32h22.92Z"/>
  <path fill='currentColor' d="M734.82,23.52c5.74,0,10.81.32,15.22.95,4.41.63,8.48,1.71,12.23,3.22,3.74,1.51,6.81,3.49,9.2,5.93,2.38,2.45,4.24,5.53,5.57,9.24,1.33,3.71,1.99,8.08,1.99,13.09s-.59,9.24-1.77,12.86c-1.18,3.62-2.87,6.69-5.07,9.19-2.21,2.51-5.1,4.53-8.7,6.07-3.59,1.54-7.65,2.64-12.18,3.31-4.53.67-9.81,1-15.85,1-14.98,0-25.86-2.73-32.66-8.2-6.79-5.47-10.19-13.94-10.19-25.41,0-10.63,3.47-18.5,10.42-23.6,6.94-5.1,17.54-7.66,31.8-7.66ZM735.64,71.71c6.4,0,11.35-1.3,14.86-3.9,3.5-2.6,5.25-6.55,5.25-11.87s-1.84-9.04-5.53-11.73c-3.68-2.69-8.64-4.03-14.86-4.03-3.26,0-6.13.35-8.61,1.04-2.48.69-4.52,1.74-6.12,3.13-1.6,1.39-2.79,3.05-3.58,4.98-.79,1.93-1.18,4.14-1.18,6.61,0,4.77,1.66,8.59,4.98,11.46,3.32,2.87,8.24,4.3,14.77,4.3Z"/>
  <path fill='currentColor' d="M804.31,66.64h46.11v21.11h-67.22V24.15h21.11v42.49Z"/>
  <path fill='currentColor' d="M856.13,87.75V24.15h21.11v63.6h-21.11Z"/>
  <path fill='currentColor' d="M920.99,24.24c5.68,0,10.54.14,14.58.41,4.05.27,7.64.77,10.78,1.49,3.14.73,5.66,1.62,7.56,2.67,1.9,1.06,3.47,2.49,4.71,4.3,1.24,1.81,2.1,3.82,2.58,6.02.48,2.21.72,4.91.72,8.11h-22.47c0-.97-.17-1.72-.5-2.26-.33-.54-1.07-1.07-2.22-1.59-1.15-.51-2.96-.87-5.44-1.09-2.48-.21-5.74-.32-9.78-.32-5.38,0-9.3.12-11.78.36-2.48.24-4.05.54-4.71.91-.67.36-1,1-1,1.9.06.79.89,1.31,2.49,1.59,1.6.27,6.42.74,14.45,1.4.12,0,.21.03.27.09,15.94,1.27,26.06,2.42,30.35,3.44,5.62,1.33,9.24,3.59,10.87,6.79,1.09,2.17,1.63,5.31,1.63,9.42,0,2.9-.2,5.29-.59,7.16-.39,1.87-1.18,3.59-2.36,5.16-1.18,1.57-2.7,2.79-4.58,3.67-1.87.88-4.47,1.62-7.79,2.22-3.32.6-7.11,1.01-11.37,1.22-4.26.21-9.56.32-15.9.32-4.35,0-8.11-.06-11.28-.18-3.17-.12-6.13-.33-8.88-.63-2.75-.3-5.03-.69-6.84-1.18-1.81-.48-3.44-1.15-4.89-1.99-1.45-.85-2.58-1.77-3.4-2.76s-1.5-2.28-2.04-3.85c-.54-1.57-.91-3.23-1.09-4.98-.18-1.75-.27-3.83-.27-6.25h21.83c0,1.03.17,1.81.5,2.35.33.54,1.13,1,2.4,1.36,1.27.36,3.03.6,5.3.73,2.27.12,5.48.18,9.65.18h2.17c6.89,0,11.07-.12,12.55-.36,1.48-.24,2.22-1.03,2.22-2.36,0-.78-.51-1.3-1.54-1.54-1.03-.24-3.87-.51-8.52-.82-3.38-.24-6.19-.45-8.42-.63-3.56-.3-6.3-.54-8.2-.72s-4.26-.44-7.07-.77c-2.81-.33-4.94-.66-6.39-1-1.45-.33-3.17-.75-5.16-1.27-1.99-.51-3.49-1.1-4.48-1.77-1-.66-2.08-1.45-3.26-2.36s-2.02-1.93-2.54-3.08c-.51-1.15-.97-2.46-1.36-3.94-.39-1.48-.59-3.09-.59-4.85,0-2.11.15-4.02.45-5.71.3-1.69.72-3.2,1.27-4.53.54-1.33,1.3-2.51,2.26-3.53.97-1.03,1.99-1.92,3.08-2.67,1.09-.75,2.49-1.39,4.21-1.9,1.72-.51,3.44-.92,5.16-1.22,1.72-.3,3.85-.54,6.39-.72,2.54-.18,5.03-.3,7.47-.36,2.45-.06,5.36-.09,8.74-.09Z"/>
</svg>
