<svg width="16" height="16" viewBox="0 0 16 16" fill="none" xmlns="http://www.w3.org/2000/svg">
<g clip-path="url(#clip0_10248_8366)">
<path d="M14.9059 9.71605C13.957 13.5232 10.1009 15.8481 6.28673 14.8986C2.47951 13.9468 0.158441 10.0907 1.10734 6.28352C2.05623 2.47632 5.90996 0.15151 9.71484 1.10098C13.5314 2.03882 15.8524 5.90652 14.9059 9.71605Z" fill="#213147"/>
<path d="M3.59502 5.98116V10.1621C3.59502 10.4183 3.7441 10.6746 3.9585 10.8019L7.58497 12.8924C7.81948 13.0197 8.09753 13.0197 8.33204 12.8924L11.9585 10.8019C12.193 10.6746 12.322 10.4183 12.322 10.1621V5.98116C12.322 5.72488 12.1729 5.4686 11.9585 5.3413L8.33036 3.25084C8.09586 3.12354 7.8178 3.12354 7.58329 3.25084L3.95683 5.3413C3.72232 5.4686 3.59502 5.72488 3.59502 5.98116Z" fill="#213147"/>
<path d="M9.61008 6.49373C9.65366 6.4083 9.75917 6.4083 9.78096 6.49373L11.5716 11.4217L10.5481 12.0197L9.09752 8.02974C9.07577 7.98786 9.07577 7.94431 9.09752 7.90244L9.61008 6.49373Z" fill="#12AAFF"/>
<path d="M8.24492 10.291L8.75748 8.88233C8.79935 8.79691 8.90656 8.79691 8.92668 8.88233L10.1645 12.2525L9.14107 12.8505L8.24492 10.4183C8.22317 10.3765 8.22317 10.3329 8.24492 10.291Z" fill="#12AAFF"/>
<path d="M7.94677 3.39992C7.96855 3.39992 7.98865 3.39992 8.01042 3.4217L11.935 5.683C11.9769 5.70478 11.9987 5.74666 11.9987 5.81031V10.3329C11.9987 10.3748 11.9769 10.4401 11.935 10.4602L8.01042 12.7215C7.98865 12.7433 7.96855 12.7433 7.94677 12.7433C7.925 12.7433 7.9049 12.7433 7.88312 12.7215L3.95849 10.4602C3.91662 10.4384 3.89484 10.3966 3.89484 10.3329V5.81031C3.89484 5.76843 3.91662 5.70311 3.95849 5.683L7.88312 3.4217C7.90322 3.39992 7.925 3.39992 7.94677 3.39992ZM7.94677 2.73828C7.79769 2.73828 7.66872 2.78016 7.54141 2.84548L3.61679 5.10679C3.3605 5.25587 3.21143 5.51215 3.21143 5.81031V10.3329C3.21143 10.611 3.3605 10.8874 3.61679 11.0364L7.54141 13.2977C7.66872 13.3614 7.79769 13.4049 7.94677 13.4049C8.09585 13.4049 8.22483 13.3631 8.35213 13.2977L12.2768 11.0364C12.533 10.8874 12.6821 10.6311 12.6821 10.3329V5.81031C12.6821 5.53225 12.533 5.25587 12.2768 5.10679L8.37223 2.84548C8.24493 2.78183 8.11595 2.73828 7.96687 2.73828H7.94677Z" fill="#9DCCED"/>
<path d="M5.36552 12.018L5.72733 11.0364L6.45263 11.6344L5.77088 12.2743L5.36552 12.018Z" fill="#213147"/>
<path d="M8.35047 5.49038H9.3538L9.33204 5.47027C9.39567 5.47027 9.43925 5.53393 9.41746 5.59758L6.77256 12.8505L5.74912 12.2525L8.1796 5.59758C8.20139 5.53225 8.28681 5.49038 8.35047 5.49038Z" fill="white"/>
<path d="M6.62348 5.49038H7.60504C7.66871 5.49038 7.71225 5.55403 7.69046 5.61768L5.34374 12.0398L4.32029 11.4418L6.45263 5.59758C6.47439 5.53225 6.55981 5.49038 6.62348 5.49038Z" fill="white"/>
</g>
<defs>
<clipPath id="clip0_10248_8366">
<rect width="16" height="16" fill="white"/>
</clipPath>
</defs>
</svg>
