<svg width="16" height="16" viewBox="0 0 16 16" fill="none" xmlns="http://www.w3.org/2000/svg">
<path fill-rule="evenodd" clip-rule="evenodd" d="M15.9947 7.99913C15.9947 12.4116 12.4154 15.9885 8.00005 15.9885C3.58471 15.9885 0.00537109 12.4116 0.00537109 7.99913C0.00537109 3.58672 3.58471 0.00976562 8.00005 0.00976562C12.4154 0.00976562 15.9947 3.58672 15.9947 7.99913ZM5.73458 11.1785H4.18304C3.85702 11.1785 3.69597 11.1785 3.59778 11.1157C3.49172 11.047 3.42691 10.9332 3.41906 10.8075C3.41316 10.6918 3.49369 10.5504 3.65473 10.2678L7.48569 3.51971C7.6487 3.23316 7.73118 3.08988 7.83527 3.03689C7.94722 2.97998 8.08077 2.97998 8.19272 3.03689C8.29681 3.08988 8.3793 3.23316 8.5423 3.51971L9.32987 4.89358L9.33388 4.9006C9.50995 5.20801 9.59923 5.3639 9.63821 5.52752C9.68141 5.70613 9.68141 5.89454 9.63821 6.07315C9.59893 6.23801 9.51055 6.39503 9.33183 6.7071L7.31952 10.2619L7.31432 10.271C7.13709 10.581 7.04728 10.7381 6.9228 10.8566C6.78729 10.9861 6.62427 11.0803 6.44555 11.1334C6.28253 11.1785 6.09989 11.1785 5.73458 11.1785ZM9.65274 11.1785H11.8759C12.2039 11.1785 12.3689 11.1785 12.4672 11.1138C12.5732 11.0451 12.6399 10.9292 12.6459 10.8037C12.6515 10.6917 12.5728 10.5558 12.4184 10.2896C12.4131 10.2806 12.4078 10.2713 12.4023 10.262L11.2887 8.35817L11.2761 8.33673C11.1196 8.07229 11.0406 7.93874 10.9391 7.88713C10.8272 7.8302 10.6956 7.8302 10.5837 7.88713C10.4815 7.94012 10.3991 8.07947 10.236 8.36013L9.12639 10.2639L9.12259 10.2705C8.96016 10.5507 8.87897 10.6907 8.88483 10.8056C8.89268 10.9313 8.95749 11.047 9.06354 11.1157C9.15979 11.1785 9.32476 11.1785 9.65274 11.1785Z" fill="#E84142"/>
</svg>
