<svg width="16" height="16" viewBox="0 0 16 16" fill="none" xmlns="http://www.w3.org/2000/svg">
<path fill-rule="evenodd" clip-rule="evenodd" d="M8 1C11.8663 1 15 4.13373 15 8C15 11.8663 11.8663 15 8 15C4.13373 15 1 11.8663 1 8C1 4.13373 4.13373 1 8 1Z" fill="#E7BC2A"/>
<path d="M4.8471 7.99907L4.85215 9.85003L6.4249 10.7755V11.8592L3.93171 10.3969V7.4578L4.8471 7.99907ZM4.8471 6.14811V7.22671L3.93115 6.68489V5.60628L4.8471 5.06445L5.76753 5.60628L4.8471 6.14811ZM7.08171 5.60628L7.99766 5.06445L8.91809 5.60628L7.99766 6.14811L7.08171 5.60628Z" fill="white"/>
<path d="M5.50928 9.46638V8.38272L6.42522 8.92455V10.0032L5.50928 9.46638ZM7.08203 11.1637L7.99798 11.7055L8.91841 11.1637V12.2423L7.99798 12.7841L7.08203 12.2423V11.1637ZM10.232 5.60628L11.148 5.06445L12.0684 5.60628V6.68489L11.148 7.22671V6.14811L10.232 5.60628ZM11.148 9.85003L11.153 7.99907L12.069 7.45724V10.3963L9.57578 11.8586V10.775L11.148 9.85003Z" fill="white"/>
<path d="M10.4911 9.46647L9.5752 10.0032V8.92464L10.4911 8.38281V9.46647Z" fill="white"/>
<path d="M10.4912 6.53255L10.4962 7.61621L8.91897 8.54169V10.3971L8.00303 10.9339L7.08708 10.3971V8.54169L5.50984 7.61621V6.53255L6.42971 5.99073L7.99742 6.92069L9.57466 5.99073L10.4951 6.53255H10.4912ZM5.50928 4.68215L7.99798 3.21484L10.4912 4.68215L9.57522 5.22398L7.99798 4.29401L6.42522 5.22398L5.50928 4.68215Z" fill="white"/>
</svg>
