<svg width="32" height="32" viewBox="0 0 32 32" fill="none" xmlns="http://www.w3.org/2000/svg">
<path d="M16 2C8.26794 2 2 8.26794 2 16C2 23.7321 8.26794 30 16 30C23.7321 30 30 23.7321 30 16C30 8.26794 23.7321 2 16 2ZM16.5501 23.5614H11.48V16.821H9.69272V15.1698H11.4798V8.42894H15.8313C16.8607 8.42894 23.6791 8.21516 23.6791 16.1217C23.6791 24.1589 16.5502 23.5614 16.5502 23.5614H16.5501Z" fill="#C2A633"/>
<rect x="2" y="2" width="28" height="28" rx="14" fill="#8247E5"/>
<path d="M20.1149 13.2789C19.8225 13.1128 19.4465 13.1128 19.1123 13.2789L16.7728 14.6499L15.1854 15.5223L12.8877 16.8932C12.5953 17.0593 12.2193 17.0593 11.8851 16.8932L10.0888 15.8131C9.79634 15.6469 9.58747 15.3145 9.58747 14.9407V12.8635C9.58747 12.5312 9.75457 12.1988 10.0888 11.9911L11.8851 10.9525C12.1775 10.7864 12.5535 10.7864 12.8877 10.9525L14.6841 12.0326C14.9765 12.1988 15.1854 12.5312 15.1854 12.905V14.276L16.7728 13.362V11.9496C16.7728 11.6172 16.6057 11.2849 16.2715 11.0772L12.9295 9.12463C12.6371 8.95846 12.2611 8.95846 11.9269 9.12463L8.50131 11.1187C8.1671 11.2849 8 11.6172 8 11.9496V15.8546C8 16.1869 8.1671 16.5193 8.50131 16.727L11.8851 18.6795C12.1775 18.8457 12.5535 18.8457 12.8877 18.6795L15.1854 17.3501L16.7728 16.4362L19.0705 15.1068C19.3629 14.9407 19.7389 14.9407 20.0731 15.1068L21.8695 16.1454C22.1619 16.3116 22.3708 16.6439 22.3708 17.0178V19.095C22.3708 19.4273 22.2037 19.7596 21.8695 19.9674L20.1149 21.0059C19.8225 21.1721 19.4465 21.1721 19.1123 21.0059L17.3159 19.9674C17.0235 19.8012 16.8146 19.4688 16.8146 19.095V17.7656L15.2272 18.6795V20.0504C15.2272 20.3828 15.3943 20.7151 15.7285 20.9228L19.1123 22.8754C19.4047 23.0415 19.7807 23.0415 20.1149 22.8754L23.4987 20.9228C23.7911 20.7567 24 20.4243 24 20.0504V16.1039C24 15.7715 23.8329 15.4392 23.4987 15.2315L20.1149 13.2789Z" fill="white"/>
</svg>
