<svg width="24" height="25" viewBox="0 0 24 25" fill="none" xmlns="http://www.w3.org/2000/svg">
<path d="M7 18.5C6.73478 18.5 6.48043 18.3946 6.29289 18.2071C6.10536 18.0196 6 17.7652 6 17.5V13.5C6 13.2348 6.10536 12.9804 6.29289 12.7929C6.48043 12.6054 6.73478 12.5 7 12.5C7.26522 12.5 7.51957 12.6054 7.70711 12.7929C7.89464 12.9804 8 13.2348 8 13.5V17.5C8 17.7652 7.89464 18.0196 7.70711 18.2071C7.51957 18.3946 7.26522 18.5 7 18.5ZM12 18.5C11.7348 18.5 11.4804 18.3946 11.2929 18.2071C11.1054 18.0196 11 17.7652 11 17.5V7.5C11 7.23478 11.1054 6.98043 11.2929 6.79289C11.4804 6.60536 11.7348 6.5 12 6.5C12.2652 6.5 12.5196 6.60536 12.7071 6.79289C12.8946 6.98043 13 7.23478 13 7.5V17.5C13 17.7652 12.8946 18.0196 12.7071 18.2071C12.5196 18.3946 12.2652 18.5 12 18.5ZM17 18.5C16.7348 18.5 16.4804 18.3946 16.2929 18.2071C16.1054 18.0196 16 17.7652 16 17.5V11.5C16 11.2348 16.1054 10.9804 16.2929 10.7929C16.4804 10.6054 16.7348 10.5 17 10.5C17.2652 10.5 17.5196 10.6054 17.7071 10.7929C17.8946 10.9804 18 11.2348 18 11.5V17.5C18 17.7652 17.8946 18.0196 17.7071 18.2071C17.5196 18.3946 17.2652 18.5 17 18.5Z" fill="#FFFAFF"/>
<path opacity="0.5" d="M19 2.5H5C4.20435 2.5 3.44129 2.81607 2.87868 3.37868C2.31607 3.94129 2 4.70435 2 5.5V19.5C2 20.2956 2.31607 21.0587 2.87868 21.6213C3.44129 22.1839 4.20435 22.5 5 22.5H19C19.7956 22.5 20.5587 22.1839 21.1213 21.6213C21.6839 21.0587 22 20.2956 22 19.5V5.5C22 4.70435 21.6839 3.94129 21.1213 3.37868C20.5587 2.81607 19.7956 2.5 19 2.5ZM8 17.5C8 17.7652 7.89464 18.0196 7.70711 18.2071C7.51957 18.3946 7.26522 18.5 7 18.5C6.73478 18.5 6.48043 18.3946 6.29289 18.2071C6.10536 18.0196 6 17.7652 6 17.5V13.5C6 13.2348 6.10536 12.9804 6.29289 12.7929C6.48043 12.6054 6.73478 12.5 7 12.5C7.26522 12.5 7.51957 12.6054 7.70711 12.7929C7.89464 12.9804 8 13.2348 8 13.5V17.5ZM13 17.5C13 17.7652 12.8946 18.0196 12.7071 18.2071C12.5196 18.3946 12.2652 18.5 12 18.5C11.7348 18.5 11.4804 18.3946 11.2929 18.2071C11.1054 18.0196 11 17.7652 11 17.5V7.5C11 7.23478 11.1054 6.98043 11.2929 6.79289C11.4804 6.60536 11.7348 6.5 12 6.5C12.2652 6.5 12.5196 6.60536 12.7071 6.79289C12.8946 6.98043 13 7.23478 13 7.5V17.5ZM18 17.5C18 17.7652 17.8946 18.0196 17.7071 18.2071C17.5196 18.3946 17.2652 18.5 17 18.5C16.7348 18.5 16.4804 18.3946 16.2929 18.2071C16.1054 18.0196 16 17.7652 16 17.5V11.5C16 11.2348 16.1054 10.9804 16.2929 10.7929C16.4804 10.6054 16.7348 10.5 17 10.5C17.2652 10.5 17.5196 10.6054 17.7071 10.7929C17.8946 10.9804 18 11.2348 18 11.5V17.5Z" fill="#FFFAFF"/>
</svg>
