<svg width="1440" height="286" viewBox="0 0 1440 286" fill="none" xmlns="http://www.w3.org/2000/svg">
<g style="mix-blend-mode:plus-lighter" opacity="0.5" filter="url(#filter0_f_2001_890)">
<path d="M1235.85 94L1312.75 94C1341.06 94 1364 116.945 1364 145.249C1364 176.664 1335.99 200.685 1304.95 195.9L1077 160.776L1235.85 94Z" fill="#02FFFF"/>
</g>
<path d="M86.6591 131.578C86.6591 203.981 72.9992 262.676 56.1489 262.676C39.2987 262.676 24.6853 198.735 24.6853 126.331C24.6853 53.9275 39.2987 0.479492 56.1489 0.479492C72.9992 0.479492 86.6591 59.1742 86.6591 131.578ZM40.8939 131.578C40.8939 182.564 44.2831 223.896 56.1489 223.896C68.0148 223.896 77.6339 182.564 77.6339 131.578C77.6339 80.5918 68.0148 39.2595 56.1489 39.2595C44.2831 39.2595 40.8939 80.5918 40.8939 131.578Z" fill="white"/>
<path d="M25.6387 131.578C26.5921 260.772 59.731 262.676 56.1488 262.676C25.6387 262.676 8 214.438 8 121.477C10.3836 -14.3884 45.9788 0.479491 56.1488 0.479295C56.1488 0.479295 24.6852 2.3836 25.6387 131.578Z" fill="#D9D9D9"/>
<g style="mix-blend-mode:plus-lighter">
<path d="M53.6065 212.054C54.7643 212.054 55.6055 211.439 56.1103 210.91C56.6153 210.382 56.9972 209.727 57.2977 209.093C57.9054 207.811 58.4299 206.067 58.8988 204.022C59.8455 199.893 60.679 194.014 61.3725 186.862C62.7623 172.529 63.6177 152.784 63.6177 131.011C63.6177 109.239 62.7623 89.4936 61.3725 75.1612C60.679 68.009 59.8455 62.1304 58.8988 58.0013C58.4299 55.956 57.9054 54.2121 57.2977 52.9299C56.9972 52.2956 56.6153 51.6413 56.1103 51.1126C55.6055 50.5839 54.7643 49.9689 53.6065 49.9689C52.4488 49.9689 51.6075 50.5839 51.1027 51.1126C50.5978 51.6414 50.2159 52.2956 49.9153 52.9299C49.3077 54.2121 48.7831 55.956 48.3142 58.0013C47.3676 62.1304 46.5341 68.009 45.8406 75.1612C44.4508 89.4936 43.5954 109.239 43.5954 131.011C43.5954 152.784 44.4508 172.529 45.8406 186.862C46.5341 194.014 47.3676 199.893 48.3142 204.022C48.7831 206.067 49.3077 207.811 49.9153 209.093C50.2159 209.727 50.5978 210.382 51.1027 210.91C51.6075 211.439 52.4488 212.054 53.6065 212.054Z" fill="#02FFFF"/>
<path d="M53.6065 212.054C54.7643 212.054 55.6055 211.439 56.1103 210.91C56.6153 210.382 56.9972 209.727 57.2977 209.093C57.9054 207.811 58.4299 206.067 58.8988 204.022C59.8455 199.893 60.679 194.014 61.3725 186.862C62.7623 172.529 63.6177 152.784 63.6177 131.011C63.6177 109.239 62.7623 89.4936 61.3725 75.1612C60.679 68.009 59.8455 62.1304 58.8988 58.0013C58.4299 55.956 57.9054 54.2121 57.2977 52.9299C56.9972 52.2956 56.6153 51.6413 56.1103 51.1126C55.6055 50.5839 54.7643 49.9689 53.6065 49.9689C52.4488 49.9689 51.6075 50.5839 51.1027 51.1126C50.5978 51.6414 50.2159 52.2956 49.9153 52.9299C49.3077 54.2121 48.7831 55.956 48.3142 58.0013C47.3676 62.1304 46.5341 68.009 45.8406 75.1612C44.4508 89.4936 43.5954 109.239 43.5954 131.011C43.5954 152.784 44.4508 172.529 45.8406 186.862C46.5341 194.014 47.3676 199.893 48.3142 204.022C48.7831 206.067 49.3077 207.811 49.9153 209.093C50.2159 209.727 50.5978 210.382 51.1027 210.91C51.6075 211.439 52.4488 212.054 53.6065 212.054Z" stroke="#0E136E" stroke-width="4.76721"/>
</g>
<path d="M81.574 133.395C81.574 186.052 69.0556 228.739 56.9838 228.739C44.912 228.739 40.8939 186.052 40.8939 133.395C40.8939 80.7378 44.912 38.0508 56.9838 38.0508C69.0556 38.0508 81.574 80.7378 81.574 133.395ZM40.8939 133.395C40.8939 172.157 45.3653 218.96 54.2516 218.96C63.1379 218.96 67.9128 174.602 67.9128 135.84C67.9128 97.0778 65.8701 45.3849 56.9838 45.3849C48.0975 45.3849 40.8939 94.6331 40.8939 133.395Z" fill="#D9D9D9"/>
<path d="M1353.34 134.29C1353.34 206.694 1367 265.388 1383.85 265.388C1400.7 265.388 1415.31 201.447 1415.31 129.043C1415.31 56.6399 1400.7 3.19189 1383.85 3.19189C1367 3.19189 1353.34 61.8866 1353.34 134.29ZM1399.11 134.29C1399.11 185.276 1395.72 226.608 1383.85 226.608C1371.99 226.608 1362.37 185.276 1362.37 134.29C1362.37 83.3042 1371.99 41.9719 1383.85 41.9719C1395.72 41.9719 1399.11 83.3042 1399.11 134.29Z" fill="white"/>
<path d="M1414.36 134.29C1413.41 263.484 1380.27 265.388 1383.85 265.388C1414.36 265.388 1432 217.15 1432 124.189C1429.62 -11.676 1394.02 3.19189 1383.85 3.1917C1383.85 3.1917 1415.31 5.09601 1414.36 134.29Z" fill="#D9D9D9"/>
<g style="mix-blend-mode:plus-lighter">
<path d="M1386.39 214.52C1385.33 214.52 1384.55 213.954 1384.07 213.453C1383.59 212.951 1383.22 212.323 1382.93 211.7C1382.33 210.442 1381.81 208.719 1381.34 206.679C1380.4 202.565 1379.57 196.699 1378.87 189.55C1377.48 175.228 1376.63 155.491 1376.63 133.724C1376.63 111.956 1377.48 92.2196 1378.87 77.8974C1379.57 70.7488 1380.4 64.8826 1381.34 60.7688C1381.81 58.7292 1382.33 57.0058 1382.93 55.7479C1383.22 55.125 1383.59 54.4971 1384.07 53.9952C1384.55 53.4935 1385.33 52.9279 1386.39 52.9279C1387.46 52.9279 1388.24 53.4935 1388.72 53.9952C1389.2 54.4971 1389.57 55.125 1389.86 55.7479C1390.46 57.0058 1390.98 58.7292 1391.45 60.7688C1392.39 64.8826 1393.22 70.7488 1393.91 77.8974C1395.3 92.2196 1396.16 111.956 1396.16 133.724C1396.16 155.491 1395.3 175.228 1393.91 189.55C1393.22 196.699 1392.39 202.565 1391.45 206.679C1390.98 208.719 1390.46 210.442 1389.86 211.7C1389.57 212.323 1389.2 212.951 1388.72 213.453C1388.24 213.954 1387.46 214.52 1386.39 214.52Z" fill="#02FFFF"/>
<path d="M1386.39 214.52C1385.33 214.52 1384.55 213.954 1384.07 213.453C1383.59 212.951 1383.22 212.323 1382.93 211.7C1382.33 210.442 1381.81 208.719 1381.34 206.679C1380.4 202.565 1379.57 196.699 1378.87 189.55C1377.48 175.228 1376.63 155.491 1376.63 133.724C1376.63 111.956 1377.48 92.2196 1378.87 77.8974C1379.57 70.7488 1380.4 64.8826 1381.34 60.7688C1381.81 58.7292 1382.33 57.0058 1382.93 55.7479C1383.22 55.125 1383.59 54.4971 1384.07 53.9952C1384.55 53.4935 1385.33 52.9279 1386.39 52.9279C1387.46 52.9279 1388.24 53.4935 1388.72 53.9952C1389.2 54.4971 1389.57 55.125 1389.86 55.7479C1390.46 57.0058 1390.98 58.7292 1391.45 60.7688C1392.39 64.8826 1393.22 70.7488 1393.91 77.8974C1395.3 92.2196 1396.16 111.956 1396.16 133.724C1396.16 155.491 1395.3 175.228 1393.91 189.55C1393.22 196.699 1392.39 202.565 1391.45 206.679C1390.98 208.719 1390.46 210.442 1389.86 211.7C1389.57 212.323 1389.2 212.951 1388.72 213.453C1388.24 213.954 1387.46 214.52 1386.39 214.52Z" stroke="#0E136E" stroke-width="4.27405"/>
</g>
<path d="M1358.43 136.107C1358.43 188.765 1370.94 231.452 1383.02 231.452C1395.09 231.452 1399.11 188.765 1399.11 136.107C1399.11 83.4502 1395.09 40.7632 1383.02 40.7632C1370.94 40.7632 1358.43 83.4502 1358.43 136.107ZM1399.11 136.107C1399.11 174.869 1394.63 221.673 1385.75 221.673C1376.86 221.673 1372.09 177.314 1372.09 138.552C1372.09 99.7902 1374.13 48.0974 1383.02 48.0974C1391.9 48.0974 1399.11 97.3455 1399.11 136.107Z" fill="#D9D9D9"/>
<g filter="url(#filter1_f_2001_890)">
<path d="M41 142.481C41 114.717 67.6246 94.7079 94.2927 102.429L151.481 118.987C156.79 120.525 162.235 121.549 167.74 122.047L264.114 130.758L390 142.481L264.114 142.481L159.463 156.398L75.0081 171.085C57.2508 174.173 41 160.504 41 142.481Z" fill="url(#paint0_diamond_2001_890)"/>
</g>
<g style="mix-blend-mode:plus-lighter" filter="url(#filter2_f_2001_890)">
<path d="M46.2778 142.251C47.1276 107.622 87.2043 88.8847 114.321 110.438L126.119 119.814C134.868 126.768 145.714 130.554 156.89 130.554L238.182 130.554L346.457 142.251L238.182 142.251L161.155 148.151C147.038 149.233 133.428 153.89 121.609 161.685L51.0474 208.217C49.5778 209.186 47.5963 208.727 46.7031 207.21C46.4247 206.737 46.2778 206.198 46.2778 205.649L46.2778 142.251Z" fill="url(#paint1_diamond_2001_890)"/>
</g>
<g style="mix-blend-mode:plus-lighter" filter="url(#filter3_f_2001_890)">
<path d="M1407 150.252C1405.58 111.341 1363.89 87.3644 1329.54 105.699L1286.37 128.746C1274.3 135.186 1260.83 138.555 1247.16 138.555L1121.23 138.555L960 150.252L1121.23 150.252L1238.16 156.267C1257.88 157.281 1277.24 161.9 1295.3 169.894L1401.1 216.749C1402.78 217.493 1404.75 217.059 1405.96 215.677C1406.63 214.911 1407 213.927 1407 212.907V150.252Z" fill="url(#paint2_diamond_2001_890)"/>
</g>
<defs>
<filter id="filter0_f_2001_890" x="998.341" y="15.341" width="444.318" height="259.827" filterUnits="userSpaceOnUse" color-interpolation-filters="sRGB">
<feFlood flood-opacity="0" result="BackgroundImageFix"/>
<feBlend mode="normal" in="SourceGraphic" in2="BackgroundImageFix" result="shape"/>
<feGaussianBlur stdDeviation="39.3295" result="effect1_foregroundBlur_2001_890"/>
</filter>
<filter id="filter1_f_2001_890" x="-55.3031" y="4.45524" width="541.606" height="263.37" filterUnits="userSpaceOnUse" color-interpolation-filters="sRGB">
<feFlood flood-opacity="0" result="BackgroundImageFix"/>
<feBlend mode="normal" in="SourceGraphic" in2="BackgroundImageFix" result="shape"/>
<feGaussianBlur stdDeviation="48.1515" result="effect1_foregroundBlur_2001_890"/>
</filter>
<filter id="filter2_f_2001_890" x="-21.8029" y="33.1746" width="436.341" height="243.632" filterUnits="userSpaceOnUse" color-interpolation-filters="sRGB">
<feFlood flood-opacity="0" result="BackgroundImageFix"/>
<feBlend mode="normal" in="SourceGraphic" in2="BackgroundImageFix" result="shape"/>
<feGaussianBlur stdDeviation="34.0404" result="effect1_foregroundBlur_2001_890"/>
</filter>
<filter id="filter3_f_2001_890" x="891.919" y="31.347" width="583.162" height="253.843" filterUnits="userSpaceOnUse" color-interpolation-filters="sRGB">
<feFlood flood-opacity="0" result="BackgroundImageFix"/>
<feBlend mode="normal" in="SourceGraphic" in2="BackgroundImageFix" result="shape"/>
<feGaussianBlur stdDeviation="34.0404" result="effect1_foregroundBlur_2001_890"/>
</filter>
<radialGradient id="paint0_diamond_2001_890" cx="0" cy="0" r="1" gradientUnits="userSpaceOnUse" gradientTransform="translate(174.965 113.606) rotate(-11.2202) scale(117.909 41.7653)">
<stop stop-color="white"/>
<stop offset="0.752432" stop-color="white"/>
</radialGradient>
<radialGradient id="paint1_diamond_2001_890" cx="0" cy="0" r="1" gradientUnits="userSpaceOnUse" gradientTransform="translate(161.503 113.439) rotate(-12.96) scale(102.077 41.4042)">
<stop stop-color="white"/>
<stop offset="0.752432" stop-color="white"/>
</radialGradient>
<radialGradient id="paint2_diamond_2001_890" cx="0" cy="0" r="1" gradientUnits="userSpaceOnUse" gradientTransform="translate(1235.42 121.44) rotate(-171.215) scale(149.891 41.988)">
<stop stop-color="white"/>
<stop offset="0.752432" stop-color="white"/>
</radialGradient>
</defs>
</svg>
