<svg width="129" height="97" viewBox="0 0 129 97" fill="none" xmlns="http://www.w3.org/2000/svg">
<path d="M64.3377 0.564161C99.5554 0.874661 128.046 7.77063 127.974 15.9667C127.902 24.1629 96.7376 30.9967 61.5199 30.6862C26.3022 30.3757 0.367356 23.0384 0.439618 14.8423C0.51188 6.64621 29.12 0.25366 64.3377 0.564161ZM64.1414 22.8247C88.9414 23.0434 109.06 21.5721 109.111 15.8004C109.162 10.0288 89.099 5.17273 64.299 4.95408C39.499 4.73542 19.3534 9.237 19.3025 15.0086C19.2516 20.7803 39.3415 22.6061 64.1414 22.8247Z" fill="white"/>
<path d="M64.0761 30.2449C126.921 30.3352 127.99 14.2244 127.974 15.9668C127.843 30.8071 104.304 39.1799 59.0874 38.7812C-6.98842 37.0391 0.396099 19.7891 0.439618 14.8423C0.439618 14.8423 1.23096 30.1546 64.0761 30.2449Z" fill="#357AFF"/>
<path d="M103.34 16.9865C103.345 16.4234 103.05 16.0115 102.795 15.7637C102.54 15.5159 102.223 15.3273 101.916 15.1784C101.295 14.8773 100.449 14.6147 99.4562 14.3778C97.4518 13.8997 94.596 13.4691 91.1201 13.101C84.1546 12.3636 74.5541 11.8628 63.9637 11.7695C53.3732 11.6761 43.7654 12.0075 36.788 12.622C33.3061 12.9287 30.4432 13.3089 28.4307 13.7516C27.4338 13.9709 26.5833 14.2186 25.957 14.5087C25.6472 14.6522 25.3274 14.8351 25.068 15.0784C24.8087 15.3217 24.506 15.7283 24.501 16.2914C24.496 16.8545 24.7915 17.2664 25.0465 17.5142C25.3016 17.762 25.6181 17.9506 25.9254 18.0995C26.5465 18.4006 27.3925 18.6632 28.3853 18.9001C30.3897 19.3782 33.2455 19.8088 36.7214 20.1769C43.6868 20.9143 53.2874 21.4151 63.8778 21.5084C74.4682 21.6018 84.0761 21.2704 91.0535 20.6559C94.5353 20.3492 97.3983 19.969 99.4108 19.5263C100.408 19.307 101.258 19.0593 101.884 18.7692C102.194 18.6257 102.514 18.4428 102.773 18.1995C103.033 17.9562 103.336 17.5496 103.34 16.9865Z" fill="#02FFFF" stroke="#0E136E" stroke-width="2.3189"/>
<path d="M65.1867 4.53016C90.7995 4.75598 111.522 9.54347 111.47 15.4153C111.419 21.2871 90.6382 23.0585 65.0253 22.8327C39.4125 22.6069 18.6664 20.4694 18.7182 14.5975C18.7699 8.72571 39.5739 4.30434 65.1867 4.53016ZM65.0253 22.8327C83.8794 22.9989 106.664 21.0247 106.702 16.7023C106.74 12.38 85.1844 9.86719 66.3303 9.70096C47.4762 9.53473 22.3237 10.3066 22.2856 14.629C22.2475 18.9514 46.1712 22.6665 65.0253 22.8327Z" fill="#357AFF"/>
<g filter="url(#filter0_f_166_1213)">
<path d="M15.8325 34.3037C38.9216 41.5603 75.8641 43.5393 112.147 34.3037L63.9897 91.0368L15.8325 34.3037Z" fill="url(#paint0_linear_166_1213)"/>
</g>
<defs>
<filter id="filter0_f_166_1213" x="10.555" y="29.0262" width="106.869" height="67.2879" filterUnits="userSpaceOnUse" color-interpolation-filters="sRGB">
<feFlood flood-opacity="0" result="BackgroundImageFix"/>
<feBlend mode="normal" in="SourceGraphic" in2="BackgroundImageFix" result="shape"/>
<feGaussianBlur stdDeviation="2.63875" result="effect1_foregroundBlur_166_1213"/>
</filter>
<linearGradient id="paint0_linear_166_1213" x1="64.6494" y1="35.6231" x2="64.6494" y2="91.0368" gradientUnits="userSpaceOnUse">
<stop stop-color="#20FFFF"/>
<stop offset="1" stop-color="#2C318C"/>
</linearGradient>
</defs>
</svg>
