<svg width="1440" height="275" viewBox="0 0 1440 275" fill="none" xmlns="http://www.w3.org/2000/svg">
<path d="M86.6591 136.578C86.6591 208.981 72.9992 267.676 56.1489 267.676C39.2987 267.676 24.6853 203.735 24.6853 131.331C24.6853 58.9275 39.2987 5.47949 56.1489 5.47949C72.9992 5.47949 86.6591 64.1742 86.6591 136.578ZM40.8939 136.578C40.8939 187.564 44.2831 228.896 56.1489 228.896C68.0148 228.896 77.6339 187.564 77.6339 136.578C77.6339 85.5918 68.0148 44.2595 56.1489 44.2595C44.2831 44.2595 40.8939 85.5918 40.8939 136.578Z" fill="white"/>
<path d="M25.6387 136.578C26.5921 265.772 59.731 267.676 56.1488 267.676C25.6387 267.676 8 219.438 8 126.477C10.3836 -9.38842 45.9788 5.47949 56.1488 5.4793C56.1488 5.4793 24.6852 7.3836 25.6387 136.578Z" fill="#D9D9D9"/>
<g style="mix-blend-mode:plus-lighter">
<path d="M53.6065 217.054C54.7643 217.054 55.6055 216.439 56.1103 215.91C56.6153 215.382 56.9972 214.727 57.2977 214.093C57.9054 212.811 58.4299 211.067 58.8988 209.022C59.8455 204.893 60.679 199.014 61.3725 191.862C62.7623 177.529 63.6177 157.784 63.6177 136.011C63.6177 114.239 62.7623 94.4936 61.3725 80.1612C60.679 73.009 59.8455 67.1304 58.8988 63.0013C58.4299 60.956 57.9054 59.2121 57.2977 57.9299C56.9972 57.2956 56.6153 56.6413 56.1103 56.1126C55.6055 55.5839 54.7643 54.9689 53.6065 54.9689C52.4488 54.9689 51.6075 55.5839 51.1027 56.1126C50.5978 56.6414 50.2159 57.2956 49.9153 57.9299C49.3077 59.2121 48.7831 60.956 48.3142 63.0013C47.3676 67.1304 46.5341 73.009 45.8406 80.1612C44.4508 94.4936 43.5954 114.239 43.5954 136.011C43.5954 157.784 44.4508 177.529 45.8406 191.862C46.5341 199.014 47.3676 204.893 48.3142 209.022C48.7831 211.067 49.3077 212.811 49.9153 214.093C50.2159 214.727 50.5978 215.382 51.1027 215.91C51.6075 216.439 52.4488 217.054 53.6065 217.054Z" fill="#02FFFF"/>
<path d="M53.6065 217.054C54.7643 217.054 55.6055 216.439 56.1103 215.91C56.6153 215.382 56.9972 214.727 57.2977 214.093C57.9054 212.811 58.4299 211.067 58.8988 209.022C59.8455 204.893 60.679 199.014 61.3725 191.862C62.7623 177.529 63.6177 157.784 63.6177 136.011C63.6177 114.239 62.7623 94.4936 61.3725 80.1612C60.679 73.009 59.8455 67.1304 58.8988 63.0013C58.4299 60.956 57.9054 59.2121 57.2977 57.9299C56.9972 57.2956 56.6153 56.6413 56.1103 56.1126C55.6055 55.5839 54.7643 54.9689 53.6065 54.9689C52.4488 54.9689 51.6075 55.5839 51.1027 56.1126C50.5978 56.6414 50.2159 57.2956 49.9153 57.9299C49.3077 59.2121 48.7831 60.956 48.3142 63.0013C47.3676 67.1304 46.5341 73.009 45.8406 80.1612C44.4508 94.4936 43.5954 114.239 43.5954 136.011C43.5954 157.784 44.4508 177.529 45.8406 191.862C46.5341 199.014 47.3676 204.893 48.3142 209.022C48.7831 211.067 49.3077 212.811 49.9153 214.093C50.2159 214.727 50.5978 215.382 51.1027 215.91C51.6075 216.439 52.4488 217.054 53.6065 217.054Z" stroke="#0E136E" stroke-width="4.76721"/>
</g>
<path d="M81.574 138.395C81.574 191.052 69.0556 233.739 56.9838 233.739C44.912 233.739 40.8939 191.052 40.8939 138.395C40.8939 85.7378 44.912 43.0508 56.9838 43.0508C69.0556 43.0508 81.574 85.7378 81.574 138.395ZM40.8939 138.395C40.8939 177.157 45.3653 223.96 54.2516 223.96C63.1379 223.96 67.9128 179.602 67.9128 140.84C67.9128 102.078 65.8701 50.3849 56.9838 50.3849C48.0975 50.3849 40.8939 99.6331 40.8939 138.395Z" fill="#D9D9D9"/>
<path d="M1353.34 139.29C1353.34 211.694 1367 270.388 1383.85 270.388C1400.7 270.388 1415.31 206.447 1415.31 134.043C1415.31 61.6399 1400.7 8.19189 1383.85 8.19189C1367 8.19189 1353.34 66.8866 1353.34 139.29ZM1399.11 139.29C1399.11 190.276 1395.72 231.608 1383.85 231.608C1371.99 231.608 1362.37 190.276 1362.37 139.29C1362.37 88.3042 1371.99 46.9719 1383.85 46.9719C1395.72 46.9719 1399.11 88.3042 1399.11 139.29Z" fill="white"/>
<path d="M1414.36 139.29C1413.41 268.484 1380.27 270.388 1383.85 270.388C1414.36 270.388 1432 222.15 1432 129.189C1429.62 -6.67602 1394.02 8.19189 1383.85 8.1917C1383.85 8.1917 1415.31 10.096 1414.36 139.29Z" fill="#D9D9D9"/>
<g style="mix-blend-mode:plus-lighter">
<path d="M1386.39 219.52C1385.33 219.52 1384.55 218.954 1384.07 218.453C1383.59 217.951 1383.22 217.323 1382.93 216.7C1382.33 215.442 1381.81 213.719 1381.34 211.679C1380.4 207.565 1379.57 201.699 1378.87 194.55C1377.48 180.228 1376.63 160.491 1376.63 138.724C1376.63 116.956 1377.48 97.2196 1378.87 82.8974C1379.57 75.7488 1380.4 69.8826 1381.34 65.7688C1381.81 63.7292 1382.33 62.0058 1382.93 60.7479C1383.22 60.125 1383.59 59.4971 1384.07 58.9952C1384.55 58.4935 1385.33 57.9279 1386.39 57.9279C1387.46 57.9279 1388.24 58.4935 1388.72 58.9952C1389.2 59.4971 1389.57 60.125 1389.86 60.7479C1390.46 62.0058 1390.98 63.7292 1391.45 65.7688C1392.39 69.8826 1393.22 75.7488 1393.91 82.8974C1395.3 97.2196 1396.16 116.956 1396.16 138.724C1396.16 160.491 1395.3 180.228 1393.91 194.55C1393.22 201.699 1392.39 207.565 1391.45 211.679C1390.98 213.719 1390.46 215.442 1389.86 216.7C1389.57 217.323 1389.2 217.951 1388.72 218.453C1388.24 218.954 1387.46 219.52 1386.39 219.52Z" fill="#02FFFF"/>
<path d="M1386.39 219.52C1385.33 219.52 1384.55 218.954 1384.07 218.453C1383.59 217.951 1383.22 217.323 1382.93 216.7C1382.33 215.442 1381.81 213.719 1381.34 211.679C1380.4 207.565 1379.57 201.699 1378.87 194.55C1377.48 180.228 1376.63 160.491 1376.63 138.724C1376.63 116.956 1377.48 97.2196 1378.87 82.8974C1379.57 75.7488 1380.4 69.8826 1381.34 65.7688C1381.81 63.7292 1382.33 62.0058 1382.93 60.7479C1383.22 60.125 1383.59 59.4971 1384.07 58.9952C1384.55 58.4935 1385.33 57.9279 1386.39 57.9279C1387.46 57.9279 1388.24 58.4935 1388.72 58.9952C1389.2 59.4971 1389.57 60.125 1389.86 60.7479C1390.46 62.0058 1390.98 63.7292 1391.45 65.7688C1392.39 69.8826 1393.22 75.7488 1393.91 82.8974C1395.3 97.2196 1396.16 116.956 1396.16 138.724C1396.16 160.491 1395.3 180.228 1393.91 194.55C1393.22 201.699 1392.39 207.565 1391.45 211.679C1390.98 213.719 1390.46 215.442 1389.86 216.7C1389.57 217.323 1389.2 217.951 1388.72 218.453C1388.24 218.954 1387.46 219.52 1386.39 219.52Z" stroke="#0E136E" stroke-width="4.27405"/>
</g>
<path d="M1358.43 141.107C1358.43 193.765 1370.94 236.452 1383.02 236.452C1395.09 236.452 1399.11 193.765 1399.11 141.107C1399.11 88.4502 1395.09 45.7632 1383.02 45.7632C1370.94 45.7632 1358.43 88.4502 1358.43 141.107ZM1399.11 141.107C1399.11 179.869 1394.63 226.673 1385.75 226.673C1376.86 226.673 1372.09 182.314 1372.09 143.552C1372.09 104.79 1374.13 53.0974 1383.02 53.0974C1391.9 53.0974 1399.11 102.345 1399.11 141.107Z" fill="#D9D9D9"/>
<g filter="url(#filter0_f_2001_891)">
<path d="M41 147.481C41 118.686 67.2128 97.0062 95.4962 102.409L220.561 126.299L379.188 135.758L570 147.481L379.188 147.481L220.561 161.398L75.2935 178.065C57.0214 180.161 41 165.873 41 147.481Z" fill="url(#paint0_diamond_2001_891)"/>
</g>
<g style="mix-blend-mode:plus-lighter" opacity="0.5" filter="url(#filter1_f_2001_891)">
<path d="M223.194 91L144.513 91C116.063 91 93 114.063 93 142.513C93 174.053 121.089 198.188 152.269 193.439L384.581 158.056L223.194 91Z" fill="#02FFFF"/>
</g>
<g style="mix-blend-mode:plus-lighter" filter="url(#filter2_f_2001_891)">
<path d="M1399 135.252C1397.91 98.4537 1356.87 77.1255 1326.13 97.3847L1302.2 113.157C1291.91 119.939 1279.85 123.555 1267.53 123.555L1167.57 123.555L1037 135.252L1167.57 135.252L1261.41 141.212C1277.88 142.259 1293.93 146.906 1308.42 154.828L1393.73 201.479C1395.31 202.346 1397.3 201.889 1398.34 200.415C1398.77 199.812 1399 199.091 1399 198.352V135.252Z" fill="url(#paint1_diamond_2001_891)"/>
</g>
<g style="mix-blend-mode:plus-lighter" opacity="0.5" filter="url(#filter3_f_2001_891)">
<path d="M1260.41 79L1313.74 79C1341.5 79 1364 101.501 1364 129.257C1364 160.787 1335.3 184.53 1304.33 178.626L1132 145.776L1260.41 79Z" fill="#02FFFF"/>
</g>
<defs>
<filter id="filter0_f_2001_891" x="-55.3031" y="5.27653" width="721.606" height="269.296" filterUnits="userSpaceOnUse" color-interpolation-filters="sRGB">
<feFlood flood-opacity="0" result="BackgroundImageFix"/>
<feBlend mode="normal" in="SourceGraphic" in2="BackgroundImageFix" result="shape"/>
<feGaussianBlur stdDeviation="48.1515" result="effect1_foregroundBlur_2001_891"/>
</filter>
<filter id="filter1_f_2001_891" x="14.341" y="12.341" width="448.899" height="260.355" filterUnits="userSpaceOnUse" color-interpolation-filters="sRGB">
<feFlood flood-opacity="0" result="BackgroundImageFix"/>
<feBlend mode="normal" in="SourceGraphic" in2="BackgroundImageFix" result="shape"/>
<feGaussianBlur stdDeviation="39.3295" result="effect1_foregroundBlur_2001_891"/>
</filter>
<filter id="filter2_f_2001_891" x="968.919" y="21.4734" width="498.162" height="248.524" filterUnits="userSpaceOnUse" color-interpolation-filters="sRGB">
<feFlood flood-opacity="0" result="BackgroundImageFix"/>
<feBlend mode="normal" in="SourceGraphic" in2="BackgroundImageFix" result="shape"/>
<feGaussianBlur stdDeviation="34.0404" result="effect1_foregroundBlur_2001_891"/>
</filter>
<filter id="filter3_f_2001_891" x="1053.34" y="0.340958" width="389.318" height="257.849" filterUnits="userSpaceOnUse" color-interpolation-filters="sRGB">
<feFlood flood-opacity="0" result="BackgroundImageFix"/>
<feBlend mode="normal" in="SourceGraphic" in2="BackgroundImageFix" result="shape"/>
<feGaussianBlur stdDeviation="39.3295" result="effect1_foregroundBlur_2001_891"/>
</filter>
<radialGradient id="paint0_diamond_2001_891" cx="0" cy="0" r="1" gradientUnits="userSpaceOnUse" gradientTransform="translate(244.059 118.606) rotate(-7.45609) scale(176.801 42.2191)">
<stop stop-color="white"/>
<stop offset="0.752432" stop-color="white"/>
</radialGradient>
<radialGradient id="paint1_diamond_2001_891" cx="0" cy="0" r="1" gradientUnits="userSpaceOnUse" gradientTransform="translate(1260.04 106.44) rotate(-169.196) scale(122.129 41.7333)">
<stop stop-color="white"/>
<stop offset="0.752432" stop-color="white"/>
</radialGradient>
</defs>
</svg>
