<svg width="1440" height="293" viewBox="0 0 1440 293" fill="none" xmlns="http://www.w3.org/2000/svg">
<path d="M86.6591 138.578C86.6591 210.981 72.9992 269.676 56.1489 269.676C39.2987 269.676 24.6853 205.735 24.6853 133.331C24.6853 60.9275 39.2987 7.47949 56.1489 7.47949C72.9992 7.47949 86.6591 66.1742 86.6591 138.578ZM40.8939 138.578C40.8939 189.564 44.2831 230.896 56.1489 230.896C68.0148 230.896 77.6339 189.564 77.6339 138.578C77.6339 87.5918 68.0148 46.2595 56.1489 46.2595C44.2831 46.2595 40.8939 87.5918 40.8939 138.578Z" fill="white"/>
<path d="M25.6387 138.578C26.5921 267.772 59.731 269.676 56.1488 269.676C25.6387 269.676 8 221.438 8 128.477C10.3836 -7.38842 45.9788 7.47949 56.1488 7.4793C56.1488 7.4793 24.6852 9.3836 25.6387 138.578Z" fill="#D9D9D9"/>
<g style="mix-blend-mode:plus-lighter">
<path d="M53.6065 219.054C54.7643 219.054 55.6055 218.439 56.1103 217.91C56.6153 217.382 56.9972 216.727 57.2977 216.093C57.9054 214.811 58.4299 213.067 58.8988 211.022C59.8455 206.893 60.679 201.014 61.3725 193.862C62.7623 179.529 63.6177 159.784 63.6177 138.011C63.6177 116.239 62.7623 96.4936 61.3725 82.1612C60.679 75.009 59.8455 69.1304 58.8988 65.0013C58.4299 62.956 57.9054 61.2121 57.2977 59.9299C56.9972 59.2956 56.6153 58.6413 56.1103 58.1126C55.6055 57.5839 54.7643 56.9689 53.6065 56.9689C52.4488 56.9689 51.6075 57.5839 51.1027 58.1126C50.5978 58.6414 50.2159 59.2956 49.9153 59.9299C49.3077 61.2121 48.7831 62.956 48.3142 65.0013C47.3676 69.1304 46.5341 75.009 45.8406 82.1612C44.4508 96.4936 43.5954 116.239 43.5954 138.011C43.5954 159.784 44.4508 179.529 45.8406 193.862C46.5341 201.014 47.3676 206.893 48.3142 211.022C48.7831 213.067 49.3077 214.811 49.9153 216.093C50.2159 216.727 50.5978 217.382 51.1027 217.91C51.6075 218.439 52.4488 219.054 53.6065 219.054Z" fill="#02FFFF"/>
<path d="M53.6065 219.054C54.7643 219.054 55.6055 218.439 56.1103 217.91C56.6153 217.382 56.9972 216.727 57.2977 216.093C57.9054 214.811 58.4299 213.067 58.8988 211.022C59.8455 206.893 60.679 201.014 61.3725 193.862C62.7623 179.529 63.6177 159.784 63.6177 138.011C63.6177 116.239 62.7623 96.4936 61.3725 82.1612C60.679 75.009 59.8455 69.1304 58.8988 65.0013C58.4299 62.956 57.9054 61.2121 57.2977 59.9299C56.9972 59.2956 56.6153 58.6413 56.1103 58.1126C55.6055 57.5839 54.7643 56.9689 53.6065 56.9689C52.4488 56.9689 51.6075 57.5839 51.1027 58.1126C50.5978 58.6414 50.2159 59.2956 49.9153 59.9299C49.3077 61.2121 48.7831 62.956 48.3142 65.0013C47.3676 69.1304 46.5341 75.009 45.8406 82.1612C44.4508 96.4936 43.5954 116.239 43.5954 138.011C43.5954 159.784 44.4508 179.529 45.8406 193.862C46.5341 201.014 47.3676 206.893 48.3142 211.022C48.7831 213.067 49.3077 214.811 49.9153 216.093C50.2159 216.727 50.5978 217.382 51.1027 217.91C51.6075 218.439 52.4488 219.054 53.6065 219.054Z" stroke="#0E136E" stroke-width="4.76721"/>
</g>
<path d="M81.574 140.395C81.574 193.052 69.0556 235.739 56.9838 235.739C44.912 235.739 40.8939 193.052 40.8939 140.395C40.8939 87.7378 44.912 45.0508 56.9838 45.0508C69.0556 45.0508 81.574 87.7378 81.574 140.395ZM40.8939 140.395C40.8939 179.157 45.3653 225.96 54.2516 225.96C63.1379 225.96 67.9128 181.602 67.9128 142.84C67.9128 104.078 65.8701 52.3849 56.9838 52.3849C48.0975 52.3849 40.8939 101.633 40.8939 140.395Z" fill="#D9D9D9"/>
<path d="M1353.34 141.29C1353.34 213.694 1367 272.388 1383.85 272.388C1400.7 272.388 1415.31 208.447 1415.31 136.043C1415.31 63.6399 1400.7 10.1919 1383.85 10.1919C1367 10.1919 1353.34 68.8866 1353.34 141.29ZM1399.11 141.29C1399.11 192.276 1395.72 233.608 1383.85 233.608C1371.99 233.608 1362.37 192.276 1362.37 141.29C1362.37 90.3042 1371.99 48.9719 1383.85 48.9719C1395.72 48.9719 1399.11 90.3042 1399.11 141.29Z" fill="white"/>
<path d="M1414.36 141.29C1413.41 270.484 1380.27 272.388 1383.85 272.388C1414.36 272.388 1432 224.15 1432 131.189C1429.62 -4.67602 1394.02 10.1919 1383.85 10.1917C1383.85 10.1917 1415.31 12.096 1414.36 141.29Z" fill="#D9D9D9"/>
<g style="mix-blend-mode:plus-lighter">
<path d="M1386.39 221.52C1385.33 221.52 1384.55 220.954 1384.07 220.453C1383.59 219.951 1383.22 219.323 1382.93 218.7C1382.33 217.442 1381.81 215.719 1381.34 213.679C1380.4 209.565 1379.57 203.699 1378.87 196.55C1377.48 182.228 1376.63 162.491 1376.63 140.724C1376.63 118.956 1377.48 99.2196 1378.87 84.8974C1379.57 77.7488 1380.4 71.8826 1381.34 67.7688C1381.81 65.7292 1382.33 64.0058 1382.93 62.7479C1383.22 62.125 1383.59 61.4971 1384.07 60.9952C1384.55 60.4935 1385.33 59.9279 1386.39 59.9279C1387.46 59.9279 1388.24 60.4935 1388.72 60.9952C1389.2 61.4971 1389.57 62.125 1389.86 62.7479C1390.46 64.0058 1390.98 65.7292 1391.45 67.7688C1392.39 71.8826 1393.22 77.7488 1393.91 84.8974C1395.3 99.2196 1396.16 118.956 1396.16 140.724C1396.16 162.491 1395.3 182.228 1393.91 196.55C1393.22 203.699 1392.39 209.565 1391.45 213.679C1390.98 215.719 1390.46 217.442 1389.86 218.7C1389.57 219.323 1389.2 219.951 1388.72 220.453C1388.24 220.954 1387.46 221.52 1386.39 221.52Z" fill="#02FFFF"/>
<path d="M1386.39 221.52C1385.33 221.52 1384.55 220.954 1384.07 220.453C1383.59 219.951 1383.22 219.323 1382.93 218.7C1382.33 217.442 1381.81 215.719 1381.34 213.679C1380.4 209.565 1379.57 203.699 1378.87 196.55C1377.48 182.228 1376.63 162.491 1376.63 140.724C1376.63 118.956 1377.48 99.2196 1378.87 84.8974C1379.57 77.7488 1380.4 71.8826 1381.34 67.7688C1381.81 65.7292 1382.33 64.0058 1382.93 62.7479C1383.22 62.125 1383.59 61.4971 1384.07 60.9952C1384.55 60.4935 1385.33 59.9279 1386.39 59.9279C1387.46 59.9279 1388.24 60.4935 1388.72 60.9952C1389.2 61.4971 1389.57 62.125 1389.86 62.7479C1390.46 64.0058 1390.98 65.7292 1391.45 67.7688C1392.39 71.8826 1393.22 77.7488 1393.91 84.8974C1395.3 99.2196 1396.16 118.956 1396.16 140.724C1396.16 162.491 1395.3 182.228 1393.91 196.55C1393.22 203.699 1392.39 209.565 1391.45 213.679C1390.98 215.719 1390.46 217.442 1389.86 218.7C1389.57 219.323 1389.2 219.951 1388.72 220.453C1388.24 220.954 1387.46 221.52 1386.39 221.52Z" stroke="#0E136E" stroke-width="4.27405"/>
</g>
<path d="M1358.43 143.107C1358.43 195.765 1370.94 238.452 1383.02 238.452C1395.09 238.452 1399.11 195.765 1399.11 143.107C1399.11 90.4502 1395.09 47.7632 1383.02 47.7632C1370.94 47.7632 1358.43 90.4502 1358.43 143.107ZM1399.11 143.107C1399.11 181.869 1394.63 228.673 1385.75 228.673C1376.86 228.673 1372.09 184.314 1372.09 145.552C1372.09 106.79 1374.13 55.0974 1383.02 55.0974C1391.9 55.0974 1399.11 104.345 1399.11 143.107Z" fill="#D9D9D9"/>
<g filter="url(#filter0_f_166_1148)">
<path d="M70 165.482C70 136.687 96.2128 115.007 124.496 120.41L249.561 144.3L408.188 153.759L599 165.482L408.188 165.482L249.561 179.399L104.294 196.066C86.0214 198.162 70 183.874 70 165.482Z" fill="url(#paint0_diamond_166_1148)"/>
</g>
<g filter="url(#filter1_f_166_1148)">
<path d="M1410.3 149.121C1410.3 119.055 1385.08 95.1426 1355.05 96.745L1085.21 111.147C1076.93 111.588 1075.03 122.953 1082.7 126.068L1093.62 130.497C1099.17 132.748 1097.56 140.999 1091.57 140.999L1376.18 178.988C1394.25 181.399 1410.3 167.346 1410.3 149.121Z" fill="url(#paint1_diamond_166_1148)"/>
</g>
<g style="mix-blend-mode:plus-lighter" filter="url(#filter2_f_166_1148)">
<path d="M1399 148.864C1399 119.951 1373.33 97.782 1344.72 101.997L1303.87 108.016C1299.3 108.69 1294.79 109.744 1290.39 111.167L1257.88 121.693C1225.89 132.051 1192.92 139.101 1159.49 142.731L1103 148.864H1137.12C1185.39 148.864 1233.5 154.436 1280.49 165.468L1282.47 165.932L1365.23 178.052C1383.03 180.66 1399 166.858 1399 148.864Z" fill="url(#paint2_diamond_166_1148)"/>
</g>
<g filter="url(#filter3_f_166_1148)">
<path d="M46 147.252C47.4533 108.18 89.1737 83.9956 123.801 102.153L168.903 125.803C181.119 132.209 194.705 135.555 208.498 135.555L336.88 135.555L501 147.252L336.88 147.252L217.78 153.271C197.758 154.283 178.082 158.898 159.698 166.897L51.9599 213.77C50.2734 214.504 48.3063 214.073 47.0817 212.701C46.385 211.92 46 210.91 46 209.864L46 147.252Z" fill="url(#paint3_diamond_166_1148)"/>
</g>
<g style="mix-blend-mode:plus-lighter" opacity="0.5" filter="url(#filter4_f_166_1148)">
<path d="M162.194 99L83.513 99C55.0631 99 32 122.063 32 150.513C32 182.053 60.0887 206.188 91.2694 201.439L323.581 166.056L162.194 99Z" fill="#02FFFF"/>
</g>
<defs>
<filter id="filter0_f_166_1148" x="-26.3031" y="23.2775" width="721.606" height="269.296" filterUnits="userSpaceOnUse" color-interpolation-filters="sRGB">
<feFlood flood-opacity="0" result="BackgroundImageFix"/>
<feBlend mode="normal" in="SourceGraphic" in2="BackgroundImageFix" result="shape"/>
<feGaussianBlur stdDeviation="48.1515" result="effect1_foregroundBlur_166_1148"/>
</filter>
<filter id="filter1_f_166_1148" x="981.559" y="0.365883" width="525.045" height="275.195" filterUnits="userSpaceOnUse" color-interpolation-filters="sRGB">
<feFlood flood-opacity="0" result="BackgroundImageFix"/>
<feBlend mode="normal" in="SourceGraphic" in2="BackgroundImageFix" result="shape"/>
<feGaussianBlur stdDeviation="48.1515" result="effect1_foregroundBlur_166_1148"/>
</filter>
<filter id="filter2_f_166_1148" x="1034.92" y="33.4002" width="432.162" height="213.05" filterUnits="userSpaceOnUse" color-interpolation-filters="sRGB">
<feFlood flood-opacity="0" result="BackgroundImageFix"/>
<feBlend mode="normal" in="SourceGraphic" in2="BackgroundImageFix" result="shape"/>
<feGaussianBlur stdDeviation="34.0404" result="effect1_foregroundBlur_166_1148"/>
</filter>
<filter id="filter3_f_166_1148" x="-22.0808" y="27.929" width="591.162" height="254.276" filterUnits="userSpaceOnUse" color-interpolation-filters="sRGB">
<feFlood flood-opacity="0" result="BackgroundImageFix"/>
<feBlend mode="normal" in="SourceGraphic" in2="BackgroundImageFix" result="shape"/>
<feGaussianBlur stdDeviation="34.0404" result="effect1_foregroundBlur_166_1148"/>
</filter>
<filter id="filter4_f_166_1148" x="-46.659" y="20.341" width="448.899" height="260.355" filterUnits="userSpaceOnUse" color-interpolation-filters="sRGB">
<feFlood flood-opacity="0" result="BackgroundImageFix"/>
<feBlend mode="normal" in="SourceGraphic" in2="BackgroundImageFix" result="shape"/>
<feGaussianBlur stdDeviation="39.3295" result="effect1_foregroundBlur_166_1148"/>
</filter>
<radialGradient id="paint0_diamond_166_1148" cx="0" cy="0" r="1" gradientUnits="userSpaceOnUse" gradientTransform="translate(273.059 136.607) rotate(-7.45609) scale(176.801 42.2191)">
<stop stop-color="white"/>
<stop offset="0.752432" stop-color="white"/>
</radialGradient>
<radialGradient id="paint1_diamond_166_1148" cx="0" cy="0" r="1" gradientUnits="userSpaceOnUse" gradientTransform="translate(1055.27 120.328) rotate(-175.731) scale(307.364 42.341)">
<stop stop-color="white"/>
<stop offset="0.752432" stop-color="white"/>
</radialGradient>
<radialGradient id="paint2_diamond_166_1148" cx="0" cy="0" r="1" gradientUnits="userSpaceOnUse" gradientTransform="translate(1285.38 120.31) rotate(-166.977) scale(100.682 41.023)">
<stop stop-color="white"/>
<stop offset="0.752432" stop-color="white"/>
</radialGradient>
<radialGradient id="paint3_diamond_166_1148" cx="0" cy="0" r="1" gradientUnits="userSpaceOnUse" gradientTransform="translate(220.654 118.44) rotate(-8.63308) scale(152.511 42.005)">
<stop stop-color="white"/>
<stop offset="0.752432" stop-color="white"/>
</radialGradient>
</defs>
</svg>
