<svg width="109" height="109" viewBox="0 0 109 109" fill="none" xmlns="http://www.w3.org/2000/svg">
<g clip-path="url(#clip0_291_4158)">
<path d="M73.3731 71.1234C72.2372 63.4087 70.8358 55.6507 69.4002 47.9901C66.4774 51.1759 64.2285 54.563 61.9497 58.2407C58.9039 56.0341 53.512 53.6581 49.8945 52.691C48.0654 57.1483 46.9986 60.9778 46.008 65.6006C42.3581 64.5797 38.9001 64.0339 35.0954 63.952C38.9775 70.1465 43.2451 76.0441 47.8549 81.7161C51.0791 78.8395 53.6037 77.8898 56.9345 76.3681C62.6557 73.7506 67.1807 72.4577 73.3735 71.1222L73.3731 71.1234Z" stroke="#FFF05A" stroke-width="2.90356" stroke-miterlimit="1.5" stroke-linecap="round" stroke-linejoin="round"/>
<path d="M19.2324 67.1956C21.2427 67.1089 23.261 67.0941 25.2679 66.9673" stroke="#FFF05A" stroke-width="2.90356" stroke-miterlimit="1.5" stroke-linecap="round" stroke-linejoin="round"/>
<path d="M27.9004 40.6255C29.4433 42.2451 31.1063 43.7377 32.6704 45.332" stroke="#FFF05A" stroke-width="2.90356" stroke-miterlimit="1.5" stroke-linecap="round" stroke-linejoin="round"/>
<path d="M53.2069 36.4295C53.6535 33.4179 53.7925 30.3711 54.2311 27.359" stroke="#FFF05A" stroke-width="2.90356" stroke-miterlimit="1.5" stroke-linecap="round" stroke-linejoin="round"/>
<path d="M80.8795 43.2223C82.941 41.0246 85.0737 38.8191 86.9327 36.4434" stroke="#FFF05A" stroke-width="2.90356" stroke-miterlimit="1.5" stroke-linecap="round" stroke-linejoin="round"/>
<path d="M70.1781 52.215C71.2237 51.2495 72.1928 50.1897 73.2769 49.2677" stroke="#FFF05A" stroke-width="2.90356" stroke-miterlimit="1.5" stroke-linecap="round" stroke-linejoin="round"/>
<path d="M71.7849 60.992C73.1018 59.5624 74.4585 58.1855 75.7965 56.7808" stroke="#FFF05A" stroke-width="2.90356" stroke-miterlimit="1.5" stroke-linecap="round" stroke-linejoin="round"/>
<path d="M73.202 69.9725C74.4802 68.5998 75.7803 67.24 77.0133 65.8266" stroke="#FFF05A" stroke-width="2.90356" stroke-miterlimit="1.5" stroke-linecap="round" stroke-linejoin="round"/>
<path d="M66.5986 76.9549C68.2471 75.1421 69.859 73.2674 71.5902 71.5336" stroke="#FFF05A" stroke-width="2.90356" stroke-miterlimit="1.5" stroke-linecap="round" stroke-linejoin="round"/>
<path d="M59.4467 75.2858C57.6681 77.4403 55.7182 79.6188 54.2447 81.9998" stroke="#FFF05A" stroke-width="2.90356" stroke-miterlimit="1.5" stroke-linecap="round" stroke-linejoin="round"/>
</g>
<defs>
<clipPath id="clip0_291_4158">
<rect width="82.959" height="82.959" fill="white" transform="translate(0 32.2588) rotate(-22.883)"/>
</clipPath>
</defs>
</svg>
