<svg width="194" height="93" viewBox="0 0 194 93" fill="none" xmlns="http://www.w3.org/2000/svg">
<path d="M0.5 12.2071L8.20711 4.5H185.793L193.5 12.2071V79.7929L185.793 87.5H8.20711L0.5 79.7929V12.2071Z" fill="#07040B" stroke="#6B6526"/>
<path d="M24.1644 5.01361C24.6466 2.12048 27.1497 0 30.0828 0H55.9172C58.8503 0 61.3534 2.12048 61.8356 5.01361L62 6H24L24.1644 5.01361Z" fill="#FFF05A"/>
<path d="M22.2683 90.3583C23.384 92.0101 25.2472 93 27.2404 93H166.76C168.753 93 170.616 92.0101 171.732 90.3583L174 87H20L22.2683 90.3583Z" fill="#FFF05A"/>
<path d="M132.164 5.01361C132.647 2.12048 135.15 0 138.083 0H163.917C166.85 0 169.353 2.12048 169.836 5.01361L170 6H132L132.164 5.01361Z" fill="#FFF05A"/>
</svg>
