<svg width="497" height="278" viewBox="0 0 497 278" fill="none" xmlns="http://www.w3.org/2000/svg">
<path d="M6 272H5V273H6V272ZM0.666667 12C0.666667 14.9455 3.05448 17.3333 6 17.3333C8.94552 17.3333 11.3333 14.9455 11.3333 12C11.3333 9.05448 8.94552 6.66667 6 6.66667C3.05448 6.66667 0.666667 9.05448 0.666667 12ZM5 17C5 17.5523 5.44772 18 6 18C6.55228 18 7 17.5523 7 17H5ZM7 27C7 26.4477 6.55228 26 6 26C5.44772 26 5 26.4477 5 27H7ZM5 37C5 37.5523 5.44772 38 6 38C6.55228 38 7 37.5523 7 37H5ZM7 47C7 46.4477 6.55228 46 6 46C5.44772 46 5 46.4477 5 47H7ZM5 57C5 57.5523 5.44772 58 6 58C6.55228 58 7 57.5523 7 57H5ZM7 67C7 66.4477 6.55228 66 6 66C5.44772 66 5 66.4477 5 67H7ZM5 77C5 77.5523 5.44772 78 6 78C6.55228 78 7 77.5523 7 77H5ZM7 87C7 86.4477 6.55228 86 6 86C5.44772 86 5 86.4477 5 87H7ZM5 97C5 97.5523 5.44772 98 6 98C6.55228 98 7 97.5523 7 97H5ZM7 107C7 106.448 6.55228 106 6 106C5.44772 106 5 106.448 5 107H7ZM5 117C5 117.552 5.44772 118 6 118C6.55228 118 7 117.552 7 117H5ZM7 127C7 126.448 6.55228 126 6 126C5.44772 126 5 126.448 5 127H7ZM5 137C5 137.552 5.44772 138 6 138C6.55228 138 7 137.552 7 137H5ZM7 147C7 146.448 6.55228 146 6 146C5.44772 146 5 146.448 5 147H7ZM5 157C5 157.552 5.44772 158 6 158C6.55228 158 7 157.552 7 157H5ZM7 167C7 166.448 6.55228 166 6 166C5.44772 166 5 166.448 5 167H7ZM5 177C5 177.552 5.44772 178 6 178C6.55228 178 7 177.552 7 177H5ZM7 187C7 186.448 6.55228 186 6 186C5.44772 186 5 186.448 5 187H7ZM5 197C5 197.552 5.44772 198 6 198C6.55228 198 7 197.552 7 197H5ZM7 207C7 206.448 6.55228 206 6 206C5.44772 206 5 206.448 5 207H7ZM5 217C5 217.552 5.44772 218 6 218C6.55228 218 7 217.552 7 217H5ZM7 227C7 226.448 6.55228 226 6 226C5.44772 226 5 226.448 5 227H7ZM5 237C5 237.552 5.44772 238 6 238C6.55228 238 7 237.552 7 237H5ZM7 247C7 246.448 6.55228 246 6 246C5.44772 246 5 246.448 5 247H7ZM5 257C5 257.552 5.44772 258 6 258C6.55228 258 7 257.552 7 257H5ZM7 267C7 266.448 6.55228 266 6 266C5.44772 266 5 266.448 5 267H7ZM11 273C11.5523 273 12 272.552 12 272C12 271.448 11.5523 271 11 271V273ZM21 271C20.4477 271 20 271.448 20 272C20 272.552 20.4477 273 21 273V271ZM31 273C31.5523 273 32 272.552 32 272C32 271.448 31.5523 271 31 271V273ZM41 271C40.4477 271 40 271.448 40 272C40 272.552 40.4477 273 41 273V271ZM51 273C51.5523 273 52 272.552 52 272C52 271.448 51.5523 271 51 271V273ZM61 271C60.4477 271 60 271.448 60 272C60 272.552 60.4477 273 61 273V271ZM71 273C71.5523 273 72 272.552 72 272C72 271.448 71.5523 271 71 271V273ZM81 271C80.4477 271 80 271.448 80 272C80 272.552 80.4477 273 81 273V271ZM91 273C91.5523 273 92 272.552 92 272C92 271.448 91.5523 271 91 271V273ZM101 271C100.448 271 100 271.448 100 272C100 272.552 100.448 273 101 273V271ZM111 273C111.552 273 112 272.552 112 272C112 271.448 111.552 271 111 271V273ZM121 271C120.448 271 120 271.448 120 272C120 272.552 120.448 273 121 273V271ZM131 273C131.552 273 132 272.552 132 272C132 271.448 131.552 271 131 271V273ZM141 271C140.448 271 140 271.448 140 272C140 272.552 140.448 273 141 273V271ZM151 273C151.552 273 152 272.552 152 272C152 271.448 151.552 271 151 271V273ZM161 271C160.448 271 160 271.448 160 272C160 272.552 160.448 273 161 273V271ZM171 273C171.552 273 172 272.552 172 272C172 271.448 171.552 271 171 271V273ZM181 271C180.448 271 180 271.448 180 272C180 272.552 180.448 273 181 273V271ZM191 273C191.552 273 192 272.552 192 272C192 271.448 191.552 271 191 271V273ZM201 271C200.448 271 200 271.448 200 272C200 272.552 200.448 273 201 273V271ZM211 273C211.552 273 212 272.552 212 272C212 271.448 211.552 271 211 271V273ZM221 271C220.448 271 220 271.448 220 272C220 272.552 220.448 273 221 273V271ZM231 273C231.552 273 232 272.552 232 272C232 271.448 231.552 271 231 271V273ZM241 271C240.448 271 240 271.448 240 272C240 272.552 240.448 273 241 273V271ZM251 273C251.552 273 252 272.552 252 272C252 271.448 251.552 271 251 271V273ZM261 271C260.448 271 260 271.448 260 272C260 272.552 260.448 273 261 273V271ZM271 273C271.552 273 272 272.552 272 272C272 271.448 271.552 271 271 271V273ZM281 271C280.448 271 280 271.448 280 272C280 272.552 280.448 273 281 273V271ZM291 273C291.552 273 292 272.552 292 272C292 271.448 291.552 271 291 271V273ZM301 271C300.448 271 300 271.448 300 272C300 272.552 300.448 273 301 273V271ZM311 273C311.552 273 312 272.552 312 272C312 271.448 311.552 271 311 271V273ZM321 271C320.448 271 320 271.448 320 272C320 272.552 320.448 273 321 273V271ZM331 273C331.552 273 332 272.552 332 272C332 271.448 331.552 271 331 271V273ZM341 271C340.448 271 340 271.448 340 272C340 272.552 340.448 273 341 273V271ZM351 273C351.552 273 352 272.552 352 272C352 271.448 351.552 271 351 271V273ZM361 271C360.448 271 360 271.448 360 272C360 272.552 360.448 273 361 273V271ZM371 273C371.552 273 372 272.552 372 272C372 271.448 371.552 271 371 271V273ZM381 271C380.448 271 380 271.448 380 272C380 272.552 380.448 273 381 273V271ZM391 273C391.552 273 392 272.552 392 272C392 271.448 391.552 271 391 271V273ZM401 271C400.448 271 400 271.448 400 272C400 272.552 400.448 273 401 273V271ZM411 273C411.552 273 412 272.552 412 272C412 271.448 411.552 271 411 271V273ZM421 271C420.448 271 420 271.448 420 272C420 272.552 420.448 273 421 273V271ZM5 12V17H7V12H5ZM5 27V37H7V27H5ZM5 47V57H7V47H5ZM5 67V77H7V67H5ZM5 87V97H7V87H5ZM5 107V117H7V107H5ZM5 127V137H7V127H5ZM5 147V157H7V147H5ZM5 167V177H7V167H5ZM5 187V197H7V187H5ZM5 207V217H7V207H5ZM5 227V237H7V227H5ZM5 247V257H7V247H5ZM5 267V272H7V267H5ZM6 273H11V271H6V273ZM21 273H31V271H21V273ZM41 273H51V271H41V273ZM61 273H71V271H61V273ZM81 273H91V271H81V273ZM101 273H111V271H101V273ZM121 273H131V271H121V273ZM141 273H151V271H141V273ZM161 273H171V271H161V273ZM181 273H191V271H181V273ZM201 273H211V271H201V273ZM221 273H231V271H221V273ZM241 273H251V271H241V273ZM261 273H271V271H261V273ZM281 273H291V271H281V273ZM301 273H311V271H301V273ZM321 273H331V271H321V273ZM341 273H351V271H341V273ZM361 273H371V271H361V273ZM381 273H391V271H381V273ZM401 273H411V271H401V273ZM421 273H426V271H421V273ZM6 272H5V273H6V272ZM0.666667 12C0.666667 14.9455 3.05448 17.3333 6 17.3333C8.94552 17.3333 11.3333 14.9455 11.3333 12C11.3333 9.05448 8.94552 6.66667 6 6.66667C3.05448 6.66667 0.666667 9.05448 0.666667 12ZM5 17C5 17.5523 5.44772 18 6 18C6.55228 18 7 17.5523 7 17H5ZM7 27C7 26.4477 6.55228 26 6 26C5.44772 26 5 26.4477 5 27H7ZM5 37C5 37.5523 5.44772 38 6 38C6.55228 38 7 37.5523 7 37H5ZM7 47C7 46.4477 6.55228 46 6 46C5.44772 46 5 46.4477 5 47H7ZM5 57C5 57.5523 5.44772 58 6 58C6.55228 58 7 57.5523 7 57H5ZM7 67C7 66.4477 6.55228 66 6 66C5.44772 66 5 66.4477 5 67H7ZM5 77C5 77.5523 5.44772 78 6 78C6.55228 78 7 77.5523 7 77H5ZM7 87C7 86.4477 6.55228 86 6 86C5.44772 86 5 86.4477 5 87H7ZM5 97C5 97.5523 5.44772 98 6 98C6.55228 98 7 97.5523 7 97H5ZM7 107C7 106.448 6.55228 106 6 106C5.44772 106 5 106.448 5 107H7ZM5 117C5 117.552 5.44772 118 6 118C6.55228 118 7 117.552 7 117H5ZM7 127C7 126.448 6.55228 126 6 126C5.44772 126 5 126.448 5 127H7ZM5 137C5 137.552 5.44772 138 6 138C6.55228 138 7 137.552 7 137H5ZM7 147C7 146.448 6.55228 146 6 146C5.44772 146 5 146.448 5 147H7ZM5 157C5 157.552 5.44772 158 6 158C6.55228 158 7 157.552 7 157H5ZM7 167C7 166.448 6.55228 166 6 166C5.44772 166 5 166.448 5 167H7ZM5 177C5 177.552 5.44772 178 6 178C6.55228 178 7 177.552 7 177H5ZM7 187C7 186.448 6.55228 186 6 186C5.44772 186 5 186.448 5 187H7ZM5 197C5 197.552 5.44772 198 6 198C6.55228 198 7 197.552 7 197H5ZM7 207C7 206.448 6.55228 206 6 206C5.44772 206 5 206.448 5 207H7ZM5 217C5 217.552 5.44772 218 6 218C6.55228 218 7 217.552 7 217H5ZM7 227C7 226.448 6.55228 226 6 226C5.44772 226 5 226.448 5 227H7ZM5 237C5 237.552 5.44772 238 6 238C6.55228 238 7 237.552 7 237H5ZM7 247C7 246.448 6.55228 246 6 246C5.44772 246 5 246.448 5 247H7ZM5 257C5 257.552 5.44772 258 6 258C6.55228 258 7 257.552 7 257H5ZM7 267C7 266.448 6.55228 266 6 266C5.44772 266 5 266.448 5 267H7ZM11 273C11.5523 273 12 272.552 12 272C12 271.448 11.5523 271 11 271V273ZM21 271C20.4477 271 20 271.448 20 272C20 272.552 20.4477 273 21 273V271ZM31 273C31.5523 273 32 272.552 32 272C32 271.448 31.5523 271 31 271V273ZM41 271C40.4477 271 40 271.448 40 272C40 272.552 40.4477 273 41 273V271ZM51 273C51.5523 273 52 272.552 52 272C52 271.448 51.5523 271 51 271V273ZM61 271C60.4477 271 60 271.448 60 272C60 272.552 60.4477 273 61 273V271ZM71 273C71.5523 273 72 272.552 72 272C72 271.448 71.5523 271 71 271V273ZM81 271C80.4477 271 80 271.448 80 272C80 272.552 80.4477 273 81 273V271ZM91 273C91.5523 273 92 272.552 92 272C92 271.448 91.5523 271 91 271V273ZM101 271C100.448 271 100 271.448 100 272C100 272.552 100.448 273 101 273V271ZM111 273C111.552 273 112 272.552 112 272C112 271.448 111.552 271 111 271V273ZM121 271C120.448 271 120 271.448 120 272C120 272.552 120.448 273 121 273V271ZM131 273C131.552 273 132 272.552 132 272C132 271.448 131.552 271 131 271V273ZM141 271C140.448 271 140 271.448 140 272C140 272.552 140.448 273 141 273V271ZM151 273C151.552 273 152 272.552 152 272C152 271.448 151.552 271 151 271V273ZM161 271C160.448 271 160 271.448 160 272C160 272.552 160.448 273 161 273V271ZM171 273C171.552 273 172 272.552 172 272C172 271.448 171.552 271 171 271V273ZM181 271C180.448 271 180 271.448 180 272C180 272.552 180.448 273 181 273V271ZM191 273C191.552 273 192 272.552 192 272C192 271.448 191.552 271 191 271V273ZM201 271C200.448 271 200 271.448 200 272C200 272.552 200.448 273 201 273V271ZM211 273C211.552 273 212 272.552 212 272C212 271.448 211.552 271 211 271V273ZM221 271C220.448 271 220 271.448 220 272C220 272.552 220.448 273 221 273V271ZM231 273C231.552 273 232 272.552 232 272C232 271.448 231.552 271 231 271V273ZM241 271C240.448 271 240 271.448 240 272C240 272.552 240.448 273 241 273V271ZM251 273C251.552 273 252 272.552 252 272C252 271.448 251.552 271 251 271V273ZM261 271C260.448 271 260 271.448 260 272C260 272.552 260.448 273 261 273V271ZM271 273C271.552 273 272 272.552 272 272C272 271.448 271.552 271 271 271V273ZM281 271C280.448 271 280 271.448 280 272C280 272.552 280.448 273 281 273V271ZM291 273C291.552 273 292 272.552 292 272C292 271.448 291.552 271 291 271V273ZM301 271C300.448 271 300 271.448 300 272C300 272.552 300.448 273 301 273V271ZM311 273C311.552 273 312 272.552 312 272C312 271.448 311.552 271 311 271V273ZM321 271C320.448 271 320 271.448 320 272C320 272.552 320.448 273 321 273V271ZM331 273C331.552 273 332 272.552 332 272C332 271.448 331.552 271 331 271V273ZM341 271C340.448 271 340 271.448 340 272C340 272.552 340.448 273 341 273V271ZM351 273C351.552 273 352 272.552 352 272C352 271.448 351.552 271 351 271V273ZM361 271C360.448 271 360 271.448 360 272C360 272.552 360.448 273 361 273V271ZM371 273C371.552 273 372 272.552 372 272C372 271.448 371.552 271 371 271V273ZM381 271C380.448 271 380 271.448 380 272C380 272.552 380.448 273 381 273V271ZM391 273C391.552 273 392 272.552 392 272C392 271.448 391.552 271 391 271V273ZM401 271C400.448 271 400 271.448 400 272C400 272.552 400.448 273 401 273V271ZM411 273C411.552 273 412 272.552 412 272C412 271.448 411.552 271 411 271V273ZM421 271C420.448 271 420 271.448 420 272C420 272.552 420.448 273 421 273V271ZM5 12V17H7V12H5ZM5 27V37H7V27H5ZM5 47V57H7V47H5ZM5 67V77H7V67H5ZM5 87V97H7V87H5ZM5 107V117H7V107H5ZM5 127V137H7V127H5ZM5 147V157H7V147H5ZM5 167V177H7V167H5ZM5 187V197H7V187H5ZM5 207V217H7V207H5ZM5 227V237H7V227H5ZM5 247V257H7V247H5ZM5 267V272H7V267H5ZM6 273H11V271H6V273ZM21 273H31V271H21V273ZM41 273H51V271H41V273ZM61 273H71V271H61V273ZM81 273H91V271H81V273ZM101 273H111V271H101V273ZM121 273H131V271H121V273ZM141 273H151V271H141V273ZM161 273H171V271H161V273ZM181 273H191V271H181V273ZM201 273H211V271H201V273ZM221 273H231V271H221V273ZM241 273H251V271H241V273ZM261 273H271V271H261V273ZM281 273H291V271H281V273ZM301 273H311V271H301V273ZM321 273H331V271H321V273ZM341 273H351V271H341V273ZM361 273H371V271H361V273ZM381 273H391V271H381V273ZM401 273H411V271H401V273ZM421 273H426V271H421V273Z" fill="#8C8432"/>
<path d="M491 1H492V0H491V1ZM485.667 272C485.667 274.946 488.054 277.333 491 277.333C493.946 277.333 496.333 274.946 496.333 272C496.333 269.054 493.946 266.667 491 266.667C488.054 266.667 485.667 269.054 485.667 272ZM243.846 2C244.398 2 244.846 1.55228 244.846 1C244.846 0.447715 244.398 0 243.846 0V2ZM253.538 0C252.986 0 252.538 0.447715 252.538 1C252.538 1.55228 252.986 2 253.538 2V0ZM263.231 2C263.783 2 264.231 1.55228 264.231 1C264.231 0.447715 263.783 0 263.231 0V2ZM272.923 0C272.371 0 271.923 0.447715 271.923 1C271.923 1.55228 272.371 2 272.923 2V0ZM282.615 2C283.168 2 283.615 1.55228 283.615 1C283.615 0.447715 283.168 0 282.615 0V2ZM292.308 0C291.755 0 291.308 0.447715 291.308 1C291.308 1.55228 291.755 2 292.308 2V0ZM302 2C302.552 2 303 1.55228 303 1C303 0.447715 302.552 0 302 0V2ZM311.692 0C311.14 0 310.692 0.447715 310.692 1C310.692 1.55228 311.14 2 311.692 2V0ZM321.385 2C321.937 2 322.385 1.55228 322.385 1C322.385 0.447715 321.937 0 321.385 0V2ZM331.077 0C330.525 0 330.077 0.447715 330.077 1C330.077 1.55228 330.525 2 331.077 2V0ZM340.769 2C341.322 2 341.769 1.55228 341.769 1C341.769 0.447715 341.322 0 340.769 0V2ZM350.462 0C349.909 0 349.462 0.447715 349.462 1C349.462 1.55228 349.909 2 350.462 2V0ZM360.154 2C360.706 2 361.154 1.55228 361.154 1C361.154 0.447715 360.706 0 360.154 0V2ZM369.846 0C369.294 0 368.846 0.447715 368.846 1C368.846 1.55228 369.294 2 369.846 2V0ZM379.538 2C380.091 2 380.538 1.55228 380.538 1C380.538 0.447715 380.091 0 379.538 0V2ZM389.231 0C388.678 0 388.231 0.447715 388.231 1C388.231 1.55228 388.678 2 389.231 2V0ZM398.923 2C399.475 2 399.923 1.55228 399.923 1C399.923 0.447715 399.475 0 398.923 0V2ZM408.615 0C408.063 0 407.615 0.447715 407.615 1C407.615 1.55228 408.063 2 408.615 2V0ZM418.308 2C418.86 2 419.308 1.55228 419.308 1C419.308 0.447715 418.86 0 418.308 0V2ZM428 0C427.448 0 427 0.447715 427 1C427 1.55228 427.448 2 428 2V0ZM437.692 2C438.245 2 438.692 1.55228 438.692 1C438.692 0.447715 438.245 0 437.692 0V2ZM447.385 0C446.832 0 446.385 0.447715 446.385 1C446.385 1.55228 446.832 2 447.385 2V0ZM457.077 2C457.629 2 458.077 1.55228 458.077 1C458.077 0.447715 457.629 0 457.077 0V2ZM466.769 0C466.217 0 465.769 0.447715 465.769 1C465.769 1.55228 466.217 2 466.769 2V0ZM476.462 2C477.014 2 477.462 1.55228 477.462 1C477.462 0.447715 477.014 0 476.462 0V2ZM486.154 0C485.602 0 485.154 0.447715 485.154 1C485.154 1.55228 485.602 2 486.154 2V0ZM490 5.83929C490 6.39157 490.448 6.83929 491 6.83929C491.552 6.83929 492 6.39157 492 5.83929H490ZM492 15.5179C492 14.9656 491.552 14.5179 491 14.5179C490.448 14.5179 490 14.9656 490 15.5179H492ZM490 25.1964C490 25.7487 490.448 26.1964 491 26.1964C491.552 26.1964 492 25.7487 492 25.1964H490ZM492 34.875C492 34.3227 491.552 33.875 491 33.875C490.448 33.875 490 34.3227 490 34.875H492ZM490 44.5536C490 45.1059 490.448 45.5536 491 45.5536C491.552 45.5536 492 45.1059 492 44.5536H490ZM492 54.2321C492 53.6799 491.552 53.2321 491 53.2321C490.448 53.2321 490 53.6799 490 54.2321H492ZM490 63.9107C490 64.463 490.448 64.9107 491 64.9107C491.552 64.9107 492 64.463 492 63.9107H490ZM492 73.5893C492 73.037 491.552 72.5893 491 72.5893C490.448 72.5893 490 73.037 490 73.5893H492ZM490 83.2679C490 83.8202 490.448 84.2679 491 84.2679C491.552 84.2679 492 83.8202 492 83.2679H490ZM492 92.9464C492 92.3942 491.552 91.9464 491 91.9464C490.448 91.9464 490 92.3942 490 92.9464H492ZM490 102.625C490 103.177 490.448 103.625 491 103.625C491.552 103.625 492 103.177 492 102.625H490ZM492 112.304C492 111.751 491.552 111.304 491 111.304C490.448 111.304 490 111.751 490 112.304H492ZM490 121.982C490 122.534 490.448 122.982 491 122.982C491.552 122.982 492 122.534 492 121.982H490ZM492 131.661C492 131.108 491.552 130.661 491 130.661C490.448 130.661 490 131.108 490 131.661H492ZM490 141.339C490 141.892 490.448 142.339 491 142.339C491.552 142.339 492 141.892 492 141.339H490ZM492 151.018C492 150.466 491.552 150.018 491 150.018C490.448 150.018 490 150.466 490 151.018H492ZM490 160.696C490 161.249 490.448 161.696 491 161.696C491.552 161.696 492 161.249 492 160.696H490ZM492 170.375C492 169.823 491.552 169.375 491 169.375C490.448 169.375 490 169.823 490 170.375H492ZM490 180.054C490 180.606 490.448 181.054 491 181.054C491.552 181.054 492 180.606 492 180.054H490ZM492 189.732C492 189.18 491.552 188.732 491 188.732C490.448 188.732 490 189.18 490 189.732H492ZM490 199.411C490 199.963 490.448 200.411 491 200.411C491.552 200.411 492 199.963 492 199.411H490ZM492 209.089C492 208.537 491.552 208.089 491 208.089C490.448 208.089 490 208.537 490 209.089H492ZM490 218.768C490 219.32 490.448 219.768 491 219.768C491.552 219.768 492 219.32 492 218.768H490ZM492 228.446C492 227.894 491.552 227.446 491 227.446C490.448 227.446 490 227.894 490 228.446H492ZM490 238.125C490 238.677 490.448 239.125 491 239.125C491.552 239.125 492 238.677 492 238.125H490ZM492 247.804C492 247.251 491.552 246.804 491 246.804C490.448 246.804 490 247.251 490 247.804H492ZM490 257.482C490 258.034 490.448 258.482 491 258.482C491.552 258.482 492 258.034 492 257.482H490ZM492 267.161C492 266.608 491.552 266.161 491 266.161C490.448 266.161 490 266.608 490 267.161H492ZM239 2H243.846V0H239V2ZM253.538 2H263.231V0H253.538V2ZM272.923 2H282.615V0H272.923V2ZM292.308 2H302V0H292.308V2ZM311.692 2H321.385V0H311.692V2ZM331.077 2H340.769V0H331.077V2ZM350.462 2H360.154V0H350.462V2ZM369.846 2H379.538V0H369.846V2ZM389.231 2H398.923V0H389.231V2ZM408.615 2H418.308V0H408.615V2ZM428 2H437.692V0H428V2ZM447.385 2H457.077V0H447.385V2ZM466.769 2H476.462V0H466.769V2ZM486.154 2H491V0H486.154V2ZM490 1V5.83929H492V1H490ZM490 15.5179V25.1964H492V15.5179H490ZM490 34.875V44.5536H492V34.875H490ZM490 54.2321V63.9107H492V54.2321H490ZM490 73.5893V83.2679H492V73.5893H490ZM490 92.9464V102.625H492V92.9464H490ZM490 112.304V121.982H492V112.304H490ZM490 131.661V141.339H492V131.661H490ZM490 151.018V160.696H492V151.018H490ZM490 170.375V180.054H492V170.375H490ZM490 189.732V199.411H492V189.732H490ZM490 209.089V218.768H492V209.089H490ZM490 228.446V238.125H492V228.446H490ZM490 247.804V257.482H492V247.804H490ZM490 267.161V272H492V267.161H490ZM491 1H492V0H491V1ZM485.667 272C485.667 274.946 488.054 277.333 491 277.333C493.946 277.333 496.333 274.946 496.333 272C496.333 269.054 493.946 266.667 491 266.667C488.054 266.667 485.667 269.054 485.667 272ZM243.846 2C244.398 2 244.846 1.55228 244.846 1C244.846 0.447715 244.398 0 243.846 0V2ZM253.538 0C252.986 0 252.538 0.447715 252.538 1C252.538 1.55228 252.986 2 253.538 2V0ZM263.231 2C263.783 2 264.231 1.55228 264.231 1C264.231 0.447715 263.783 0 263.231 0V2ZM272.923 0C272.371 0 271.923 0.447715 271.923 1C271.923 1.55228 272.371 2 272.923 2V0ZM282.615 2C283.168 2 283.615 1.55228 283.615 1C283.615 0.447715 283.168 0 282.615 0V2ZM292.308 0C291.755 0 291.308 0.447715 291.308 1C291.308 1.55228 291.755 2 292.308 2V0ZM302 2C302.552 2 303 1.55228 303 1C303 0.447715 302.552 0 302 0V2ZM311.692 0C311.14 0 310.692 0.447715 310.692 1C310.692 1.55228 311.14 2 311.692 2V0ZM321.385 2C321.937 2 322.385 1.55228 322.385 1C322.385 0.447715 321.937 0 321.385 0V2ZM331.077 0C330.525 0 330.077 0.447715 330.077 1C330.077 1.55228 330.525 2 331.077 2V0ZM340.769 2C341.322 2 341.769 1.55228 341.769 1C341.769 0.447715 341.322 0 340.769 0V2ZM350.462 0C349.909 0 349.462 0.447715 349.462 1C349.462 1.55228 349.909 2 350.462 2V0ZM360.154 2C360.706 2 361.154 1.55228 361.154 1C361.154 0.447715 360.706 0 360.154 0V2ZM369.846 0C369.294 0 368.846 0.447715 368.846 1C368.846 1.55228 369.294 2 369.846 2V0ZM379.538 2C380.091 2 380.538 1.55228 380.538 1C380.538 0.447715 380.091 0 379.538 0V2ZM389.231 0C388.678 0 388.231 0.447715 388.231 1C388.231 1.55228 388.678 2 389.231 2V0ZM398.923 2C399.475 2 399.923 1.55228 399.923 1C399.923 0.447715 399.475 0 398.923 0V2ZM408.615 0C408.063 0 407.615 0.447715 407.615 1C407.615 1.55228 408.063 2 408.615 2V0ZM418.308 2C418.86 2 419.308 1.55228 419.308 1C419.308 0.447715 418.86 0 418.308 0V2ZM428 0C427.448 0 427 0.447715 427 1C427 1.55228 427.448 2 428 2V0ZM437.692 2C438.245 2 438.692 1.55228 438.692 1C438.692 0.447715 438.245 0 437.692 0V2ZM447.385 0C446.832 0 446.385 0.447715 446.385 1C446.385 1.55228 446.832 2 447.385 2V0ZM457.077 2C457.629 2 458.077 1.55228 458.077 1C458.077 0.447715 457.629 0 457.077 0V2ZM466.769 0C466.217 0 465.769 0.447715 465.769 1C465.769 1.55228 466.217 2 466.769 2V0ZM476.462 2C477.014 2 477.462 1.55228 477.462 1C477.462 0.447715 477.014 0 476.462 0V2ZM486.154 0C485.602 0 485.154 0.447715 485.154 1C485.154 1.55228 485.602 2 486.154 2V0ZM490 5.83929C490 6.39157 490.448 6.83929 491 6.83929C491.552 6.83929 492 6.39157 492 5.83929H490ZM492 15.5179C492 14.9656 491.552 14.5179 491 14.5179C490.448 14.5179 490 14.9656 490 15.5179H492ZM490 25.1964C490 25.7487 490.448 26.1964 491 26.1964C491.552 26.1964 492 25.7487 492 25.1964H490ZM492 34.875C492 34.3227 491.552 33.875 491 33.875C490.448 33.875 490 34.3227 490 34.875H492ZM490 44.5536C490 45.1059 490.448 45.5536 491 45.5536C491.552 45.5536 492 45.1059 492 44.5536H490ZM492 54.2321C492 53.6799 491.552 53.2321 491 53.2321C490.448 53.2321 490 53.6799 490 54.2321H492ZM490 63.9107C490 64.463 490.448 64.9107 491 64.9107C491.552 64.9107 492 64.463 492 63.9107H490ZM492 73.5893C492 73.037 491.552 72.5893 491 72.5893C490.448 72.5893 490 73.037 490 73.5893H492ZM490 83.2679C490 83.8202 490.448 84.2679 491 84.2679C491.552 84.2679 492 83.8202 492 83.2679H490ZM492 92.9464C492 92.3942 491.552 91.9464 491 91.9464C490.448 91.9464 490 92.3942 490 92.9464H492ZM490 102.625C490 103.177 490.448 103.625 491 103.625C491.552 103.625 492 103.177 492 102.625H490ZM492 112.304C492 111.751 491.552 111.304 491 111.304C490.448 111.304 490 111.751 490 112.304H492ZM490 121.982C490 122.534 490.448 122.982 491 122.982C491.552 122.982 492 122.534 492 121.982H490ZM492 131.661C492 131.108 491.552 130.661 491 130.661C490.448 130.661 490 131.108 490 131.661H492ZM490 141.339C490 141.892 490.448 142.339 491 142.339C491.552 142.339 492 141.892 492 141.339H490ZM492 151.018C492 150.466 491.552 150.018 491 150.018C490.448 150.018 490 150.466 490 151.018H492ZM490 160.696C490 161.249 490.448 161.696 491 161.696C491.552 161.696 492 161.249 492 160.696H490ZM492 170.375C492 169.823 491.552 169.375 491 169.375C490.448 169.375 490 169.823 490 170.375H492ZM490 180.054C490 180.606 490.448 181.054 491 181.054C491.552 181.054 492 180.606 492 180.054H490ZM492 189.732C492 189.18 491.552 188.732 491 188.732C490.448 188.732 490 189.18 490 189.732H492ZM490 199.411C490 199.963 490.448 200.411 491 200.411C491.552 200.411 492 199.963 492 199.411H490ZM492 209.089C492 208.537 491.552 208.089 491 208.089C490.448 208.089 490 208.537 490 209.089H492ZM490 218.768C490 219.32 490.448 219.768 491 219.768C491.552 219.768 492 219.32 492 218.768H490ZM492 228.446C492 227.894 491.552 227.446 491 227.446C490.448 227.446 490 227.894 490 228.446H492ZM490 238.125C490 238.677 490.448 239.125 491 239.125C491.552 239.125 492 238.677 492 238.125H490ZM492 247.804C492 247.251 491.552 246.804 491 246.804C490.448 246.804 490 247.251 490 247.804H492ZM490 257.482C490 258.034 490.448 258.482 491 258.482C491.552 258.482 492 258.034 492 257.482H490ZM492 267.161C492 266.608 491.552 266.161 491 266.161C490.448 266.161 490 266.608 490 267.161H492ZM239 2H243.846V0H239V2ZM253.538 2H263.231V0H253.538V2ZM272.923 2H282.615V0H272.923V2ZM292.308 2H302V0H292.308V2ZM311.692 2H321.385V0H311.692V2ZM331.077 2H340.769V0H331.077V2ZM350.462 2H360.154V0H350.462V2ZM369.846 2H379.538V0H369.846V2ZM389.231 2H398.923V0H389.231V2ZM408.615 2H418.308V0H408.615V2ZM428 2H437.692V0H428V2ZM447.385 2H457.077V0H447.385V2ZM466.769 2H476.462V0H466.769V2ZM486.154 2H491V0H486.154V2ZM490 1V5.83929H492V1H490ZM490 15.5179V25.1964H492V15.5179H490ZM490 34.875V44.5536H492V34.875H490ZM490 54.2321V63.9107H492V54.2321H490ZM490 73.5893V83.2679H492V73.5893H490ZM490 92.9464V102.625H492V92.9464H490ZM490 112.304V121.982H492V112.304H490ZM490 131.661V141.339H492V131.661H490ZM490 151.018V160.696H492V151.018H490ZM490 170.375V180.054H492V170.375H490ZM490 189.732V199.411H492V189.732H490ZM490 209.089V218.768H492V209.089H490ZM490 228.446V238.125H492V228.446H490ZM490 247.804V257.482H492V247.804H490ZM490 267.161V272H492V267.161H490Z" fill="#8C8432"/>
</svg>
