<svg width="258" height="267" viewBox="0 0 258 267" fill="none" xmlns="http://www.w3.org/2000/svg">
<path d="M6 266H5V267H6V266ZM0.666667 6C0.666667 8.94552 3.05448 11.3333 6 11.3333C8.94552 11.3333 11.3333 8.94552 11.3333 6C11.3333 3.05448 8.94552 0.666667 6 0.666667C3.05448 0.666667 0.666667 3.05448 0.666667 6ZM5 11C5 11.5523 5.44772 12 6 12C6.55228 12 7 11.5523 7 11H5ZM7 21C7 20.4477 6.55228 20 6 20C5.44772 20 5 20.4477 5 21H7ZM5 31C5 31.5523 5.44772 32 6 32C6.55228 32 7 31.5523 7 31H5ZM7 41C7 40.4477 6.55228 40 6 40C5.44772 40 5 40.4477 5 41H7ZM5 51C5 51.5523 5.44772 52 6 52C6.55228 52 7 51.5523 7 51H5ZM7 61C7 60.4477 6.55228 60 6 60C5.44772 60 5 60.4477 5 61H7ZM5 71C5 71.5523 5.44772 72 6 72C6.55228 72 7 71.5523 7 71H5ZM7 81C7 80.4477 6.55228 80 6 80C5.44772 80 5 80.4477 5 81H7ZM5 91C5 91.5523 5.44772 92 6 92C6.55228 92 7 91.5523 7 91H5ZM7 101C7 100.448 6.55228 100 6 100C5.44772 100 5 100.448 5 101H7ZM5 111C5 111.552 5.44772 112 6 112C6.55228 112 7 111.552 7 111H5ZM7 121C7 120.448 6.55228 120 6 120C5.44772 120 5 120.448 5 121H7ZM5 131C5 131.552 5.44772 132 6 132C6.55228 132 7 131.552 7 131H5ZM7 141C7 140.448 6.55228 140 6 140C5.44772 140 5 140.448 5 141H7ZM5 151C5 151.552 5.44772 152 6 152C6.55228 152 7 151.552 7 151H5ZM7 161C7 160.448 6.55228 160 6 160C5.44772 160 5 160.448 5 161H7ZM5 171C5 171.552 5.44772 172 6 172C6.55228 172 7 171.552 7 171H5ZM7 181C7 180.448 6.55228 180 6 180C5.44772 180 5 180.448 5 181H7ZM5 191C5 191.552 5.44772 192 6 192C6.55228 192 7 191.552 7 191H5ZM7 201C7 200.448 6.55228 200 6 200C5.44772 200 5 200.448 5 201H7ZM5 211C5 211.552 5.44772 212 6 212C6.55228 212 7 211.552 7 211H5ZM7 221C7 220.448 6.55228 220 6 220C5.44772 220 5 220.448 5 221H7ZM5 231C5 231.552 5.44772 232 6 232C6.55228 232 7 231.552 7 231H5ZM7 241C7 240.448 6.55228 240 6 240C5.44772 240 5 240.448 5 241H7ZM5 251C5 251.552 5.44772 252 6 252C6.55228 252 7 251.552 7 251H5ZM7 261C7 260.448 6.55228 260 6 260C5.44772 260 5 260.448 5 261H7ZM10.8462 267C11.3984 267 11.8462 266.552 11.8462 266C11.8462 265.448 11.3984 265 10.8462 265V267ZM20.5385 265C19.9862 265 19.5385 265.448 19.5385 266C19.5385 266.552 19.9862 267 20.5385 267V265ZM30.2308 267C30.7831 267 31.2308 266.552 31.2308 266C31.2308 265.448 30.7831 265 30.2308 265V267ZM39.9231 265C39.3708 265 38.9231 265.448 38.9231 266C38.9231 266.552 39.3708 267 39.9231 267V265ZM49.6154 267C50.1677 267 50.6154 266.552 50.6154 266C50.6154 265.448 50.1677 265 49.6154 265V267ZM59.3077 265C58.7554 265 58.3077 265.448 58.3077 266C58.3077 266.552 58.7554 267 59.3077 267V265ZM69 267C69.5523 267 70 266.552 70 266C70 265.448 69.5523 265 69 265V267ZM78.6923 265C78.14 265 77.6923 265.448 77.6923 266C77.6923 266.552 78.14 267 78.6923 267V265ZM88.3846 267C88.9369 267 89.3846 266.552 89.3846 266C89.3846 265.448 88.9369 265 88.3846 265V267ZM98.0769 265C97.5246 265 97.0769 265.448 97.0769 266C97.0769 266.552 97.5246 267 98.0769 267V265ZM107.769 267C108.322 267 108.769 266.552 108.769 266C108.769 265.448 108.322 265 107.769 265V267ZM117.462 265C116.909 265 116.462 265.448 116.462 266C116.462 266.552 116.909 267 117.462 267V265ZM127.154 267C127.706 267 128.154 266.552 128.154 266C128.154 265.448 127.706 265 127.154 265V267ZM136.846 265C136.294 265 135.846 265.448 135.846 266C135.846 266.552 136.294 267 136.846 267V265ZM146.538 267C147.091 267 147.538 266.552 147.538 266C147.538 265.448 147.091 265 146.538 265V267ZM156.231 265C155.678 265 155.231 265.448 155.231 266C155.231 266.552 155.678 267 156.231 267V265ZM165.923 267C166.475 267 166.923 266.552 166.923 266C166.923 265.448 166.475 265 165.923 265V267ZM175.615 265C175.063 265 174.615 265.448 174.615 266C174.615 266.552 175.063 267 175.615 267V265ZM185.308 267C185.86 267 186.308 266.552 186.308 266C186.308 265.448 185.86 265 185.308 265V267ZM195 265C194.448 265 194 265.448 194 266C194 266.552 194.448 267 195 267V265ZM204.692 267C205.245 267 205.692 266.552 205.692 266C205.692 265.448 205.245 265 204.692 265V267ZM214.385 265C213.832 265 213.385 265.448 213.385 266C213.385 266.552 213.832 267 214.385 267V265ZM224.077 267C224.629 267 225.077 266.552 225.077 266C225.077 265.448 224.629 265 224.077 265V267ZM233.769 265C233.217 265 232.769 265.448 232.769 266C232.769 266.552 233.217 267 233.769 267V265ZM243.462 267C244.014 267 244.462 266.552 244.462 266C244.462 265.448 244.014 265 243.462 265V267ZM253.154 265C252.602 265 252.154 265.448 252.154 266C252.154 266.552 252.602 267 253.154 267V265ZM5 6V11H7V6H5ZM5 21V31H7V21H5ZM5 41V51H7V41H5ZM5 61V71H7V61H5ZM5 81V91H7V81H5ZM5 101V111H7V101H5ZM5 121V131H7V121H5ZM5 141V151H7V141H5ZM5 161V171H7V161H5ZM5 181V191H7V181H5ZM5 201V211H7V201H5ZM5 221V231H7V221H5ZM5 241V251H7V241H5ZM5 261V266H7V261H5ZM6 267H10.8462V265H6V267ZM20.5385 267H30.2308V265H20.5385V267ZM39.9231 267H49.6154V265H39.9231V267ZM59.3077 267H69V265H59.3077V267ZM78.6923 267H88.3846V265H78.6923V267ZM98.0769 267H107.769V265H98.0769V267ZM117.462 267H127.154V265H117.462V267ZM136.846 267H146.538V265H136.846V267ZM156.231 267H165.923V265H156.231V267ZM175.615 267H185.308V265H175.615V267ZM195 267H204.692V265H195V267ZM214.385 267H224.077V265H214.385V267ZM233.769 267H243.462V265H233.769V267ZM253.154 267H258V265H253.154V267ZM6 266H5V267H6V266ZM0.666667 6C0.666667 8.94552 3.05448 11.3333 6 11.3333C8.94552 11.3333 11.3333 8.94552 11.3333 6C11.3333 3.05448 8.94552 0.666667 6 0.666667C3.05448 0.666667 0.666667 3.05448 0.666667 6ZM5 11C5 11.5523 5.44772 12 6 12C6.55228 12 7 11.5523 7 11H5ZM7 21C7 20.4477 6.55228 20 6 20C5.44772 20 5 20.4477 5 21H7ZM5 31C5 31.5523 5.44772 32 6 32C6.55228 32 7 31.5523 7 31H5ZM7 41C7 40.4477 6.55228 40 6 40C5.44772 40 5 40.4477 5 41H7ZM5 51C5 51.5523 5.44772 52 6 52C6.55228 52 7 51.5523 7 51H5ZM7 61C7 60.4477 6.55228 60 6 60C5.44772 60 5 60.4477 5 61H7ZM5 71C5 71.5523 5.44772 72 6 72C6.55228 72 7 71.5523 7 71H5ZM7 81C7 80.4477 6.55228 80 6 80C5.44772 80 5 80.4477 5 81H7ZM5 91C5 91.5523 5.44772 92 6 92C6.55228 92 7 91.5523 7 91H5ZM7 101C7 100.448 6.55228 100 6 100C5.44772 100 5 100.448 5 101H7ZM5 111C5 111.552 5.44772 112 6 112C6.55228 112 7 111.552 7 111H5ZM7 121C7 120.448 6.55228 120 6 120C5.44772 120 5 120.448 5 121H7ZM5 131C5 131.552 5.44772 132 6 132C6.55228 132 7 131.552 7 131H5ZM7 141C7 140.448 6.55228 140 6 140C5.44772 140 5 140.448 5 141H7ZM5 151C5 151.552 5.44772 152 6 152C6.55228 152 7 151.552 7 151H5ZM7 161C7 160.448 6.55228 160 6 160C5.44772 160 5 160.448 5 161H7ZM5 171C5 171.552 5.44772 172 6 172C6.55228 172 7 171.552 7 171H5ZM7 181C7 180.448 6.55228 180 6 180C5.44772 180 5 180.448 5 181H7ZM5 191C5 191.552 5.44772 192 6 192C6.55228 192 7 191.552 7 191H5ZM7 201C7 200.448 6.55228 200 6 200C5.44772 200 5 200.448 5 201H7ZM5 211C5 211.552 5.44772 212 6 212C6.55228 212 7 211.552 7 211H5ZM7 221C7 220.448 6.55228 220 6 220C5.44772 220 5 220.448 5 221H7ZM5 231C5 231.552 5.44772 232 6 232C6.55228 232 7 231.552 7 231H5ZM7 241C7 240.448 6.55228 240 6 240C5.44772 240 5 240.448 5 241H7ZM5 251C5 251.552 5.44772 252 6 252C6.55228 252 7 251.552 7 251H5ZM7 261C7 260.448 6.55228 260 6 260C5.44772 260 5 260.448 5 261H7ZM10.8462 267C11.3984 267 11.8462 266.552 11.8462 266C11.8462 265.448 11.3984 265 10.8462 265V267ZM20.5385 265C19.9862 265 19.5385 265.448 19.5385 266C19.5385 266.552 19.9862 267 20.5385 267V265ZM30.2308 267C30.7831 267 31.2308 266.552 31.2308 266C31.2308 265.448 30.7831 265 30.2308 265V267ZM39.9231 265C39.3708 265 38.9231 265.448 38.9231 266C38.9231 266.552 39.3708 267 39.9231 267V265ZM49.6154 267C50.1677 267 50.6154 266.552 50.6154 266C50.6154 265.448 50.1677 265 49.6154 265V267ZM59.3077 265C58.7554 265 58.3077 265.448 58.3077 266C58.3077 266.552 58.7554 267 59.3077 267V265ZM69 267C69.5523 267 70 266.552 70 266C70 265.448 69.5523 265 69 265V267ZM78.6923 265C78.14 265 77.6923 265.448 77.6923 266C77.6923 266.552 78.14 267 78.6923 267V265ZM88.3846 267C88.9369 267 89.3846 266.552 89.3846 266C89.3846 265.448 88.9369 265 88.3846 265V267ZM98.0769 265C97.5246 265 97.0769 265.448 97.0769 266C97.0769 266.552 97.5246 267 98.0769 267V265ZM107.769 267C108.322 267 108.769 266.552 108.769 266C108.769 265.448 108.322 265 107.769 265V267ZM117.462 265C116.909 265 116.462 265.448 116.462 266C116.462 266.552 116.909 267 117.462 267V265ZM127.154 267C127.706 267 128.154 266.552 128.154 266C128.154 265.448 127.706 265 127.154 265V267ZM136.846 265C136.294 265 135.846 265.448 135.846 266C135.846 266.552 136.294 267 136.846 267V265ZM146.538 267C147.091 267 147.538 266.552 147.538 266C147.538 265.448 147.091 265 146.538 265V267ZM156.231 265C155.678 265 155.231 265.448 155.231 266C155.231 266.552 155.678 267 156.231 267V265ZM165.923 267C166.475 267 166.923 266.552 166.923 266C166.923 265.448 166.475 265 165.923 265V267ZM175.615 265C175.063 265 174.615 265.448 174.615 266C174.615 266.552 175.063 267 175.615 267V265ZM185.308 267C185.86 267 186.308 266.552 186.308 266C186.308 265.448 185.86 265 185.308 265V267ZM195 265C194.448 265 194 265.448 194 266C194 266.552 194.448 267 195 267V265ZM204.692 267C205.245 267 205.692 266.552 205.692 266C205.692 265.448 205.245 265 204.692 265V267ZM214.385 265C213.832 265 213.385 265.448 213.385 266C213.385 266.552 213.832 267 214.385 267V265ZM224.077 267C224.629 267 225.077 266.552 225.077 266C225.077 265.448 224.629 265 224.077 265V267ZM233.769 265C233.217 265 232.769 265.448 232.769 266C232.769 266.552 233.217 267 233.769 267V265ZM243.462 267C244.014 267 244.462 266.552 244.462 266C244.462 265.448 244.014 265 243.462 265V267ZM253.154 265C252.602 265 252.154 265.448 252.154 266C252.154 266.552 252.602 267 253.154 267V265ZM5 6V11H7V6H5ZM5 21V31H7V21H5ZM5 41V51H7V41H5ZM5 61V71H7V61H5ZM5 81V91H7V81H5ZM5 101V111H7V101H5ZM5 121V131H7V121H5ZM5 141V151H7V141H5ZM5 161V171H7V161H5ZM5 181V191H7V181H5ZM5 201V211H7V201H5ZM5 221V231H7V221H5ZM5 241V251H7V241H5ZM5 261V266H7V261H5ZM6 267H10.8462V265H6V267ZM20.5385 267H30.2308V265H20.5385V267ZM39.9231 267H49.6154V265H39.9231V267ZM59.3077 267H69V265H59.3077V267ZM78.6923 267H88.3846V265H78.6923V267ZM98.0769 267H107.769V265H98.0769V267ZM117.462 267H127.154V265H117.462V267ZM136.846 267H146.538V265H136.846V267ZM156.231 267H165.923V265H156.231V267ZM175.615 267H185.308V265H175.615V267ZM195 267H204.692V265H195V267ZM214.385 267H224.077V265H214.385V267ZM233.769 267H243.462V265H233.769V267ZM253.154 267H258V265H253.154V267Z" fill="#8C8432"/>
</svg>
