<svg width="258" height="278" viewBox="0 0 258 278" fill="none" xmlns="http://www.w3.org/2000/svg">
<path d="M252 1H253V0H252V1ZM246.667 272C246.667 274.946 249.054 277.333 252 277.333C254.946 277.333 257.333 274.946 257.333 272C257.333 269.054 254.946 266.667 252 266.667C249.054 266.667 246.667 269.054 246.667 272ZM4.84615 2C5.39844 2 5.84615 1.55228 5.84615 1C5.84615 0.447715 5.39844 0 4.84615 0V2ZM14.5385 0C13.9862 0 13.5385 0.447715 13.5385 1C13.5385 1.55228 13.9862 2 14.5385 2V0ZM24.2308 2C24.7831 2 25.2308 1.55228 25.2308 1C25.2308 0.447715 24.7831 0 24.2308 0V2ZM33.9231 0C33.3708 0 32.9231 0.447715 32.9231 1C32.9231 1.55228 33.3708 2 33.9231 2V0ZM43.6154 2C44.1677 2 44.6154 1.55228 44.6154 1C44.6154 0.447715 44.1677 0 43.6154 0V2ZM53.3077 0C52.7554 0 52.3077 0.447715 52.3077 1C52.3077 1.55228 52.7554 2 53.3077 2V0ZM63 2C63.5523 2 64 1.55228 64 1C64 0.447715 63.5523 0 63 0V2ZM72.6923 0C72.14 0 71.6923 0.447715 71.6923 1C71.6923 1.55228 72.14 2 72.6923 2V0ZM82.3846 2C82.9369 2 83.3846 1.55228 83.3846 1C83.3846 0.447715 82.9369 0 82.3846 0V2ZM92.0769 0C91.5246 0 91.0769 0.447715 91.0769 1C91.0769 1.55228 91.5246 2 92.0769 2V0ZM101.769 2C102.322 2 102.769 1.55228 102.769 1C102.769 0.447715 102.322 0 101.769 0V2ZM111.462 0C110.909 0 110.462 0.447715 110.462 1C110.462 1.55228 110.909 2 111.462 2V0ZM121.154 2C121.706 2 122.154 1.55228 122.154 1C122.154 0.447715 121.706 0 121.154 0V2ZM130.846 0C130.294 0 129.846 0.447715 129.846 1C129.846 1.55228 130.294 2 130.846 2V0ZM140.538 2C141.091 2 141.538 1.55228 141.538 1C141.538 0.447715 141.091 0 140.538 0V2ZM150.231 0C149.678 0 149.231 0.447715 149.231 1C149.231 1.55228 149.678 2 150.231 2V0ZM159.923 2C160.475 2 160.923 1.55228 160.923 1C160.923 0.447715 160.475 0 159.923 0V2ZM169.615 0C169.063 0 168.615 0.447715 168.615 1C168.615 1.55228 169.063 2 169.615 2V0ZM179.308 2C179.86 2 180.308 1.55228 180.308 1C180.308 0.447715 179.86 0 179.308 0V2ZM189 0C188.448 0 188 0.447715 188 1C188 1.55228 188.448 2 189 2V0ZM198.692 2C199.245 2 199.692 1.55228 199.692 1C199.692 0.447715 199.245 0 198.692 0V2ZM208.385 0C207.832 0 207.385 0.447715 207.385 1C207.385 1.55228 207.832 2 208.385 2V0ZM218.077 2C218.629 2 219.077 1.55228 219.077 1C219.077 0.447715 218.629 0 218.077 0V2ZM227.769 0C227.217 0 226.769 0.447715 226.769 1C226.769 1.55228 227.217 2 227.769 2V0ZM237.462 2C238.014 2 238.462 1.55228 238.462 1C238.462 0.447715 238.014 0 237.462 0V2ZM247.154 0C246.602 0 246.154 0.447715 246.154 1C246.154 1.55228 246.602 2 247.154 2V0ZM251 5.83929C251 6.39157 251.448 6.83929 252 6.83929C252.552 6.83929 253 6.39157 253 5.83929H251ZM253 15.5179C253 14.9656 252.552 14.5179 252 14.5179C251.448 14.5179 251 14.9656 251 15.5179H253ZM251 25.1964C251 25.7487 251.448 26.1964 252 26.1964C252.552 26.1964 253 25.7487 253 25.1964H251ZM253 34.875C253 34.3227 252.552 33.875 252 33.875C251.448 33.875 251 34.3227 251 34.875H253ZM251 44.5536C251 45.1059 251.448 45.5536 252 45.5536C252.552 45.5536 253 45.1059 253 44.5536H251ZM253 54.2321C253 53.6799 252.552 53.2321 252 53.2321C251.448 53.2321 251 53.6799 251 54.2321H253ZM251 63.9107C251 64.463 251.448 64.9107 252 64.9107C252.552 64.9107 253 64.463 253 63.9107H251ZM253 73.5893C253 73.037 252.552 72.5893 252 72.5893C251.448 72.5893 251 73.037 251 73.5893H253ZM251 83.2679C251 83.8202 251.448 84.2679 252 84.2679C252.552 84.2679 253 83.8202 253 83.2679H251ZM253 92.9464C253 92.3942 252.552 91.9464 252 91.9464C251.448 91.9464 251 92.3942 251 92.9464H253ZM251 102.625C251 103.177 251.448 103.625 252 103.625C252.552 103.625 253 103.177 253 102.625H251ZM253 112.304C253 111.751 252.552 111.304 252 111.304C251.448 111.304 251 111.751 251 112.304H253ZM251 121.982C251 122.534 251.448 122.982 252 122.982C252.552 122.982 253 122.534 253 121.982H251ZM253 131.661C253 131.108 252.552 130.661 252 130.661C251.448 130.661 251 131.108 251 131.661H253ZM251 141.339C251 141.892 251.448 142.339 252 142.339C252.552 142.339 253 141.892 253 141.339H251ZM253 151.018C253 150.466 252.552 150.018 252 150.018C251.448 150.018 251 150.466 251 151.018H253ZM251 160.696C251 161.249 251.448 161.696 252 161.696C252.552 161.696 253 161.249 253 160.696H251ZM253 170.375C253 169.823 252.552 169.375 252 169.375C251.448 169.375 251 169.823 251 170.375H253ZM251 180.054C251 180.606 251.448 181.054 252 181.054C252.552 181.054 253 180.606 253 180.054H251ZM253 189.732C253 189.18 252.552 188.732 252 188.732C251.448 188.732 251 189.18 251 189.732H253ZM251 199.411C251 199.963 251.448 200.411 252 200.411C252.552 200.411 253 199.963 253 199.411H251ZM253 209.089C253 208.537 252.552 208.089 252 208.089C251.448 208.089 251 208.537 251 209.089H253ZM251 218.768C251 219.32 251.448 219.768 252 219.768C252.552 219.768 253 219.32 253 218.768H251ZM253 228.446C253 227.894 252.552 227.446 252 227.446C251.448 227.446 251 227.894 251 228.446H253ZM251 238.125C251 238.677 251.448 239.125 252 239.125C252.552 239.125 253 238.677 253 238.125H251ZM253 247.804C253 247.251 252.552 246.804 252 246.804C251.448 246.804 251 247.251 251 247.804H253ZM251 257.482C251 258.034 251.448 258.482 252 258.482C252.552 258.482 253 258.034 253 257.482H251ZM253 267.161C253 266.608 252.552 266.161 252 266.161C251.448 266.161 251 266.608 251 267.161H253ZM0 2H4.84615V0H0V2ZM14.5385 2H24.2308V0H14.5385V2ZM33.9231 2H43.6154V0H33.9231V2ZM53.3077 2H63V0H53.3077V2ZM72.6923 2H82.3846V0H72.6923V2ZM92.0769 2H101.769V0H92.0769V2ZM111.462 2H121.154V0H111.462V2ZM130.846 2H140.538V0H130.846V2ZM150.231 2H159.923V0H150.231V2ZM169.615 2H179.308V0H169.615V2ZM189 2H198.692V0H189V2ZM208.385 2H218.077V0H208.385V2ZM227.769 2H237.462V0H227.769V2ZM247.154 2H252V0H247.154V2ZM251 1V5.83929H253V1H251ZM251 15.5179V25.1964H253V15.5179H251ZM251 34.875V44.5536H253V34.875H251ZM251 54.2321V63.9107H253V54.2321H251ZM251 73.5893V83.2679H253V73.5893H251ZM251 92.9464V102.625H253V92.9464H251ZM251 112.304V121.982H253V112.304H251ZM251 131.661V141.339H253V131.661H251ZM251 151.018V160.696H253V151.018H251ZM251 170.375V180.054H253V170.375H251ZM251 189.732V199.411H253V189.732H251ZM251 209.089V218.768H253V209.089H251ZM251 228.446V238.125H253V228.446H251ZM251 247.804V257.482H253V247.804H251ZM251 267.161V272H253V267.161H251ZM252 1H253V0H252V1ZM246.667 272C246.667 274.946 249.054 277.333 252 277.333C254.946 277.333 257.333 274.946 257.333 272C257.333 269.054 254.946 266.667 252 266.667C249.054 266.667 246.667 269.054 246.667 272ZM4.84615 2C5.39844 2 5.84615 1.55228 5.84615 1C5.84615 0.447715 5.39844 0 4.84615 0V2ZM14.5385 0C13.9862 0 13.5385 0.447715 13.5385 1C13.5385 1.55228 13.9862 2 14.5385 2V0ZM24.2308 2C24.7831 2 25.2308 1.55228 25.2308 1C25.2308 0.447715 24.7831 0 24.2308 0V2ZM33.9231 0C33.3708 0 32.9231 0.447715 32.9231 1C32.9231 1.55228 33.3708 2 33.9231 2V0ZM43.6154 2C44.1677 2 44.6154 1.55228 44.6154 1C44.6154 0.447715 44.1677 0 43.6154 0V2ZM53.3077 0C52.7554 0 52.3077 0.447715 52.3077 1C52.3077 1.55228 52.7554 2 53.3077 2V0ZM63 2C63.5523 2 64 1.55228 64 1C64 0.447715 63.5523 0 63 0V2ZM72.6923 0C72.14 0 71.6923 0.447715 71.6923 1C71.6923 1.55228 72.14 2 72.6923 2V0ZM82.3846 2C82.9369 2 83.3846 1.55228 83.3846 1C83.3846 0.447715 82.9369 0 82.3846 0V2ZM92.0769 0C91.5246 0 91.0769 0.447715 91.0769 1C91.0769 1.55228 91.5246 2 92.0769 2V0ZM101.769 2C102.322 2 102.769 1.55228 102.769 1C102.769 0.447715 102.322 0 101.769 0V2ZM111.462 0C110.909 0 110.462 0.447715 110.462 1C110.462 1.55228 110.909 2 111.462 2V0ZM121.154 2C121.706 2 122.154 1.55228 122.154 1C122.154 0.447715 121.706 0 121.154 0V2ZM130.846 0C130.294 0 129.846 0.447715 129.846 1C129.846 1.55228 130.294 2 130.846 2V0ZM140.538 2C141.091 2 141.538 1.55228 141.538 1C141.538 0.447715 141.091 0 140.538 0V2ZM150.231 0C149.678 0 149.231 0.447715 149.231 1C149.231 1.55228 149.678 2 150.231 2V0ZM159.923 2C160.475 2 160.923 1.55228 160.923 1C160.923 0.447715 160.475 0 159.923 0V2ZM169.615 0C169.063 0 168.615 0.447715 168.615 1C168.615 1.55228 169.063 2 169.615 2V0ZM179.308 2C179.86 2 180.308 1.55228 180.308 1C180.308 0.447715 179.86 0 179.308 0V2ZM189 0C188.448 0 188 0.447715 188 1C188 1.55228 188.448 2 189 2V0ZM198.692 2C199.245 2 199.692 1.55228 199.692 1C199.692 0.447715 199.245 0 198.692 0V2ZM208.385 0C207.832 0 207.385 0.447715 207.385 1C207.385 1.55228 207.832 2 208.385 2V0ZM218.077 2C218.629 2 219.077 1.55228 219.077 1C219.077 0.447715 218.629 0 218.077 0V2ZM227.769 0C227.217 0 226.769 0.447715 226.769 1C226.769 1.55228 227.217 2 227.769 2V0ZM237.462 2C238.014 2 238.462 1.55228 238.462 1C238.462 0.447715 238.014 0 237.462 0V2ZM247.154 0C246.602 0 246.154 0.447715 246.154 1C246.154 1.55228 246.602 2 247.154 2V0ZM251 5.83929C251 6.39157 251.448 6.83929 252 6.83929C252.552 6.83929 253 6.39157 253 5.83929H251ZM253 15.5179C253 14.9656 252.552 14.5179 252 14.5179C251.448 14.5179 251 14.9656 251 15.5179H253ZM251 25.1964C251 25.7487 251.448 26.1964 252 26.1964C252.552 26.1964 253 25.7487 253 25.1964H251ZM253 34.875C253 34.3227 252.552 33.875 252 33.875C251.448 33.875 251 34.3227 251 34.875H253ZM251 44.5536C251 45.1059 251.448 45.5536 252 45.5536C252.552 45.5536 253 45.1059 253 44.5536H251ZM253 54.2321C253 53.6799 252.552 53.2321 252 53.2321C251.448 53.2321 251 53.6799 251 54.2321H253ZM251 63.9107C251 64.463 251.448 64.9107 252 64.9107C252.552 64.9107 253 64.463 253 63.9107H251ZM253 73.5893C253 73.037 252.552 72.5893 252 72.5893C251.448 72.5893 251 73.037 251 73.5893H253ZM251 83.2679C251 83.8202 251.448 84.2679 252 84.2679C252.552 84.2679 253 83.8202 253 83.2679H251ZM253 92.9464C253 92.3942 252.552 91.9464 252 91.9464C251.448 91.9464 251 92.3942 251 92.9464H253ZM251 102.625C251 103.177 251.448 103.625 252 103.625C252.552 103.625 253 103.177 253 102.625H251ZM253 112.304C253 111.751 252.552 111.304 252 111.304C251.448 111.304 251 111.751 251 112.304H253ZM251 121.982C251 122.534 251.448 122.982 252 122.982C252.552 122.982 253 122.534 253 121.982H251ZM253 131.661C253 131.108 252.552 130.661 252 130.661C251.448 130.661 251 131.108 251 131.661H253ZM251 141.339C251 141.892 251.448 142.339 252 142.339C252.552 142.339 253 141.892 253 141.339H251ZM253 151.018C253 150.466 252.552 150.018 252 150.018C251.448 150.018 251 150.466 251 151.018H253ZM251 160.696C251 161.249 251.448 161.696 252 161.696C252.552 161.696 253 161.249 253 160.696H251ZM253 170.375C253 169.823 252.552 169.375 252 169.375C251.448 169.375 251 169.823 251 170.375H253ZM251 180.054C251 180.606 251.448 181.054 252 181.054C252.552 181.054 253 180.606 253 180.054H251ZM253 189.732C253 189.18 252.552 188.732 252 188.732C251.448 188.732 251 189.18 251 189.732H253ZM251 199.411C251 199.963 251.448 200.411 252 200.411C252.552 200.411 253 199.963 253 199.411H251ZM253 209.089C253 208.537 252.552 208.089 252 208.089C251.448 208.089 251 208.537 251 209.089H253ZM251 218.768C251 219.32 251.448 219.768 252 219.768C252.552 219.768 253 219.32 253 218.768H251ZM253 228.446C253 227.894 252.552 227.446 252 227.446C251.448 227.446 251 227.894 251 228.446H253ZM251 238.125C251 238.677 251.448 239.125 252 239.125C252.552 239.125 253 238.677 253 238.125H251ZM253 247.804C253 247.251 252.552 246.804 252 246.804C251.448 246.804 251 247.251 251 247.804H253ZM251 257.482C251 258.034 251.448 258.482 252 258.482C252.552 258.482 253 258.034 253 257.482H251ZM253 267.161C253 266.608 252.552 266.161 252 266.161C251.448 266.161 251 266.608 251 267.161H253ZM0 2H4.84615V0H0V2ZM14.5385 2H24.2308V0H14.5385V2ZM33.9231 2H43.6154V0H33.9231V2ZM53.3077 2H63V0H53.3077V2ZM72.6923 2H82.3846V0H72.6923V2ZM92.0769 2H101.769V0H92.0769V2ZM111.462 2H121.154V0H111.462V2ZM130.846 2H140.538V0H130.846V2ZM150.231 2H159.923V0H150.231V2ZM169.615 2H179.308V0H169.615V2ZM189 2H198.692V0H189V2ZM208.385 2H218.077V0H208.385V2ZM227.769 2H237.462V0H227.769V2ZM247.154 2H252V0H247.154V2ZM251 1V5.83929H253V1H251ZM251 15.5179V25.1964H253V15.5179H251ZM251 34.875V44.5536H253V34.875H251ZM251 54.2321V63.9107H253V54.2321H251ZM251 73.5893V83.2679H253V73.5893H251ZM251 92.9464V102.625H253V92.9464H251ZM251 112.304V121.982H253V112.304H251ZM251 131.661V141.339H253V131.661H251ZM251 151.018V160.696H253V151.018H251ZM251 170.375V180.054H253V170.375H251ZM251 189.732V199.411H253V189.732H251ZM251 209.089V218.768H253V209.089H251ZM251 228.446V238.125H253V228.446H251ZM251 247.804V257.482H253V247.804H251ZM251 267.161V272H253V267.161H251Z" fill="#8C8432"/>
</svg>
