<svg width="8" height="9" viewBox="0 0 8 9" fill="none" xmlns="http://www.w3.org/2000/svg">
<path d="M0.420368 7.28423C0.200698 7.5039 0.200698 7.86006 0.420368 8.07973C0.640038 8.2994 0.996193 8.2994 1.21586 8.07973L0.420368 7.28423ZM7.74458 1.31802C7.74458 1.00736 7.49274 0.755519 7.18208 0.755519L2.11958 0.755519C1.80892 0.755519 1.55708 1.00736 1.55708 1.31802C1.55708 1.62868 1.80892 1.88052 2.11958 1.88052H6.61958V6.38052C6.61958 6.69118 6.87142 6.94302 7.18208 6.94302C7.49274 6.94302 7.74458 6.69118 7.74458 6.38052L7.74458 1.31802ZM1.21586 8.07973L7.57982 1.71577L6.78433 0.920272L0.420368 7.28423L1.21586 8.07973Z" fill="#D2D2D2"/>
</svg>
