<svg width="16" height="17" viewBox="0 0 16 17" fill="none" xmlns="http://www.w3.org/2000/svg">
<path d="M7 14.5C7 14.5 6 14.5 6 13.5C6 12.5 7 9.5 11 9.5C15 9.5 16 12.5 16 13.5C16 14.5 15 14.5 15 14.5H7ZM11 8.5C11.7956 8.5 12.5587 8.18393 13.1213 7.62132C13.6839 7.05871 14 6.29565 14 5.5C14 4.70435 13.6839 3.94129 13.1213 3.37868C12.5587 2.81607 11.7956 2.5 11 2.5C10.2044 2.5 9.44129 2.81607 8.87868 3.37868C8.31607 3.94129 8 4.70435 8 5.5C8 6.29565 8.31607 7.05871 8.87868 7.62132C9.44129 8.18393 10.2044 8.5 11 8.5ZM5.216 14.5C5.06782 14.1878 4.9939 13.8455 5 13.5C5 12.145 5.68 10.75 6.936 9.78C6.30918 9.58644 5.65598 9.49197 5 9.5C1 9.5 0 12.5 0 13.5C0 14.5 1 14.5 1 14.5H5.216ZM4.5 8.5C5.16304 8.5 5.79893 8.23661 6.26777 7.76777C6.73661 7.29893 7 6.66304 7 6C7 5.33696 6.73661 4.70107 6.26777 4.23223C5.79893 3.76339 5.16304 3.5 4.5 3.5C3.83696 3.5 3.20107 3.76339 2.73223 4.23223C2.26339 4.70107 2 5.33696 2 6C2 6.66304 2.26339 7.29893 2.73223 7.76777C3.20107 8.23661 3.83696 8.5 4.5 8.5Z" fill="#928E96"/>
</svg>
