<svg width="16" height="16" viewBox="0 0 16 16" fill="none" xmlns="http://www.w3.org/2000/svg">
<path fill-rule="evenodd" clip-rule="evenodd" d="M4.66665 1.1665C4.79925 1.1665 4.92643 1.21918 5.0202 1.31295C5.11397 1.40672 5.16665 1.5339 5.16665 1.6665V2.17517C5.60798 2.1665 6.09398 2.1665 6.62931 2.1665H9.37065C9.90598 2.1665 10.392 2.1665 10.8333 2.17517V1.6665C10.8333 1.5339 10.886 1.40672 10.9798 1.31295C11.0735 1.21918 11.2007 1.1665 11.3333 1.1665C11.4659 1.1665 11.5931 1.21918 11.6869 1.31295C11.7806 1.40672 11.8333 1.5339 11.8333 1.6665V2.21784C12.0066 2.23117 12.1709 2.24806 12.326 2.2685C13.1073 2.37384 13.74 2.59517 14.2393 3.09384C14.738 3.59317 14.9593 4.22584 15.0646 5.00717C15.0975 5.25695 15.1213 5.53028 15.136 5.82717C15.1722 5.92554 15.1767 6.03281 15.1486 6.13384C15.1666 6.66784 15.1666 7.27517 15.1666 7.9625V9.33317C15.1666 9.46578 15.114 9.59295 15.0202 9.68672C14.9264 9.78049 14.7993 9.83317 14.6666 9.83317C14.534 9.83317 14.4069 9.78049 14.3131 9.68672C14.2193 9.59295 14.1666 9.46578 14.1666 9.33317V7.99984C14.1666 7.4305 14.1666 6.93517 14.158 6.49984H1.84198C1.83331 6.93517 1.83331 7.4305 1.83331 7.99984V9.33317C1.83331 10.6045 1.83465 11.5078 1.92665 12.1932C2.01665 12.8632 2.18598 13.2498 2.46798 13.5318C2.74998 13.8138 3.13665 13.9832 3.80731 14.0732C4.49265 14.1652 5.39531 14.1665 6.66665 14.1665H9.33331C9.46592 14.1665 9.5931 14.2192 9.68687 14.3129C9.78063 14.4067 9.83331 14.5339 9.83331 14.6665C9.83331 14.7991 9.78063 14.9263 9.68687 15.0201C9.5931 15.1138 9.46592 15.1665 9.33331 15.1665H6.62931C5.40398 15.1665 4.43331 15.1665 3.67398 15.0645C2.89265 14.9592 2.25998 14.7378 1.76065 14.2392C1.26198 13.7398 1.04065 13.1072 0.935313 12.3258C0.833313 11.5658 0.833313 10.5958 0.833313 9.3705V7.9625C0.833313 7.27517 0.833313 6.66784 0.851313 6.13317C0.823494 6.03208 0.828158 5.9248 0.864646 5.8265C0.878869 5.53006 0.902424 5.25695 0.935313 5.00717C1.04065 4.22584 1.26198 3.59317 1.76065 3.09384C2.25998 2.59517 2.89265 2.37384 3.67398 2.2685C3.82954 2.24806 3.99376 2.23117 4.16665 2.21784V1.6665C4.16665 1.5339 4.21932 1.40672 4.31309 1.31295C4.40686 1.21918 4.53404 1.1665 4.66665 1.1665ZM1.88798 5.49984H14.112C14.1013 5.37361 14.0884 5.25361 14.0733 5.13984C13.9833 4.46984 13.814 4.08317 13.532 3.80117C13.25 3.51917 12.8633 3.34984 12.1926 3.25984C11.508 3.16784 10.6046 3.1665 9.33331 3.1665H6.66665C5.39531 3.1665 4.49265 3.16784 3.80665 3.25984C3.13665 3.34984 2.74998 3.51917 2.46798 3.80117C2.18598 4.08317 2.01665 4.46984 1.92665 5.13984C1.91154 5.25317 1.89865 5.37295 1.88798 5.49917M12 10.4998C11.6022 10.4998 11.2206 10.6579 10.9393 10.9392C10.658 11.2205 10.5 11.602 10.5 11.9998C10.5 12.3977 10.658 12.7792 10.9393 13.0605C11.2206 13.3418 11.6022 13.4998 12 13.4998C12.3978 13.4998 12.7793 13.3418 13.0606 13.0605C13.3419 12.7792 13.5 12.3977 13.5 11.9998C13.5 11.602 13.3419 11.2205 13.0606 10.9392C12.7793 10.6579 12.3978 10.4998 12 10.4998ZM9.49998 11.9998C9.5001 11.61 9.59136 11.2257 9.76648 10.8775C9.94159 10.5292 10.1957 10.2268 10.5085 9.99422C10.8214 9.76168 11.1842 9.60551 11.5682 9.53818C11.9521 9.47085 12.3464 9.49423 12.7197 9.60645C13.093 9.71867 13.4349 9.91662 13.718 10.1845C14.0012 10.4524 14.2178 10.7827 14.3505 11.1492C14.4833 11.5157 14.5285 11.9082 14.4826 12.2952C14.4366 12.6823 14.3008 13.0533 14.086 13.3785L15.02 14.3132C15.0691 14.3589 15.1085 14.4141 15.1358 14.4755C15.1632 14.5368 15.1779 14.603 15.179 14.6702C15.1802 14.7373 15.1679 14.804 15.1427 14.8662C15.1176 14.9285 15.0802 14.985 15.0327 15.0325C14.9852 15.08 14.9286 15.1174 14.8664 15.1426C14.8041 15.1677 14.7374 15.1801 14.6703 15.1789C14.6032 15.1777 14.537 15.163 14.4756 15.1357C14.4143 15.1084 14.3591 15.069 14.3133 15.0198L13.3786 14.0858C13.0018 14.3349 12.5645 14.4773 12.1133 14.4978C11.662 14.5182 11.2137 14.4161 10.8158 14.2021C10.418 13.9882 10.0856 13.6704 9.85388 13.2826C9.62219 12.8949 9.49989 12.4516 9.49998 11.9998Z" fill="#605B66"/>
</svg>
