<svg width="16" height="16" viewBox="0 0 16 16" fill="none" xmlns="http://www.w3.org/2000/svg">
<path d="M8.7532 1.50212C7.0702 0.240117 4.6592 1.34712 4.5192 3.44512L4.4492 4.50012H3.7502C3.55129 4.50012 3.36052 4.57913 3.21987 4.71979C3.07922 4.86044 3.0002 5.0512 3.0002 5.25012C3.0002 5.44903 3.07922 5.63979 3.21987 5.78045C3.36052 5.9211 3.55129 6.00012 3.7502 6.00012H4.3482L3.9282 12.2931C3.91534 12.4866 3.85767 12.6744 3.75973 12.8417C3.66179 13.009 3.52628 13.1512 3.3639 13.2572C3.20152 13.3631 3.01673 13.4298 2.82414 13.452C2.63154 13.4742 2.43642 13.4513 2.2542 13.3851L2.0072 13.2951C1.91462 13.2614 1.81631 13.2463 1.71788 13.2506C1.61946 13.2549 1.52285 13.2786 1.43356 13.3202C1.34428 13.3619 1.26407 13.4207 1.19752 13.4933C1.13097 13.566 1.07938 13.651 1.0457 13.7436C1.01202 13.8362 0.996897 13.9345 1.00121 14.0329C1.00552 14.1314 1.02917 14.228 1.07082 14.3173C1.11246 14.4065 1.17129 14.4867 1.24393 14.5533C1.31658 14.6198 1.40162 14.6714 1.4942 14.7051L1.7422 14.7951C2.14307 14.9408 2.57233 14.9912 2.99603 14.9424C3.41974 14.8935 3.82628 14.7468 4.18353 14.5138C4.54078 14.2808 4.83893 13.968 5.05443 13.5999C5.26993 13.2318 5.39687 12.8187 5.4252 12.3931L5.8522 6.00012H7.2502C7.44911 6.00012 7.63988 5.9211 7.78053 5.78045C7.92118 5.63979 8.0002 5.44903 8.0002 5.25012C8.0002 5.0512 7.92118 4.86044 7.78053 4.71979C7.63988 4.57913 7.44911 4.50012 7.2502 4.50012H5.9522L6.0152 3.54512C6.02899 3.33846 6.09834 3.13936 6.21593 2.96885C6.33351 2.79834 6.49496 2.66275 6.68322 2.5764C6.87148 2.49006 7.07957 2.45616 7.28551 2.47828C7.49144 2.50041 7.68758 2.57774 7.8532 2.70212L8.0502 2.85012C8.12899 2.90921 8.21865 2.95221 8.31406 2.97665C8.40947 3.0011 8.50876 3.00651 8.60627 2.99258C8.70377 2.97865 8.79757 2.94565 8.88232 2.89547C8.96707 2.84529 9.04111 2.77891 9.1002 2.70012C9.1593 2.62132 9.20229 2.53166 9.22674 2.43625C9.25118 2.34084 9.25659 2.24155 9.24266 2.14405C9.22873 2.04655 9.19574 1.95275 9.14556 1.868C9.09538 1.78325 9.02899 1.70921 8.9502 1.65012L8.7532 1.50212Z" fill="#605B66"/>
<path d="M9.63633 7.6651C9.51756 7.47224 9.35666 7.30878 9.16569 7.18698C8.97473 7.06519 8.75866 6.98822 8.5337 6.96186C8.30874 6.93549 8.08072 6.96042 7.86677 7.03476C7.65282 7.1091 7.45848 7.23093 7.29833 7.3911L6.97033 7.7191C6.83785 7.86128 6.76573 8.04933 6.76916 8.24363C6.77259 8.43793 6.8513 8.62331 6.98871 8.76073C7.12613 8.89814 7.31151 8.97685 7.50581 8.98028C7.70011 8.98371 7.88816 8.91159 8.03033 8.77911L8.35933 8.4511L9.55133 10.3881L7.22033 12.7201C7.08785 12.8623 7.01573 13.0503 7.01916 13.2446C7.02259 13.4389 7.1013 13.6243 7.23871 13.7617C7.37613 13.8991 7.56151 13.9779 7.75581 13.9813C7.95011 13.9847 8.13816 13.9126 8.28033 13.7801L10.3593 11.7021L11.3643 13.3351C11.4831 13.528 11.644 13.6914 11.835 13.8132C12.0259 13.935 12.242 14.012 12.467 14.0384C12.6919 14.0647 12.9199 14.0398 13.1339 13.9655C13.3479 13.8911 13.5422 13.7693 13.7023 13.6091L14.0303 13.2811C14.1628 13.1389 14.2349 12.9509 14.2315 12.7566C14.2281 12.5623 14.1494 12.3769 14.012 12.2395C13.8745 12.1021 13.6892 12.0234 13.4949 12.0199C13.3006 12.0165 13.1125 12.0886 12.9703 12.2211L12.6413 12.5491L11.4493 10.6121L13.7803 8.2801C13.9128 8.13793 13.9849 7.94988 13.9815 7.75558C13.9781 7.56128 13.8994 7.3759 13.762 7.23848C13.6245 7.10107 13.4392 7.02236 13.2449 7.01893C13.0506 7.0155 12.8625 7.08762 12.7203 7.2201L10.6403 9.2971L9.63633 7.6651Z" fill="#605B66"/>
</svg>
