<svg width="16" height="16" viewBox="0 0 16 16" fill="none" xmlns="http://www.w3.org/2000/svg">
<path d="M5.46564 12.8209C3.58704 12.8209 1.93645 12.6195 0.993389 11.7031C0.98017 11.7795 0.973389 11.8651 0.973389 11.9609C0.973389 12.8772 2.68967 14.0392 4.8068 14.0392C8.28064 14.0392 11.0007 14.1663 13.1429 11.7079C11.4987 12.6478 8.7912 12.8209 5.46564 12.8209Z" fill="#94DEF7"/>
<path d="M15.9036 7.31369C15.7881 6.89516 15.8247 6.40966 15.8632 6.12684C15.8768 6.02687 15.7611 5.96287 15.683 6.02675C15.2898 6.34828 14.791 7.10028 14.752 7.87206C14.5568 7.51703 14.2742 7.26353 14.0616 7.07216C13.8051 6.84134 13.75 6.4755 13.7484 6.21153C13.7475 6.05872 13.5685 5.97553 13.4524 6.07494C13.1831 6.30559 12.9651 6.79434 12.9651 7.81775C12.9651 8.80072 14.6436 9.87906 12.977 10.4931C12.0277 10.7611 10.7723 10.8424 10.7723 9.39662C10.7723 6.46578 8.39632 4.08984 5.46547 4.08984C0.704098 4.08984 0.158691 6.46578 0.158691 9.39662C0.158691 12.3275 2.53463 12.8175 5.46547 12.8175C5.8231 12.8175 6.17344 12.8155 6.51619 12.8108C6.53625 12.8352 6.55672 12.8592 6.5776 12.883C6.60235 12.9123 6.62863 12.9412 6.6596 12.9754C6.68994 13.0098 6.72216 13.0437 6.75932 13.0829C6.77769 13.1022 6.79594 13.1223 6.81566 13.1421L6.87832 13.2052C6.91975 13.248 6.96901 13.2947 7.01826 13.3414L7.09741 13.4152L7.18329 13.491C7.24107 13.5424 7.30635 13.5967 7.37332 13.6503L7.47994 13.7323C7.51566 13.7598 7.55566 13.7871 7.59388 13.8145C7.75044 13.9239 7.92719 14.0319 8.11907 14.126C8.31344 14.2215 8.51658 14.2979 8.72566 14.3543C8.93354 14.4097 9.14225 14.4457 9.34147 14.4578C9.54054 14.47 9.73147 14.4665 9.90807 14.4451C9.99726 14.4361 10.082 14.4207 10.1643 14.4066C10.2055 14.4004 10.2458 14.3904 10.2849 14.3811L10.4005 14.3532C10.4385 14.3449 10.4749 14.3323 10.5109 14.3216L10.6163 14.2887C10.6508 14.2787 10.6841 14.2656 10.7164 14.2533L10.8114 14.2172C10.935 14.169 11.0436 14.1156 11.139 14.068C11.2335 14.0167 11.3147 13.9721 11.3799 13.9302C11.4453 13.8891 11.4956 13.8528 11.5298 13.8294C11.5469 13.8178 11.5599 13.8077 11.5686 13.8013L11.5819 13.7914C11.6099 13.7703 11.6332 13.7435 11.6502 13.7127C11.6815 13.6556 11.6889 13.5884 11.6707 13.5259C11.6524 13.4634 11.6101 13.4106 11.553 13.3793L11.5444 13.3746L11.5303 13.3668C11.5209 13.3617 11.507 13.3537 11.4891 13.3448C11.4533 13.3268 11.4008 13.2985 11.3353 13.2675L11.2278 13.2147L11.1036 13.1552C11.0597 13.1353 11.0139 13.1113 10.9659 13.0883C10.916 13.0653 10.8665 13.0412 10.8175 13.016C10.7116 12.9644 10.6066 12.9107 10.5027 12.855C10.4503 12.8258 10.3955 12.798 10.344 12.7664C10.2919 12.7363 10.2392 12.7064 10.1898 12.6728C10.1501 12.6483 10.1111 12.6226 10.0729 12.5957C11.7132 12.3794 13.0064 11.9664 13.8369 11.2022V11.2027C15.5979 9.98178 16.079 7.94931 15.9036 7.31369Z" fill="#00B1FF"/>
<path d="M3.65548 8.89453C3.93398 8.89453 4.16017 9.12022 4.16017 9.39962V10.0198C4.16017 10.2987 3.93402 10.5249 3.65548 10.5249C3.37655 10.5249 3.15039 10.2987 3.15039 10.0198V9.39966C3.15039 9.12022 3.37655 8.89453 3.65548 8.89453Z" fill="#2B3B47"/>
</svg>
