<svg width="20" height="20" viewBox="0 0 20 20" fill="none" xmlns="http://www.w3.org/2000/svg">
<path d="M20 10C20 15.5228 15.5228 20 10 20C4.47715 20 0 15.5228 0 10C0 4.47715 4.47715 0 10 0C15.5228 0 20 4.47715 20 10ZM2.5 10C2.5 14.1421 5.85786 17.5 10 17.5C14.1421 17.5 17.5 14.1421 17.5 10C17.5 5.85786 14.1421 2.5 10 2.5C5.85786 2.5 2.5 5.85786 2.5 10Z" fill="#F8F8F8"/>
<path d="M20 10C20 11.9778 19.4135 13.9112 18.3147 15.5557C17.2159 17.2002 15.6541 18.4819 13.8268 19.2388C11.9996 19.9957 9.98891 20.1937 8.0491 19.8079C6.10929 19.422 4.32746 18.4696 2.92893 17.0711C1.53041 15.6725 0.577999 13.8907 0.192147 11.9509C-0.193705 10.0111 0.00432836 8.00043 0.761205 6.17317C1.51808 4.3459 2.79981 2.78412 4.4443 1.6853C6.08879 0.58649 8.02219 -2.35852e-08 10 0V2.5C8.51664 2.5 7.06659 2.93987 5.83322 3.76398C4.59985 4.58809 3.63856 5.75943 3.0709 7.12987C2.50325 8.50032 2.35472 10.0083 2.64411 11.4632C2.9335 12.918 3.64781 14.2544 4.6967 15.3033C5.74559 16.3522 7.08196 17.0665 8.53682 17.3559C9.99168 17.6453 11.4997 17.4968 12.8701 16.9291C14.2406 16.3614 15.4119 15.4001 16.236 14.1668C17.0601 12.9334 17.5 11.4834 17.5 10H20Z" fill="#725AC1"/>
</svg>
