<svg width="16" height="17" viewBox="0 0 16 17" fill="none" xmlns="http://www.w3.org/2000/svg">
<path d="M14.5 13.875L10.6225 9.99687C11.2474 9.13817 11.5835 8.10325 11.5825 7.04125C11.5825 4.26156 9.32094 2 6.54125 2C3.76156 2 1.5 4.26156 1.5 7.04125C1.5 9.82094 3.76156 12.0825 6.54125 12.0825C7.60325 12.0835 8.63817 11.7474 9.49687 11.1225L13.375 15L14.5 13.875ZM6.54125 10.4903C5.859 10.4904 5.19206 10.2881 4.62476 9.90912C4.05747 9.53012 3.6153 8.9914 3.35419 8.3611C3.09308 7.7308 3.02474 7.03722 3.15783 6.36807C3.29091 5.69893 3.61944 5.08428 4.10186 4.60186C4.58428 4.11944 5.19893 3.79091 5.86807 3.65783C6.53722 3.52474 7.2308 3.59308 7.8611 3.85419C8.4914 4.1153 9.03012 4.55747 9.40912 5.12476C9.78812 5.69206 9.99037 6.359 9.99031 7.04125C9.98924 7.95567 9.62551 8.83233 8.97892 9.47892C8.33233 10.1255 7.45567 10.4892 6.54125 10.4903Z" fill="#605B66"/>
</svg>
