<svg width="24" height="24" viewBox="0 0 24 24" fill="none" xmlns="http://www.w3.org/2000/svg">
<path d="M9 11.25C9.39782 11.25 9.77936 11.092 10.0607 10.8107C10.342 10.5294 10.5 10.1478 10.5 9.75C10.5 9.35218 10.342 8.97064 10.0607 8.68934C9.77936 8.40804 9.39782 8.25 9 8.25C8.60218 8.25 8.22064 8.40804 7.93934 8.68934C7.65804 8.97064 7.5 9.35218 7.5 9.75C7.5 10.1478 7.65804 10.5294 7.93934 10.8107C8.22064 11.092 8.60218 11.25 9 11.25ZM16.5 9.75C16.5 10.1478 16.342 10.5294 16.0607 10.8107C15.7794 11.092 15.3978 11.25 15 11.25C14.6022 11.25 14.2206 11.092 13.9393 10.8107C13.658 10.5294 13.5 10.1478 13.5 9.75C13.5 9.35218 13.658 8.97064 13.9393 8.68934C14.2206 8.40804 14.6022 8.25 15 8.25C15.3978 8.25 15.7794 8.40804 16.0607 8.68934C16.342 8.97064 16.5 9.35218 16.5 9.75ZM7.16475 14.3295C7.34172 14.241 7.54649 14.226 7.73446 14.2879C7.92242 14.3497 8.07834 14.4832 8.16825 14.6595L8.1705 14.664L8.196 14.7075C8.22225 14.7503 8.26575 14.817 8.32875 14.9017C8.4555 15.0705 8.65875 15.3038 8.95275 15.5392C9.5325 16.0027 10.4948 16.5 12 16.5C13.5052 16.5 14.4675 16.0027 15.0472 15.54C15.342 15.3037 15.5452 15.0705 15.6713 14.9017C15.729 14.8259 15.7818 14.7465 15.8295 14.664L15.8325 14.6588C15.923 14.4826 16.0795 14.3493 16.2678 14.2881C16.4562 14.2269 16.6611 14.2427 16.8379 14.332C17.0147 14.4213 17.149 14.5769 17.2114 14.7649C17.2739 14.9529 17.2594 15.1579 17.1713 15.3353L17.1698 15.3375V15.339L17.1667 15.3435L17.1608 15.3547C17.1372 15.3993 17.1122 15.4431 17.0858 15.486C17.0199 15.5946 16.9485 15.6997 16.872 15.801C16.6151 16.1401 16.3168 16.4457 15.984 16.7108C15.1575 17.3723 13.8698 18 12 18C10.1302 18 8.8425 17.3723 8.016 16.71C7.68357 16.4454 7.38551 16.1403 7.12875 15.8018C7.02178 15.6598 6.92503 15.5104 6.83925 15.3547L6.83325 15.3435L6.831 15.339L6.83025 15.3368L6.8295 15.3353C6.74068 15.1574 6.72611 14.9516 6.78897 14.763C6.85183 14.5744 6.98699 14.4185 7.16475 14.3295ZM12 1.5C6.201 1.5 1.5 6.201 1.5 12C1.5 17.799 6.201 22.5 12 22.5C17.799 22.5 22.5 17.799 22.5 12C22.5 6.201 17.799 1.5 12 1.5ZM3 12C3 7.02975 7.02975 3 12 3C16.9703 3 21 7.02975 21 12C21 16.9703 16.9703 21 12 21C7.02975 21 3 16.9703 3 12Z" fill="#605B66"/>
</svg>
