<svg width="20" height="20" viewBox="0 0 20 20" fill="none" xmlns="http://www.w3.org/2000/svg">
<path fill-rule="evenodd" clip-rule="evenodd" d="M7.30912 13.7515C8.36949 15.3084 8.20926 17.4476 6.82843 18.8284C5.26633 20.3905 2.73367 20.3905 1.17157 18.8284C-0.390524 17.2663 -0.390524 14.7337 1.17157 13.1716C2.55241 11.7907 4.69162 11.6305 6.24846 12.6909L12.6909 6.24846C11.6305 4.69162 11.7907 2.55241 13.1716 1.17157C14.7337 -0.390524 17.2663 -0.390524 18.8284 1.17157C20.3905 2.73367 20.3905 5.26633 18.8284 6.82843C17.4476 8.20926 15.3084 8.36949 13.7515 7.30912L7.30912 13.7515ZM18 4C18 5.10457 17.1046 6 16 6C14.8954 6 14 5.10457 14 4C14 2.89543 14.8954 2 16 2C17.1046 2 18 2.89543 18 4ZM4 18C5.10457 18 6 17.1046 6 16C6 14.8954 5.10457 14 4 14C2.89543 14 2 14.8954 2 16C2 17.1046 2.89543 18 4 18Z" fill="#605B66"/>
</svg>
